#N canvas 362 276 609 566 12;
#X obj 205 14 r centroid;
#X obj 205 67 t b f;
#X obj 262 69 t b f;
#X obj 17 180 *;
#X obj 74 179 *;
#X obj 17 210 +;
#X obj 17 237 sqrt;
#X obj 17 299 outlet;
#X obj 17 6 inlet;
#X obj 17 144 -;
#X obj 74 146 -;
#X obj 17 67 expr if($f1==-1 \, 0 \, $f1);
#X obj 56 98 expr if($f1==-1 \, 0 \, $f1);
#X obj 56 237 expr if($f1==-1 \, 0 \, 1);
#X obj 17 268 *;
#X obj 17 36 unpack f f;
#X obj 205 40 unpack f f;
#X connect 0 0 16 0;
#X connect 1 0 9 0;
#X connect 1 1 9 1;
#X connect 2 0 10 0;
#X connect 2 1 10 1;
#X connect 3 0 5 0;
#X connect 4 0 5 1;
#X connect 5 0 6 0;
#X connect 6 0 14 0;
#X connect 8 0 15 0;
#X connect 9 0 3 0;
#X connect 9 0 3 1;
#X connect 10 0 4 0;
#X connect 10 0 4 1;
#X connect 11 0 9 0;
#X connect 12 0 10 0;
#X connect 13 0 14 1;
#X connect 14 0 7 0;
#X connect 15 0 11 0;
#X connect 15 0 13 0;
#X connect 15 1 12 0;
#X connect 16 0 1 0;
#X connect 16 1 2 0;
