#N canvas 433 92 1109 733 12;
#X obj 62 188 noise~;
#X obj 62 223 vcf~, f 6;
#X obj 116 223 vcf~, f 6;
#X obj 171 223 vcf~, f 6;
#X obj 225 223 vcf~, f 6;
#X obj 474 193 line~;
#X obj 474 218 *~;
#X obj 63 276 *~;
#X obj 76 91 bng 20 250 50 0 empty empty empty 0 -10 0 12 #fcfcfc #000000 #000000;
#X obj 78 147 + 2000;
#X obj 164 147 + 2000;
#X obj 248 146 + 2000;
#X obj 334 146 + 2000;
#X obj 78 122 random 3000;
#X obj 164 122 random 3000;
#X obj 248 121 random 3000;
#X obj 334 121 random 3000;
#X msg 422 122 300;
#X msg 474 123 1 \, 0 100;
#X obj 256 39 delay;
#X obj 302 40 delay;
#X obj 349 39 delay;
#X obj 395 40 delay;
#X obj 63 301 hip~ 1000;
#X obj 63 326 hip~ 1000;
#X obj 63 351 hip~ 1000;
#X obj 63 376 hip~ 1000;
#X obj 76 30 r lb;
#X obj 220 297 inlet point;
#X obj 62 596 throw~ courtain;
#X obj 220 378 lop~ 1;
#X obj 62 433 *~;
#X obj 220 353 expr if($f1>0 && $f1<0.2 \, 1 \, 0);
#X floatatom 451 343 5 0 0 0 - - - 0;
#X floatatom 300 410 5 0 0 0 - - - 0;
#X obj 220 322 unpack f f f f f;
#X obj 602 444 t b f;
#X obj 348 495 expr pow(sqrt(($f1*$f1)+($f2*$f2))*4 \, 0.5);
#X obj 69 550 *~;
#X obj 349 527 clip 0 1;
#X floatatom 620 390 5 0 0 0 - - - 0;
#X obj 619 286 * -1;
#X obj 619 311 + 1;
#X obj 619 361 + 1000;
#X obj 619 336 * 3000;
#X floatatom 394 575 5 0 0 0 - - - 0;
#X obj 101 514 + 0.5;
#X obj 62 458 /~ 3;
#X connect 0 0 1 0;
#X connect 0 0 2 0;
#X connect 0 0 3 0;
#X connect 0 0 4 0;
#X connect 1 0 7 0;
#X connect 2 0 7 0;
#X connect 3 0 7 0;
#X connect 4 0 7 0;
#X connect 5 0 6 0;
#X connect 5 0 6 1;
#X connect 6 0 7 1;
#X connect 7 0 23 0;
#X connect 8 0 18 0;
#X connect 8 0 17 0;
#X connect 8 0 13 0;
#X connect 8 0 14 0;
#X connect 8 0 15 0;
#X connect 8 0 16 0;
#X connect 9 0 1 1;
#X connect 10 0 2 1;
#X connect 11 0 3 1;
#X connect 12 0 4 1;
#X connect 13 0 9 0;
#X connect 13 0 19 0;
#X connect 14 0 10 0;
#X connect 14 0 20 0;
#X connect 15 0 11 0;
#X connect 15 0 21 0;
#X connect 16 0 12 0;
#X connect 16 0 22 0;
#X connect 17 0 4 2;
#X connect 17 0 3 2;
#X connect 17 0 2 2;
#X connect 17 0 1 2;
#X connect 18 0 5 0;
#X connect 19 0 8 0;
#X connect 20 0 8 0;
#X connect 21 0 8 0;
#X connect 22 0 8 0;
#X connect 23 0 24 0;
#X connect 24 0 25 0;
#X connect 25 0 26 0;
#X connect 26 0 31 0;
#X connect 27 0 8 0;
#X connect 28 0 35 0;
#X connect 30 0 31 1;
#X connect 31 0 47 0;
#X connect 32 0 30 0;
#X connect 32 0 34 0;
#X connect 35 1 32 0;
#X connect 35 1 33 0;
#X connect 35 2 37 0;
#X connect 35 3 36 0;
#X connect 36 0 37 0;
#X connect 36 1 37 1;
#X connect 37 0 39 0;
#X connect 38 0 29 0;
#X connect 39 0 41 0;
#X connect 39 0 45 0;
#X connect 39 0 46 0;
#X connect 40 0 16 1;
#X connect 40 0 15 1;
#X connect 40 0 14 1;
#X connect 40 0 13 1;
#X connect 41 0 42 0;
#X connect 42 0 44 0;
#X connect 43 0 40 0;
#X connect 44 0 43 0;
#X connect 46 0 38 1;
#X connect 47 0 38 0;
