#N canvas 219 -20 1920 1109 12;
#X obj 16 11 else/conv~;
#X obj 16 56 else/tabplayer~;
#X obj 16 33 else/sample~;
#X floatatom 38 147 5 0 0 0 - - - 0;
#X obj 114 768 dac~;
#X obj 202 816 hsl 162 19 0 5 0 0 empty empty empty -2 -10 0 12 #fcfcfc #000000 #000000 0 1;
#N canvas 4 0 1920 1109 shepard 0;
#X obj 104 76 phasor~;
#X obj 148 240 cos~;
#X obj 148 218 +~ 0.25;
#X obj 148 195 *~ -0.5;
#X obj 106 275 *~;
#X obj 105 169 *~ 36;
#X obj 105 195 +~ 48;
#X obj 105 218 mtof~;
#X obj 270 240 cos~;
#X obj 270 218 +~ 0.25;
#X obj 270 195 *~ -0.5;
#X obj 228 275 *~;
#X obj 227 169 *~ 36;
#X obj 227 195 +~ 48;
#X obj 227 218 mtof~;
#X obj 227 123 +~ 0.125;
#X obj 227 147 wrap~;
#X obj 391 238 cos~;
#X obj 391 216 +~ 0.25;
#X obj 391 193 *~ -0.5;
#X obj 349 273 *~;
#X obj 348 167 *~ 36;
#X obj 348 193 +~ 48;
#X obj 348 216 mtof~;
#X obj 348 145 wrap~;
#X obj 348 121 +~ 0.25;
#X obj 509 238 cos~;
#X obj 509 216 +~ 0.25;
#X obj 509 193 *~ -0.5;
#X obj 467 273 *~;
#X obj 466 167 *~ 36;
#X obj 466 193 +~ 48;
#X obj 466 216 mtof~;
#X obj 466 145 wrap~;
#X obj 466 121 +~ 0.375;
#X obj 637 240 cos~;
#X obj 637 218 +~ 0.25;
#X obj 637 195 *~ -0.5;
#X obj 595 275 *~;
#X obj 594 169 *~ 36;
#X obj 594 195 +~ 48;
#X obj 594 218 mtof~;
#X obj 594 147 wrap~;
#X obj 594 123 +~ 0.5;
#X obj 761 240 cos~;
#X obj 761 218 +~ 0.25;
#X obj 761 195 *~ -0.5;
#X obj 719 275 *~;
#X obj 718 169 *~ 36;
#X obj 718 195 +~ 48;
#X obj 718 218 mtof~;
#X obj 718 147 wrap~;
#X obj 718 123 +~ 0.675;
#X obj 885 241 cos~;
#X obj 885 219 +~ 0.25;
#X obj 885 196 *~ -0.5;
#X obj 843 276 *~;
#X obj 842 170 *~ 36;
#X obj 842 196 +~ 48;
#X obj 842 219 mtof~;
#X obj 842 148 wrap~;
#X obj 842 124 +~ 0.75;
#X obj 1006 240 cos~;
#X obj 1006 218 +~ 0.25;
#X obj 1006 195 *~ -0.5;
#X obj 964 275 *~;
#X obj 963 169 *~ 36;
#X obj 963 195 +~ 48;
#X obj 963 218 mtof~;
#X obj 963 147 wrap~;
#X obj 963 123 +~ 0.875;
#X obj 12 112 noise~;
#X obj 67 240 vcf~ 440 60;
#X obj 188 240 vcf~ 440 60;
#X obj 309 238 vcf~ 440 60;
#X obj 428 238 vcf~ 440 60;
#X obj 556 240 vcf~ 440 60;
#X obj 680 240 vcf~ 440 60;
#X obj 804 241 vcf~ 440 60;
#X obj 925 240 vcf~ 440 60;
#X floatatom 1088 168 5 0 0 0 - - - 0;
#X msg 1095 125 400;
#X obj 105 35 inlet~ freq;
#X obj 105 372 outlet~;
#X obj 525 75 inlet q, f 8;
#X obj 1177 129 loadbang;
#X obj 263 47 inlet mul;
#X obj 382 59 inlet add;
#X obj 105 348 expr~ tanh($v1);
#X connect 0 0 3 0;
#X connect 0 0 5 0;
#X connect 0 0 15 0;
#X connect 0 0 25 0;
#X connect 0 0 34 0;
#X connect 0 0 43 0;
#X connect 0 0 52 0;
#X connect 0 0 61 0;
#X connect 0 0 70 0;
#X connect 1 0 4 1;
#X connect 2 0 1 0;
#X connect 3 0 2 0;
#X connect 4 0 88 0;
#X connect 5 0 6 0;
#X connect 6 0 7 0;
#X connect 7 0 72 1;
#X connect 8 0 11 1;
#X connect 9 0 8 0;
#X connect 10 0 9 0;
#X connect 11 0 88 0;
#X connect 12 0 13 0;
#X connect 13 0 14 0;
#X connect 14 0 73 1;
#X connect 15 0 16 0;
#X connect 16 0 12 0;
#X connect 16 0 10 0;
#X connect 17 0 20 1;
#X connect 18 0 17 0;
#X connect 19 0 18 0;
#X connect 20 0 88 0;
#X connect 21 0 22 0;
#X connect 22 0 23 0;
#X connect 23 0 74 1;
#X connect 24 0 21 0;
#X connect 24 0 19 0;
#X connect 25 0 24 0;
#X connect 26 0 29 1;
#X connect 27 0 26 0;
#X connect 28 0 27 0;
#X connect 29 0 88 0;
#X connect 30 0 31 0;
#X connect 31 0 32 0;
#X connect 32 0 75 1;
#X connect 33 0 30 0;
#X connect 33 0 28 0;
#X connect 34 0 33 0;
#X connect 35 0 38 1;
#X connect 36 0 35 0;
#X connect 37 0 36 0;
#X connect 38 0 88 0;
#X connect 39 0 40 0;
#X connect 40 0 41 0;
#X connect 41 0 76 1;
#X connect 42 0 39 0;
#X connect 42 0 37 0;
#X connect 43 0 42 0;
#X connect 44 0 47 1;
#X connect 45 0 44 0;
#X connect 46 0 45 0;
#X connect 47 0 88 0;
#X connect 48 0 49 0;
#X connect 49 0 50 0;
#X connect 50 0 77 1;
#X connect 51 0 48 0;
#X connect 51 0 46 0;
#X connect 52 0 51 0;
#X connect 53 0 56 1;
#X connect 54 0 53 0;
#X connect 55 0 54 0;
#X connect 56 0 88 0;
#X connect 57 0 58 0;
#X connect 58 0 59 0;
#X connect 60 0 57 0;
#X connect 60 0 55 0;
#X connect 61 0 60 0;
#X connect 62 0 65 1;
#X connect 63 0 62 0;
#X connect 64 0 63 0;
#X connect 65 0 88 0;
#X connect 66 0 67 0;
#X connect 67 0 68 0;
#X connect 68 0 79 1;
#X connect 69 0 66 0;
#X connect 69 0 64 0;
#X connect 70 0 69 0;
#X connect 71 0 72 0;
#X connect 71 0 73 0;
#X connect 71 0 79 0;
#X connect 71 0 78 0;
#X connect 71 0 77 0;
#X connect 71 0 76 0;
#X connect 71 0 75 0;
#X connect 71 0 74 0;
#X connect 72 0 4 0;
#X connect 73 0 11 0;
#X connect 74 0 20 0;
#X connect 75 0 29 0;
#X connect 76 0 38 0;
#X connect 77 0 47 0;
#X connect 78 0 56 0;
#X connect 79 0 65 0;
#X connect 80 0 79 2;
#X connect 80 0 72 2;
#X connect 80 0 73 2;
#X connect 80 0 74 2;
#X connect 80 0 75 2;
#X connect 80 0 76 2;
#X connect 80 0 77 2;
#X connect 80 0 78 2;
#X connect 81 0 80 0;
#X connect 82 0 0 0;
#X connect 84 0 80 0;
#X connect 85 0 81 0;
#X connect 86 0 5 1;
#X connect 86 0 66 1;
#X connect 86 0 57 1;
#X connect 86 0 48 1;
#X connect 86 0 39 1;
#X connect 86 0 30 1;
#X connect 86 0 21 1;
#X connect 86 0 12 1;
#X connect 87 0 6 1;
#X connect 87 0 67 1;
#X connect 87 0 58 1;
#X connect 87 0 49 1;
#X connect 87 0 40 1;
#X connect 87 0 31 1;
#X connect 87 0 22 1;
#X connect 87 0 13 1;
#X connect 88 0 83 0;
#X restore 123 282 pd shepard;
#X obj 115 616 *~;
#X obj 199 840 lop~ 20;
#X obj 365 598 vradio 15 1 0 10 empty empty empty 0 -8 0 10 #dcdcdc #000000 #000000 0;
#N canvas 728 150 712 728 presets 0;
#X obj 73 21 inlet;
#X obj 88 576 s \$0-set;
#X obj 103 516 s \$0-set;
#X obj 118 453 s \$0-set;
#X obj 134 393 s \$0-set;
#X text 145 577 bathroom;
#X text 162 518 living room;
#X msg 73 608 size 40 \, decay 4 \, damp 0.9 \, bw 0.75 \, dry 1 \, early 0.795 \, late 0.04, f 66;
#X obj 73 633 s \$0-set;
#X text 130 634 "quick fix";
#X obj 149 333 s \$0-set;
#X obj 164 277 s \$0-set;
#X text 234 217 Last row of the church;
#X msg 180 194 size 200 \, decay 9 \, damp 0.7 \, bw 0.8 \, dry 0.1 \, early 0.18 \, late 0.4, f 66;
#X obj 180 216 s \$0-set;
#X obj 195 163 s \$0-set;
#X obj 210 109 s \$0-set;
#X obj 73 62 select 0 1 2 3 4 5 6 7 8 9;
#X msg 118 427 size 50 \, decay 1.5 \, damp 0.1 \, bw 0.75 \, dry 0.84 \, early 0.31 \, late 0.1, f 69;
#X text 179 453 Bright \, small hall;
#X msg 134 369 size 40 \, decay 20 \, damp 0.5 \, bw 0.75 \, dry 1 \, early 0.31 \, late 0.031, f 67;
#X text 191 395 Nice hall effect;
#X msg 149 309 size 6 \, decay 15 \, damp 0.9 \, bw 0.1 \, dry 0.31 \, early 0.31 \, late 0.31, f 67;
#X text 207 333 Singing in the Sewer;
#X text 220 278 church;
#X text 251 164 cathedral;
#X text 264 110 canyon;
#X msg 210 86 size 300 \, decay 103 \, damp 0.43 \, bw 0.51 \, dry 0.55 \, early 0.05 \, late 0.1, f 71;
#X msg 195 141 size 143 \, decay 7 \, damp 0.71 \, bw 0.34 \, dry 0.7 \, early 0.28 \, late 0.35, f 69;
#X msg 164 252 size 80 \, decay 4.85 \, damp 0.41 \, bw 0.69 \, dry 0.7 \, early 0.35 \, late 0.28, f 71;
#X msg 103 492 size 16 \, decay 1.24 \, damp 0.18 \, bw 0.95 \, dry 0.7 \, early 0.18 \, late 0.14, f 71;
#X msg 88 550 size 5 \, decay 0.6 \, damp 0.62 \, bw 0.48 \, dry 0.5 \, early 0.25 \, late 0.25, f 69;
#X obj 328 679 outlet;
#X obj 328 648 r \$0-set;
#X connect 0 0 17 0;
#X connect 7 0 8 0;
#X connect 13 0 14 0;
#X connect 17 0 7 0;
#X connect 17 1 31 0;
#X connect 17 2 30 0;
#X connect 17 3 18 0;
#X connect 17 4 20 0;
#X connect 17 5 22 0;
#X connect 17 6 29 0;
#X connect 17 7 13 0;
#X connect 17 8 28 0;
#X connect 17 9 27 0;
#X connect 18 0 3 0;
#X connect 20 0 4 0;
#X connect 22 0 10 0;
#X connect 27 0 16 0;
#X connect 28 0 15 0;
#X connect 29 0 11 0;
#X connect 30 0 2 0;
#X connect 31 0 1 0;
#X connect 33 0 32 0;
#X restore 365 770 pd presets;
#X text 385 703 - last row of the church;
#X text 385 718 - cathedral;
#X text 385 733 - canyon;
#X text 387 610 - bathroom, f 13;
#X text 387 594 - "quick fix";
#X text 387 625 - living room;
#X text 387 685 - church;
#X text 387 670 - singing in the Sewer;
#X text 387 656 - nice hall effect;
#X text 387 640 - bright \, small hall;
#X obj 114 656 expr~ tanh($v1);
#X obj 245 200 hsl 162 19 100 800 1 0 empty empty empty -2 -10 0 12 #fcfcfc #000000 #000000 0 1;
#X obj 142 145 hsl 162 19 1 60 0 0 empty empty empty -2 -10 0 12 #fcfcfc #000000 #000000 0 1;
#X obj 166 172 hsl 162 19 1 60 0 0 empty empty empty -2 -10 0 12 #fcfcfc #000000 #000000 0 1;
#X obj 333 372 samphold~;
#X obj 332 405 expr~ round($v1*(pow(2 \, $f2)-1))/(pow(2 \, $f2)-1);
#X obj 392 345 phasor~;
#X obj 665 340 int;
#X obj 471 319 hsl 162 19 20 44099 0 0 empty empty empty -2 -10 0 12 #fcfcfc #000000 #000000 0 1;
#X obj 666 303 hsl 162 19 1 24 0 0 empty empty empty -2 -10 0 12 #fcfcfc #000000 #000000 0 1;
#X obj 353 276 hsl 162 19 0 36 0 0 empty empty empty -2 -10 0 12 #fcfcfc #000000 #000000 0 1;
#X obj 318 276 tgl 19 0 empty empty empty 0 -10 0 12 #fcfcfc #000000 #000000 0 1;
#N canvas 244 -10 1920 1109 buffer 0;
#X obj 121 278 *~ 44100;
#X msg 627 213 1 2 3 4 5 6 7 9 10 12 14 15 18 20 21 25 28 30 35 36 42 45 49 50 60 63 70 75 84 90 98 100 105 126 140 147 150;
#X obj 627 256 array set divisors;
#X obj 121 304 /~ 1;
#X obj 628 181 table divisors 37;
#X obj 628 156 table bffr 44100;
#X obj 121 331 tabread4~ bffr;
#X obj 142 177 tabwrite~ bffr;
#X obj 121 138 metro 1000;
#X obj 121 207 f;
#X obj 230 327 cos~;
#X obj 230 303 +~ 0.25;
#X obj 230 279 *~ 0.5;
#X obj 230 354 abs~;
#X obj 121 402 *~;
#X obj 781 156 loadbang;
#X obj 419 205 tabread divisors;
#X floatatom 431 268 5 0 0 0 - - - 0;
#X obj 121 252 phasor~ 1;
#X obj 230 378 pow~ 0.1;
#X obj 119 456 outlet~;
#X obj 423 167 inlet;
#X obj 122 103 inlet;
#X obj 47 40 inlet~;
#X connect 0 0 3 0;
#X connect 1 0 2 0;
#X connect 3 0 6 0;
#X connect 6 0 14 0;
#X connect 8 0 7 0;
#X connect 8 0 9 0;
#X connect 9 0 3 1;
#X connect 9 0 18 0;
#X connect 10 0 13 0;
#X connect 11 0 10 0;
#X connect 12 0 11 0;
#X connect 13 0 19 0;
#X connect 14 0 20 0;
#X connect 15 0 1 0;
#X connect 16 0 17 0;
#X connect 16 0 9 0;
#X connect 18 0 0 0;
#X connect 18 0 12 0;
#X connect 19 0 14 1;
#X connect 21 0 16 0;
#X connect 22 0 8 0;
#X connect 23 0 7 0;
#X restore 319 336 pd buffer;
#X obj 386 470 lop~ 20;
#X obj 114 447 else/giga.rev~;
#X obj 114 491 expr~ ($v1*$v4)+($v3*($v4-1)) \; ($v2*$v4)+($v3*($v4-1));
#X obj 231 617 *~;
#X obj 230 657 expr~ tanh($v1);
#X obj 506 440 hradio 19 1 0 2 empty empty empty 0 -10 0 12 #fcfcfc #000000 #000000 0;
#X obj 875 164 bng 19 250 50 0 empty empty empty 0 -10 0 12 #fcfcfc #000000 #000000;
#X obj 874 227 random 37;
#X obj 1128 275 delay;
#X obj 1124 320 f;
#X obj 1158 321 + 1;
#X obj 1124 344 % 2;
#X obj 1241 327 delay;
#X obj 1241 303 random 5000;
#X obj 1132 225 random 500;
#X obj 1028 227 random 44080;
#X obj 1028 251 + 20;
#X obj 958 251 + 6;
#X obj 957 227 random 29;
#X obj 556 808 r centroid;
#X obj 556 832 unpack f f;
#X obj 556 880 - 0.05;
#X floatatom 556 904 8 0 0 0 - - - 0;
#X obj 556 856 / 10;
#N canvas -94 210 1920 1109 distance_to_centroid 0;
#X obj 93 80 r p1;
#X obj 213 81 r p2;
#X obj 333 81 r p3;
#X obj 453 82 r p4;
#X obj 573 81 r p5;
#X obj 693 81 r p6;
#X obj 813 81 r p7;
#X obj 93 104 unpack f f;
#X obj 213 104 unpack f f;
#X obj 333 104 unpack f f;
#X obj 453 104 unpack f f;
#X obj 573 104 unpack f f;
#X obj 693 104 unpack f f;
#X obj 813 104 unpack f f;
#X obj 93 368 expr ($f1+$f2+$f3+$f4+$f5+$f6+$f7)/$f8;
#X obj 160 151 min 0;
#X obj 280 151 min 0;
#X obj 400 151 min 0;
#X obj 520 151 min 0;
#X obj 640 151 min 0;
#X obj 760 151 min 0;
#X obj 880 151 min 0;
#X obj 424 239 t b f;
#X obj 465 239 t b f;
#X obj 506 239 t b f;
#X obj 547 239 t b f;
#X obj 588 239 t b f;
#X obj 629 239 t b f;
#X obj 119 319 t b f;
#X obj 160 319 t b f;
#X obj 201 319 t b f;
#X obj 242 319 t b f;
#X obj 283 319 t b f;
#X obj 324 319 t b f;
#X obj 365 319 t b f;
#X obj 93 392 outlet;
#X obj 365 287 expr 7+$f1+$f2+$f3+$f4+$f5+$f6+$f7;
#X obj 93 205 centroid_vector;
#X obj 210 206 centroid_vector;
#X obj 330 207 centroid_vector;
#X obj 447 208 centroid_vector;
#X obj 567 206 centroid_vector;
#X obj 684 207 centroid_vector;
#X obj 816 210 centroid_vector;
#X connect 0 0 7 0;
#X connect 0 0 37 0;
#X connect 1 0 8 0;
#X connect 1 0 38 0;
#X connect 2 0 9 0;
#X connect 2 0 39 0;
#X connect 3 0 10 0;
#X connect 3 0 40 0;
#X connect 4 0 11 0;
#X connect 4 0 41 0;
#X connect 5 0 12 0;
#X connect 5 0 42 0;
#X connect 6 0 13 0;
#X connect 6 0 43 0;
#X connect 7 1 15 0;
#X connect 8 1 16 0;
#X connect 9 1 17 0;
#X connect 10 1 18 0;
#X connect 11 1 19 0;
#X connect 12 1 20 0;
#X connect 13 1 21 0;
#X connect 14 0 35 0;
#X connect 15 0 36 0;
#X connect 16 0 22 0;
#X connect 17 0 23 0;
#X connect 18 0 24 0;
#X connect 19 0 25 0;
#X connect 20 0 26 0;
#X connect 21 0 27 0;
#X connect 22 0 36 0;
#X connect 22 1 36 1;
#X connect 23 0 36 0;
#X connect 23 1 36 2;
#X connect 24 0 36 0;
#X connect 24 1 36 3;
#X connect 25 0 36 0;
#X connect 25 1 36 4;
#X connect 26 0 36 0;
#X connect 26 1 36 5;
#X connect 27 0 36 0;
#X connect 27 1 36 6;
#X connect 28 0 14 0;
#X connect 28 1 14 1;
#X connect 29 0 14 0;
#X connect 29 1 14 2;
#X connect 30 0 14 0;
#X connect 30 1 14 3;
#X connect 31 0 14 0;
#X connect 31 1 14 4;
#X connect 32 0 14 0;
#X connect 32 1 14 5;
#X connect 33 0 14 0;
#X connect 33 1 14 6;
#X connect 34 0 14 0;
#X connect 34 1 14 7;
#X connect 36 0 34 0;
#X connect 37 0 14 0;
#X connect 38 0 28 0;
#X connect 39 0 29 0;
#X connect 40 0 30 0;
#X connect 41 0 31 0;
#X connect 42 0 32 0;
#X connect 43 0 33 0;
#X restore 1002 755 pd distance_to_centroid;
#X floatatom 1002 779 5 0 0 0 - - - 0;
#X obj 1002 803 - 1;
#X obj 1002 827 abs;
#X obj 1002 875 + 100;
#X floatatom 1002 899 9 0 0 0 - - - 0;
#X obj 1002 851 * 300;
#X obj 752 723 r p1;
#X listbox 752 747 20 0 0 0 - - - 0;
#X msg 1227 226 0;
#X connect 3 0 6 0;
#X connect 5 0 8 0;
#X connect 6 0 33 0;
#X connect 6 0 35 0;
#X connect 7 0 21 0;
#X connect 8 0 7 1;
#X connect 8 0 37 1;
#X connect 9 0 10 0;
#X connect 10 0 35 0;
#X connect 21 0 4 0;
#X connect 22 0 6 3;
#X connect 23 0 6 1;
#X connect 24 0 6 2;
#X connect 25 0 26 0;
#X connect 26 0 36 2;
#X connect 27 0 25 1;
#X connect 28 0 26 1;
#X connect 29 0 27 0;
#X connect 30 0 28 0;
#X connect 31 0 33 2;
#X connect 32 0 33 1;
#X connect 33 0 25 0;
#X connect 34 0 36 3;
#X connect 35 0 36 0;
#X connect 35 1 36 1;
#X connect 36 0 7 0;
#X connect 36 1 37 0;
#X connect 37 0 38 0;
#X connect 38 0 4 1;
#X connect 39 0 34 0;
#X connect 40 0 41 0;
#X connect 40 0 48 0;
#X connect 40 0 43 0;
#X connect 40 0 49 0;
#X connect 40 0 52 0;
#X connect 41 0 31 0;
#X connect 42 0 43 0;
#X connect 42 0 47 0;
#X connect 43 0 45 0;
#X connect 43 0 44 0;
#X connect 44 0 43 1;
#X connect 45 0 39 0;
#X connect 46 0 40 0;
#X connect 47 0 46 0;
#X connect 48 0 42 0;
#X connect 49 0 50 0;
#X connect 50 0 29 0;
#X connect 51 0 30 0;
#X connect 52 0 51 0;
#X connect 53 0 54 0;
#X connect 54 0 57 0;
#X connect 55 0 56 0;
#X connect 57 0 55 0;
#X connect 58 0 59 0;
#X connect 59 0 60 0;
#X connect 60 0 61 0;
#X connect 61 0 64 0;
#X connect 62 0 63 0;
#X connect 64 0 62 0;
#X connect 65 0 66 0;
#X connect 67 0 43 1;
