#N canvas 93 223 1013 808 12;
#X obj 19 12 notein;
#X obj 19 182 noteout;
#X obj 19 76 pack;
#X obj 19 106 list append 0;
#X obj 647 61 until;
#X msg 647 34 127;
#X obj 647 93 f;
#X obj 676 93 + 1;
#X msg 647 117 \$1 0 0;
#X msg 693 62 0;
#X obj 44 44 / 127;
#X obj 647 144 noteout;
#X listbox 29 138 20 0 0 0 - - - 0;
#X obj 22 604 table spin;
#X obj 158 563 soundfiler;
#X obj 158 352 bng 19 250 50 0 empty empty empty 0 -10 0 12 #fcfcfc #000000 #000000;
#X obj 563 621 dac~;
#N canvas 108 151 914 953 bossa 0;
#X obj 48 281 phasor~;
#X obj 48 315 *~;
#X obj 48 251 expr 44100/$f1;
#X obj 110 222 bng 19 250 50 0 empty empty empty 0 -10 0 12 #fcfcfc #000000 #000000;
#X floatatom 110 305 5 0 0 0 - - - 0;
#X msg 150 223 0;
#X obj 17 16 notein;
#X obj 18 374 *~;
#X obj 110 197 select 1;
#X obj 17 144 f;
#X obj 49 144 + 1;
#X obj 17 168 % 2;
#X obj 17 87 select 1;
#X obj 313 245 noteout;
#X obj 313 192 + 30;
#X obj 313 169 * 90;
#X obj 313 142 f;
#X obj 313 107 delay 1;
#X obj 313 83 select 0;
#X obj 17 190 lop~ 20;
#X obj 17 63 expr if($f1==83&&$f2==127 \, 1 \, 0);
#X msg 313 218 83 \$1 0;
#X obj 17 423 outlet~;
#X obj 152 421 outlet~;
#X obj 153 375 *~;
#X obj 48 347 tabread4~ bossaL;
#X obj 171 347 tabread4~ bossaR;
#X obj 110 281 array size bossaL;
#X connect 0 0 1 0;
#X connect 1 0 25 0;
#X connect 1 0 26 0;
#X connect 2 0 0 0;
#X connect 3 0 27 0;
#X connect 5 0 0 1;
#X connect 6 0 20 0;
#X connect 6 1 18 0;
#X connect 6 1 20 1;
#X connect 7 0 22 0;
#X connect 8 0 3 0;
#X connect 8 0 5 0;
#X connect 9 0 10 0;
#X connect 9 0 11 0;
#X connect 10 0 9 1;
#X connect 11 0 8 0;
#X connect 11 0 16 1;
#X connect 11 0 19 0;
#X connect 12 0 9 0;
#X connect 14 0 21 0;
#X connect 15 0 14 0;
#X connect 16 0 15 0;
#X connect 17 0 16 0;
#X connect 18 0 17 0;
#X connect 19 0 7 0;
#X connect 19 0 24 0;
#X connect 20 0 12 0;
#X connect 21 0 13 0;
#X connect 24 0 23 0;
#X connect 25 0 7 1;
#X connect 26 0 24 1;
#X connect 27 0 1 1;
#X connect 27 0 2 0;
#X connect 27 0 4 0;
#X restore 526 437 pd bossa;
#N canvas 25 26 914 1007 somebody 0;
#X obj 48 281 phasor~;
#X obj 48 315 *~;
#X obj 48 251 expr 44100/$f1;
#X obj 110 222 bng 19 250 50 0 empty empty empty 0 -10 0 12 #fcfcfc #000000 #000000;
#X floatatom 110 305 5 0 0 0 - - - 0;
#X msg 150 223 0;
#X obj 17 16 notein;
#X obj 18 374 *~;
#X obj 110 197 select 1;
#X obj 17 144 f;
#X obj 49 144 + 1;
#X obj 17 168 % 2;
#X obj 17 87 select 1;
#X obj 342 297 noteout;
#X obj 342 244 + 30;
#X obj 342 221 * 90;
#X obj 342 194 f;
#X obj 342 159 delay 1;
#X obj 342 135 select 0;
#X obj 17 190 lop~ 20;
#X obj 20 63 expr if($f1==85&&$f2==127 \, 1 \, 0);
#X msg 342 270 85 \$1 0;
#X obj 110 281 array size somebodyL;
#X obj 199 347 tabread4~ somebodyR;
#X obj 48 347 tabread4~ somebodyL;
#X obj 18 398 outlet~;
#X obj 181 374 *~;
#X obj 181 398 outlet~;
#X connect 0 0 1 0;
#X connect 1 0 23 0;
#X connect 1 0 24 0;
#X connect 2 0 0 0;
#X connect 3 0 22 0;
#X connect 5 0 0 1;
#X connect 6 0 20 0;
#X connect 6 1 18 0;
#X connect 6 1 20 1;
#X connect 7 0 25 0;
#X connect 8 0 3 0;
#X connect 8 0 5 0;
#X connect 9 0 10 0;
#X connect 9 0 11 0;
#X connect 10 0 9 1;
#X connect 11 0 8 0;
#X connect 11 0 16 1;
#X connect 11 0 19 0;
#X connect 12 0 9 0;
#X connect 14 0 21 0;
#X connect 15 0 14 0;
#X connect 16 0 15 0;
#X connect 17 0 16 0;
#X connect 18 0 17 0;
#X connect 19 0 7 0;
#X connect 19 0 26 0;
#X connect 20 0 12 0;
#X connect 21 0 13 0;
#X connect 22 0 1 1;
#X connect 22 0 2 0;
#X connect 22 0 4 0;
#X connect 23 0 26 1;
#X connect 24 0 7 1;
#X connect 26 0 27 0;
#X restore 591 437 pd somebody;
#N canvas 84 164 914 1007 spin 0;
#X obj 17 16 notein;
#X obj 17 98 select 1;
#X obj 208 230 noteout;
#X obj 208 174 delay 1;
#X obj 208 150 select 0;
#X obj 17 150 array size spin;
#X obj 16 301 tabread4~ spin;
#X obj 16 271 line~;
#X msg 17 247 0 \, \$1 \$2;
#X obj 17 220 pack f f;
#X obj 70 173 expr $f1/44.1;
#X obj 17 196 f;
#X obj 80 197 bng 19 250 50 0 empty empty empty 0 -10 0 12 #fcfcfc #000000 #000000;
#X obj 17 63 expr if($f1==78&&$f2==127 \, 1 \, 0);
#X msg 208 203 78 10 0;
#X obj 16 329 outlet~;
#X connect 0 0 13 0;
#X connect 0 1 4 0;
#X connect 0 1 13 1;
#X connect 1 0 5 0;
#X connect 3 0 14 0;
#X connect 4 0 3 0;
#X connect 5 0 10 0;
#X connect 5 0 11 1;
#X connect 6 0 15 0;
#X connect 7 0 6 0;
#X connect 8 0 7 0;
#X connect 9 0 8 0;
#X connect 10 0 9 1;
#X connect 10 0 12 0;
#X connect 11 0 9 0;
#X connect 12 0 11 0;
#X connect 13 0 1 0;
#X connect 14 0 2 0;
#X restore 806 437 pd spin;
#N canvas -17 198 914 1007 idm 0;
#X obj 48 281 phasor~;
#X obj 48 315 *~;
#X obj 48 251 expr 44100/$f1;
#X obj 110 222 bng 19 250 50 0 empty empty empty 0 -10 0 12 #fcfcfc #000000 #000000;
#X floatatom 110 305 5 0 0 0 - - - 0;
#X msg 150 223 0;
#X obj 17 16 notein;
#X obj 18 374 *~;
#X obj 110 197 select 1;
#X obj 17 144 f;
#X obj 49 144 + 1;
#X obj 17 168 % 2;
#X obj 17 87 select 1;
#X obj 253 310 noteout;
#X obj 253 257 + 30;
#X obj 253 234 * 90;
#X obj 253 207 f;
#X obj 253 172 delay 1;
#X obj 253 148 select 0;
#X obj 17 190 lop~ 20;
#X obj 17 63 expr if($f1==87&&$f2==127 \, 1 \, 0);
#X msg 253 283 87 \$1 0;
#X obj 18 398 outlet~;
#X obj 141 373 *~;
#X obj 141 397 outlet~;
#X obj 48 347 tabread4~ idmL;
#X obj 159 347 tabread4~ idmR;
#X obj 110 281 array size idmL;
#X connect 0 0 1 0;
#X connect 1 0 25 0;
#X connect 1 0 26 0;
#X connect 2 0 0 0;
#X connect 3 0 27 0;
#X connect 5 0 0 1;
#X connect 6 0 20 0;
#X connect 6 1 18 0;
#X connect 6 1 20 1;
#X connect 7 0 22 0;
#X connect 8 0 3 0;
#X connect 8 0 5 0;
#X connect 9 0 10 0;
#X connect 9 0 11 0;
#X connect 10 0 9 1;
#X connect 11 0 8 0;
#X connect 11 0 16 1;
#X connect 11 0 19 0;
#X connect 12 0 9 0;
#X connect 14 0 21 0;
#X connect 15 0 14 0;
#X connect 16 0 15 0;
#X connect 17 0 16 0;
#X connect 18 0 17 0;
#X connect 19 0 7 0;
#X connect 19 0 23 0;
#X connect 20 0 12 0;
#X connect 21 0 13 0;
#X connect 23 0 24 0;
#X connect 25 0 7 1;
#X connect 26 0 23 1;
#X connect 27 0 1 1;
#X connect 27 0 2 0;
#X connect 27 0 4 0;
#X restore 677 437 pd idm;
#N canvas 0 154 914 1007 rave 0;
#X obj 48 281 phasor~;
#X obj 48 315 *~;
#X obj 48 251 expr 44100/$f1;
#X obj 110 222 bng 19 250 50 0 empty empty empty 0 -10 0 12 #fcfcfc #000000 #000000;
#X floatatom 110 305 5 0 0 0 - - - 0;
#X obj 17 16 notein;
#X obj 18 374 *~;
#X obj 110 197 select 1;
#X obj 17 144 f;
#X obj 49 144 + 1;
#X obj 17 168 % 2;
#X obj 17 87 select 1;
#X obj 285 297 noteout;
#X obj 285 244 + 30;
#X obj 285 221 * 90;
#X obj 285 194 f;
#X obj 285 159 delay 1;
#X obj 285 135 select 0;
#X obj 17 190 lop~ 20;
#X obj 17 63 expr if($f1==68&&$f2==127 \, 1 \, 0);
#X msg 285 270 68 \$1 0;
#X msg 150 223 0;
#X obj 170 345 tabread4~ raveR;
#X obj 48 347 tabread4~ raveL;
#X obj 110 281 array size raveL;
#X obj 153 373 *~;
#X obj 18 398 outlet~;
#X obj 153 397 outlet~;
#X connect 0 0 1 0;
#X connect 1 0 23 0;
#X connect 1 0 22 0;
#X connect 2 0 0 0;
#X connect 3 0 24 0;
#X connect 5 0 19 0;
#X connect 5 1 17 0;
#X connect 5 1 19 1;
#X connect 6 0 26 0;
#X connect 7 0 3 0;
#X connect 7 0 21 0;
#X connect 8 0 9 0;
#X connect 8 0 10 0;
#X connect 9 0 8 1;
#X connect 10 0 7 0;
#X connect 10 0 15 1;
#X connect 10 0 18 0;
#X connect 11 0 8 0;
#X connect 13 0 20 0;
#X connect 14 0 13 0;
#X connect 15 0 14 0;
#X connect 16 0 15 0;
#X connect 17 0 16 0;
#X connect 18 0 6 0;
#X connect 18 0 25 0;
#X connect 19 0 11 0;
#X connect 20 0 12 0;
#X connect 21 0 0 1;
#X connect 22 0 25 1;
#X connect 23 0 6 1;
#X connect 24 0 1 1;
#X connect 24 0 2 0;
#X connect 24 0 4 0;
#X connect 25 0 27 0;
#X restore 862 437 pd rave;
#N canvas 69 417 914 1007 circle 0;
#X obj 48 281 phasor~;
#X obj 48 315 *~;
#X obj 48 251 expr 44100/$f1;
#X obj 110 222 bng 19 250 50 0 empty empty empty 0 -10 0 12 #fcfcfc #000000 #000000;
#X floatatom 110 305 5 0 0 0 - - - 0;
#X msg 150 223 0;
#X obj 17 16 notein;
#X obj 18 374 *~;
#X obj 110 197 select 1;
#X obj 17 144 f;
#X obj 49 144 + 1;
#X obj 17 168 % 2;
#X obj 17 87 select 1;
#X obj 373 286 noteout;
#X obj 373 233 + 30;
#X obj 373 210 * 90;
#X obj 373 183 f;
#X obj 373 148 delay 1;
#X obj 373 124 select 0;
#X obj 17 190 lop~ 20;
#X obj 17 63 expr if($f1==88&&$f2==127 \, 1 \, 0);
#X msg 373 259 88 \$1 0;
#X obj 18 398 outlet~;
#X obj 48 347 tabread4~ circleL;
#X obj 111 281 array size circleL;
#X obj 179 347 tabread4~ circleR;
#X obj 160 375 *~;
#X obj 160 399 outlet~;
#X connect 0 0 1 0;
#X connect 1 0 23 0;
#X connect 1 0 25 0;
#X connect 2 0 0 0;
#X connect 3 0 24 0;
#X connect 5 0 0 1;
#X connect 6 0 20 0;
#X connect 6 1 18 0;
#X connect 6 1 20 1;
#X connect 7 0 22 0;
#X connect 8 0 3 0;
#X connect 8 0 5 0;
#X connect 9 0 10 0;
#X connect 9 0 11 0;
#X connect 10 0 9 1;
#X connect 11 0 8 0;
#X connect 11 0 16 1;
#X connect 11 0 19 0;
#X connect 12 0 9 0;
#X connect 14 0 21 0;
#X connect 15 0 14 0;
#X connect 16 0 15 0;
#X connect 17 0 16 0;
#X connect 18 0 17 0;
#X connect 19 0 7 0;
#X connect 19 0 26 0;
#X connect 20 0 12 0;
#X connect 21 0 13 0;
#X connect 23 0 7 1;
#X connect 24 0 1 1;
#X connect 24 0 2 0;
#X connect 24 0 4 0;
#X connect 25 0 26 1;
#X connect 26 0 27 0;
#X restore 734 437 pd circle;
#X msg 375 307 \; spin normalize;
#X obj 915 617 bng 19 250 50 0 empty empty empty 0 -10 0 12 #fcfcfc #000000 #000000;
#X obj 915 641 s lb;
#X floatatom 620 377 5 0 0 0 - - - 0;
#X floatatom 610 302 5 0 0 0 - - - 0;
#X floatatom 700 377 5 0 0 0 - - - 0;
#X floatatom 855 376 5 0 0 0 - - - 0;
#X floatatom 536 243 5 0 0 0 - - - 0;
#X obj 536 219 slider 11;
#X obj 609 219 slider 12;
#X floatatom 609 243 5 0 0 0 - - - 0;
#X floatatom 546 377 5 0 0 0 - - - 0;
#X floatatom 755 244 5 0 0 0 - - - 0;
#X obj 546 353 slider 13;
#X obj 755 220 slider 14;
#X obj 620 353 slider 15;
#X obj 610 278 slider 16;
#X obj 700 353 slider 17;
#X obj 855 352 slider 18;
#X msg 240 136 11 8 0;
#X obj 22 419 table bossaL;
#X obj 22 465 table somebodyL;
#X obj 22 509 table idmL;
#X obj 22 557 table circleL;
#X obj 22 628 table raveL;
#X obj 22 651 table raveR;
#X obj 22 580 table circleR;
#X obj 22 533 table idmR;
#X obj 22 487 table somebodyR;
#X obj 22 442 table bossaR;
#X msg 158 386 read -resize BOSSA.wav bossaL bossaR;
#X msg 169 414 read -resize SOMEBODY.wav somebodyL somebodyR;
#X msg 179 442 read -resize IDM.wav idmL idmR;
#X msg 192 470 read -resize CIRCLE.wav circleL circleR;
#X msg 218 533 read -resize RAVE.wav raveL raveR;
#X obj 526 461 *~;
#X obj 591 461 *~;
#X obj 677 461 *~;
#X obj 734 461 *~;
#X obj 806 461 *~;
#X obj 862 461 *~;
#X obj 561 460 *~;
#X obj 648 461 *~;
#X obj 705 462 *~;
#X obj 776 460 *~;
#X obj 890 461 *~;
#X msg 207 496 read -resize SPIN.wav spin \; spin normalize;
#X obj 546 400 lop~ 2;
#X obj 620 400 lop~ 2;
#X obj 700 400 lop~ 2;
#X obj 855 399 lop~ 2;
#X connect 0 0 2 0;
#X connect 0 1 10 0;
#X connect 2 0 3 0;
#X connect 3 0 1 0;
#X connect 3 0 12 0;
#X connect 4 0 6 0;
#X connect 5 0 4 0;
#X connect 5 0 9 0;
#X connect 6 0 7 0;
#X connect 6 0 8 0;
#X connect 7 0 6 1;
#X connect 8 0 11 0;
#X connect 9 0 6 1;
#X connect 10 0 2 1;
#X connect 15 0 53 0;
#X connect 15 0 56 0;
#X connect 15 0 57 0;
#X connect 15 0 69 0;
#X connect 15 0 55 0;
#X connect 15 0 54 0;
#X connect 17 0 58 0;
#X connect 17 1 64 1;
#X connect 18 0 59 0;
#X connect 18 1 65 1;
#X connect 19 0 62 0;
#X connect 20 0 60 0;
#X connect 20 1 66 1;
#X connect 21 0 63 0;
#X connect 21 1 68 1;
#X connect 22 0 61 0;
#X connect 22 1 67 1;
#X connect 24 0 25 0;
#X connect 26 0 71 0;
#X connect 28 0 72 0;
#X connect 29 0 73 0;
#X connect 31 0 30 0;
#X connect 32 0 33 0;
#X connect 34 0 70 0;
#X connect 36 0 34 0;
#X connect 37 0 35 0;
#X connect 38 0 26 0;
#X connect 39 0 27 0;
#X connect 40 0 28 0;
#X connect 41 0 29 0;
#X connect 42 0 1 0;
#X connect 53 0 14 0;
#X connect 54 0 14 0;
#X connect 55 0 14 0;
#X connect 56 0 14 0;
#X connect 57 0 14 0;
#X connect 58 0 16 0;
#X connect 59 0 16 0;
#X connect 60 0 16 0;
#X connect 61 0 16 0;
#X connect 62 0 16 0;
#X connect 62 0 16 1;
#X connect 63 0 16 0;
#X connect 64 0 16 1;
#X connect 65 0 16 1;
#X connect 66 0 16 1;
#X connect 67 0 16 1;
#X connect 68 0 16 1;
#X connect 69 0 14 0;
#X connect 70 0 64 0;
#X connect 70 0 58 1;
#X connect 71 0 65 0;
#X connect 71 0 59 1;
#X connect 72 0 60 1;
#X connect 72 0 66 0;
#X connect 73 0 68 0;
#X connect 73 0 63 1;
#X connect 73 0 62 1;
#X connect 73 0 67 0;
#X connect 73 0 61 1;
