#N canvas 197 55 1217 836 12;
#X obj 76 118 unpack f f f f f;
#X obj 54 380 noise~;
#X obj 182 364 expr~ random(0 \, 64);
#X obj 182 389 /~ 64;
#X obj 57 447 vcf~, f 14;
#X obj 727 511 line;
#X obj 396 174 t b f;
#X obj 311 240 clip 0 1;
#X text 105 155 60 600 \; 5 30;
#X obj 23 636 *~, f 5;
#X obj 22 145 line~;
#X text 416 146 grittiness controlled by speed;
#X obj 22 170 *~;
#X msg 22 120 \$1 500;
#X obj 22 13 inlet;
#X obj 56 602 *~;
#X obj 75 535 lop~ 1;
#X obj 57 559 *~;
#X obj 75 501 + 0.4;
#X obj 517 478 lop~ 1;
#X floatatom 805 281 5 0 0 0 - - - 0;
#X floatatom 601 281 5 0 0 0 - - - 0;
#X obj 805 305 t b f;
#X obj 517 352 expr pow(($f1 + $f2)/2 \, 0.5);
#X obj 727 352 expr pow(($f1 + abs($f2-1))/2 \, 0.5);
#X obj 114 265 - 1;
#X obj 727 379 - 1;
#X obj 518 376 - 1;
#X text 609 386 invert range;
#X text 148 279 invert range;
#X floatatom 458 438 5 0 0 0 - - - 0;
#X floatatom 224 549 5 0 0 0 - - - 0;
#X floatatom 399 290 5 0 0 0 - - - 0;
#X floatatom 864 490 5 0 0 0 - - - 0;
#X obj 114 290 abs;
#X obj 519 400 abs;
#X obj 727 403 abs;
#X floatatom 54 337 5 0 0 0 - - - 0;
#X obj 75 476 * 0.6;
#X obj 170 669 env~;
#X floatatom 170 694 5 0 0 0 - - - 0;
#X obj 23 723 throw~ ruidito;
#N canvas 1185 455 541 300 zone_stepin 0;
#X obj 62 23 inlet;
#X obj 62 254 outlet;
#X obj 119 36 r stepin;
#X obj 62 220 spigot;
#X obj 101 191 tgl 20 0 empty empty empty 0 -10 0 12 #fcfcfc #000000 #000000 0 1;
#X obj 34 76 unpack f f;
#X obj 62 48 t l l;
#X obj 122 248 outlet;
#X obj 119 61 t b f;
#X obj 101 138 expr if($f1>0&&$f1<$f2 \, 1 \, 0);
#X connect 0 0 6 0;
#X connect 2 0 8 0;
#X connect 3 0 1 0;
#X connect 4 0 3 1;
#X connect 4 0 7 0;
#X connect 5 1 9 0;
#X connect 6 0 3 0;
#X connect 6 1 5 0;
#X connect 8 0 9 0;
#X connect 8 1 9 1;
#X connect 9 0 4 0;
#X restore 86 57 pd zone_stepin;
#X floatatom 758 81 5 0 0 0 - - - 0;
#X obj 686 32 unpack f f;
#X obj 686 57 != -1;
#X floatatom 217 99 5 0 0 0 - - - 0;
#X obj 517 450 + 80;
#X obj 517 425 * 800;
#X obj 727 456 + 20;
#X obj 727 431 * 200;
#X obj 311 214 expr pow(sqrt(($f1*$f1)+($f2*$f2))*4 \, 0.5);
#X obj 347 313 env~;
#X obj 311 268 lop~ 5;
#X floatatom 347 338 5 0 0 0 - - - 0;
#X obj 56 418 expr~ $v1 * (((1-$v3)*0.5)+($v2*$v3));
#X obj 727 486 \$1 100 1;
#X obj 133 562 +~ 1;
#X obj 133 537 *~ 0.5;
#X connect 0 0 21 0;
#X connect 0 1 20 0;
#X connect 0 1 25 0;
#X connect 0 2 51 0;
#X connect 0 3 6 0;
#X connect 1 0 55 0;
#X connect 2 0 3 0;
#X connect 3 0 55 1;
#X connect 4 0 17 0;
#X connect 5 0 4 2;
#X connect 6 0 51 0;
#X connect 6 1 51 1;
#X connect 7 0 32 0;
#X connect 7 0 53 0;
#X connect 9 0 39 0;
#X connect 9 0 41 0;
#X connect 10 0 12 0;
#X connect 10 0 12 1;
#X connect 12 0 9 0;
#X connect 13 0 10 0;
#X connect 14 0 42 0;
#X connect 15 0 9 1;
#X connect 16 0 17 1;
#X connect 17 0 15 0;
#X connect 18 0 16 0;
#X connect 18 0 31 0;
#X connect 19 0 4 1;
#X connect 20 0 22 0;
#X connect 21 0 23 0;
#X connect 21 0 24 0;
#X connect 22 0 23 0;
#X connect 22 0 24 0;
#X connect 22 1 23 1;
#X connect 22 1 24 1;
#X connect 23 0 27 0;
#X connect 24 0 26 0;
#X connect 25 0 34 0;
#X connect 26 0 36 0;
#X connect 27 0 35 0;
#X connect 34 0 38 0;
#X connect 35 0 48 0;
#X connect 36 0 50 0;
#X connect 38 0 18 0;
#X connect 38 0 37 0;
#X connect 39 0 40 0;
#X connect 42 0 0 0;
#X connect 42 1 13 0;
#X connect 42 1 46 0;
#X connect 44 0 45 0;
#X connect 45 0 43 0;
#X connect 47 0 19 0;
#X connect 47 0 30 0;
#X connect 48 0 47 0;
#X connect 49 0 33 0;
#X connect 49 0 56 0;
#X connect 50 0 49 0;
#X connect 51 0 7 0;
#X connect 52 0 54 0;
#X connect 53 0 52 0;
#X connect 53 0 55 2;
#X connect 53 0 58 0;
#X connect 55 0 4 0;
#X connect 56 0 5 0;
#X connect 57 0 15 1;
#X connect 58 0 57 0;
