#N canvas 160 68 1217 857 12;
#X obj 76 118 unpack f f f f f;
#X obj 54 380 noise~;
#X obj 182 364 expr~ random(0 \, 64);
#X obj 182 389 /~ 64;
#X obj 727 486 \$1 15 1;
#X obj 727 511 line;
#X obj 55 414 expr~ $v1 * (((1-$v3)*0.5)+($v2*$v3));
#X obj 311 214 expr pow(sqrt(($f1*$f1)+($f2*$f2)) \, 0.5);
#X obj 396 174 t b f;
#X obj 311 240 clip 0 1;
#X obj 23 636 *~, f 5;
#X obj 21 201 line~;
#X text 416 146 grittiness controlled by speed;
#X obj 21 226 *~;
#X obj 75 30 inlet;
#X obj 23 661 throw~ scene1;
#X obj 311 268 lop~ 1;
#X obj 56 602 *~;
#X obj 75 535 lop~ 1;
#X obj 57 559 *~;
#X obj 133 537 *~ 0.3;
#X obj 133 562 +~ 0.7;
#X obj 75 501 + 0.4;
#X obj 517 478 lop~ 1;
#X floatatom 805 281 5 0 0 0 - - - 0;
#X floatatom 601 281 5 0 0 0 - - - 0;
#X obj 805 305 t b f;
#X obj 517 352 expr pow(($f1 + $f2)/2 \, 0.5);
#X obj 517 425 * 550;
#X obj 517 450 + 60;
#X obj 727 352 expr pow(($f1 + abs($f2-1))/2 \, 0.5);
#X obj 727 431 * 25;
#X obj 114 265 - 1;
#X obj 727 379 - 1;
#X obj 518 376 - 1;
#X text 609 386 invert range;
#X text 148 279 invert range;
#X floatatom 444 553 5 0 0 0 - - - 0;
#X floatatom 224 549 5 0 0 0 - - - 0;
#X floatatom 399 290 5 0 0 0 - - - 0;
#X floatatom 864 490 5 0 0 0 - - - 0;
#X obj 727 456 + 5;
#X obj 114 290 abs;
#X obj 519 400 abs;
#X obj 727 403 abs;
#X floatatom 54 337 5 0 0 0 - - - 0;
#X obj 75 476 * 0.6;
#X floatatom 183 90 5 0 0 0 - - - 0;
#X obj 56 447 vcf~ 500 60, f 14;
#X obj 114 315 clip 0 1;
#X obj 253 721 env~;
#X floatatom 253 746 5 0 0 0 - - - 0;
#N canvas 1067 321 541 300 zone_stepin 0;
#X obj 62 23 inlet;
#X obj 62 264 outlet;
#X obj 101 182 == 1;
#X obj 119 81 r stepin;
#X obj 62 236 spigot;
#X obj 101 207 tgl 20 0 empty empty empty 0 -10 0 12 #fcfcfc #000000 #000000 0 1;
#X obj 34 76 unpack f f;
#X obj 62 48 t l l;
#X obj 122 264 outlet;
#X obj 101 102 - 1;
#X obj 101 127 abs;
#X obj 101 154 >;
#X connect 0 0 7 0;
#X connect 2 0 5 0;
#X connect 3 0 11 1;
#X connect 4 0 1 0;
#X connect 5 0 4 1;
#X connect 5 0 8 0;
#X connect 6 1 9 0;
#X connect 7 0 4 0;
#X connect 7 1 6 0;
#X connect 9 0 10 0;
#X connect 10 0 11 0;
#X connect 11 0 2 0;
#X restore 74 62 pd zone_stepin;
#X listbox 275 115 20 0 0 0 - - - 0;
#X obj 148 686 outlet~;
#X msg 21 176 \$1 1000;
#X connect 0 0 25 0;
#X connect 0 1 24 0;
#X connect 0 1 32 0;
#X connect 0 2 7 0;
#X connect 0 3 8 0;
#X connect 1 0 6 0;
#X connect 2 0 3 0;
#X connect 3 0 6 1;
#X connect 4 0 5 0;
#X connect 5 0 48 2;
#X connect 6 0 48 0;
#X connect 7 0 9 0;
#X connect 8 0 7 0;
#X connect 8 1 7 1;
#X connect 9 0 16 0;
#X connect 9 0 39 0;
#X connect 10 0 15 0;
#X connect 10 0 50 0;
#X connect 10 0 54 0;
#X connect 11 0 13 0;
#X connect 11 0 13 1;
#X connect 13 0 10 0;
#X connect 14 0 52 0;
#X connect 16 0 6 2;
#X connect 16 0 20 0;
#X connect 17 0 10 1;
#X connect 18 0 19 1;
#X connect 19 0 17 0;
#X connect 20 0 21 0;
#X connect 21 0 17 1;
#X connect 22 0 18 0;
#X connect 22 0 38 0;
#X connect 23 0 48 1;
#X connect 24 0 26 0;
#X connect 25 0 27 0;
#X connect 25 0 30 0;
#X connect 26 0 27 0;
#X connect 26 0 30 0;
#X connect 26 1 27 1;
#X connect 26 1 30 1;
#X connect 27 0 34 0;
#X connect 28 0 29 0;
#X connect 29 0 23 0;
#X connect 29 0 37 0;
#X connect 30 0 33 0;
#X connect 31 0 41 0;
#X connect 32 0 42 0;
#X connect 33 0 44 0;
#X connect 34 0 43 0;
#X connect 41 0 4 0;
#X connect 41 0 40 0;
#X connect 42 0 49 0;
#X connect 43 0 28 0;
#X connect 44 0 31 0;
#X connect 46 0 22 0;
#X connect 46 0 45 0;
#X connect 48 0 19 0;
#X connect 49 0 46 0;
#X connect 50 0 51 0;
#X connect 52 0 0 0;
#X connect 52 0 53 0;
#X connect 52 1 55 0;
#X connect 52 1 47 0;
#X connect 55 0 11 0;
