#N canvas 830 169 960 982 12;
#X obj 117 414 osc~;
#X obj 117 338 mtof;
#X obj 149 431 line~;
#X obj 149 460 *~;
#X obj 116 492 *~;
#X obj 679 128 bng 20 250 50 0 empty empty empty 0 -10 0 12 #fcfcfc #000000 #000000;
#X msg 195 369 0.25;
#X obj 451 163 expr if($f1==-1 \, 0 \, 1);
#X obj 192 227 f;
#X msg 151 401 \$1 \, 0 120;
#X floatatom 104 120 5 0 0 0 - - - 0;
#X obj 236 113 expr pow((1-$f1) \, 2);
#X obj 451 57 unpack f f f f f;
#X obj 117 539 samphold~;
#X obj 329 506 phasor~ 44100;
#X msg 86 295 66;
#X msg 21 295 64;
#X msg 151 295 69;
#X msg 184 295 72;
#X obj 22 230 f \$1;
#X obj 22 205 loadbang;
#X obj 118 604 *~;
#X obj 118 667 throw~ scene2;
#X obj 451 215 lop~ 20;
#X obj 328 428 clip 0 1;
#X obj 328 478 lop~ 1;
#X obj 328 455 * 44100;
#X obj 536 339 t b f;
#X obj 451 31 inlet point;
#X floatatom 18 424 5 0 0 0 - - - 0;
#X floatatom 509 542 5 0 0 0 - - - 0;
#X obj 328 402 expr 1 - pow(sqrt(($f1*$f1)+($f2*$f2)) \, 0.5);
#X msg 119 295 68;
#X obj 21 256 select 1 2 3 4 5 6 7;
#X obj 117 374 * 1;
#X obj 268 219 random 3;
#X obj 268 245 > 1;
#X obj 268 270 + 1;
#X obj 268 295 t b f;
#X msg 217 295 74;
#X msg 53 295 76;
#X obj 236 84 centroid_vector;
#X obj 721 277 delay;
#X obj 753 223 random 800;
#X obj 753 249 + 100;
#X obj 648 244 bng 20 250 50 0 empty empty empty 0 -10 0 12 #fcfcfc #000000 #000000;
#X obj 721 323 spigot;
#X obj 783 296 tgl 20 0 empty empty empty 0 -10 0 12 #fcfcfc #000000 #000000 0 1;
#X obj 783 354 select 1;
#X obj 783 323 change;
#X obj 795 450 outlet trigger;
#X connect 0 0 4 0;
#X connect 1 0 34 0;
#X connect 2 0 3 0;
#X connect 2 0 3 1;
#X connect 3 0 4 1;
#X connect 4 0 13 0;
#X connect 5 0 6 0;
#X connect 5 0 8 0;
#X connect 5 0 35 0;
#X connect 6 0 0 1;
#X connect 7 0 23 0;
#X connect 8 0 9 0;
#X connect 9 0 2 0;
#X connect 11 0 8 1;
#X connect 12 0 7 0;
#X connect 12 2 31 0;
#X connect 12 3 27 0;
#X connect 13 0 21 0;
#X connect 14 0 13 1;
#X connect 15 0 1 0;
#X connect 16 0 1 0;
#X connect 17 0 1 0;
#X connect 18 0 1 0;
#X connect 19 0 29 0;
#X connect 19 0 33 0;
#X connect 20 0 19 0;
#X connect 21 0 22 0;
#X connect 23 0 21 1;
#X connect 24 0 26 0;
#X connect 25 0 14 0;
#X connect 26 0 25 0;
#X connect 26 0 30 0;
#X connect 27 0 31 0;
#X connect 27 1 31 1;
#X connect 28 0 12 0;
#X connect 28 0 41 0;
#X connect 31 0 24 0;
#X connect 32 0 1 0;
#X connect 33 0 16 0;
#X connect 33 1 40 0;
#X connect 33 2 15 0;
#X connect 33 3 32 0;
#X connect 33 4 17 0;
#X connect 33 5 18 0;
#X connect 33 6 39 0;
#X connect 34 0 0 0;
#X connect 35 0 36 0;
#X connect 36 0 37 0;
#X connect 37 0 38 0;
#X connect 38 0 34 0;
#X connect 38 1 34 1;
#X connect 39 0 1 0;
#X connect 40 0 1 0;
#X connect 41 0 10 0;
#X connect 41 0 11 0;
#X connect 42 0 46 0;
#X connect 43 0 44 0;
#X connect 44 0 42 1;
#X connect 45 0 42 0;
#X connect 45 0 43 0;
#X connect 46 0 45 0;
#X connect 47 0 49 0;
#X connect 47 0 46 1;
#X connect 47 0 50 0;
#X connect 48 0 45 0;
#X connect 49 0 48 0;
