#N canvas 785 24 960 979 12;
#X obj 117 414 osc~;
#X obj 117 338 mtof;
#X obj 149 431 line~;
#X obj 149 460 *~;
#X obj 116 492 *~;
#X msg 195 369 0.25;
#X obj 451 163 expr if($f1==-1 \, 0 \, 1);
#X obj 192 227 f;
#X msg 151 401 \$1 \, 0 120;
#X floatatom 104 120 5 0 0 0 - - - 0;
#X obj 236 113 expr pow((1-$f1) \, 2);
#X obj 451 57 unpack f f f f f;
#X obj 117 539 samphold~;
#X obj 329 506 phasor~ 44100;
#X obj 22 230 f \$1;
#X obj 22 205 loadbang;
#X obj 118 604 *~;
#X obj 117 732 throw~ scene2;
#X obj 451 215 lop~ 20;
#X obj 328 478 lop~ 1;
#X obj 328 455 * 44100;
#X obj 536 339 t b f;
#X obj 451 6 inlet point;
#X floatatom 18 424 5 0 0 0 - - - 0;
#X floatatom 509 542 5 0 0 0 - - - 0;
#X obj 328 402 expr 1 - pow(sqrt(($f1*$f1)+($f2*$f2)) \, 0.5);
#X obj 21 256 select 1 2 3 4 5 6 7;
#X obj 117 374 * 1;
#X obj 268 219 random 3;
#X obj 268 245 > 1;
#X obj 268 270 + 1;
#X obj 268 295 t b f;
#X obj 236 84 centroid_vector;
#X obj 702 249 delay;
#X obj 734 195 random 800;
#X obj 648 244 bng 20 250 50 0 empty empty empty 0 -10 0 12 #fcfcfc #000000 #000000;
#X obj 702 295 spigot;
#X obj 764 268 tgl 20 0 empty empty empty 0 -10 0 12 #fcfcfc #000000 #000000 0 1;
#X obj 764 326 select 1;
#X obj 764 295 change;
#X obj 513 138 abs;
#X obj 758 412 outlet trigger;
#X obj 513 113 + 3000;
#X floatatom 638 158 5 0 0 0 - - - 0;
#X obj 513 88 * 2500;
#X obj 328 428 clip 0.1 1;
#X obj 734 221 + 500;
#N canvas 1067 321 541 300 zone_stepin 0;
#X obj 62 23 inlet;
#X obj 62 264 outlet;
#X obj 101 182 == 1;
#X obj 119 81 r stepin;
#X obj 62 236 spigot;
#X obj 101 207 tgl 20 0 empty empty empty 0 -10 0 12 #fcfcfc #000000 #000000 0 1;
#X obj 34 76 unpack f f;
#X obj 62 48 t l l;
#X obj 122 264 outlet;
#X obj 101 154 <;
#X obj 119 121 t b f;
#X connect 0 0 7 0;
#X connect 2 0 5 0;
#X connect 3 0 10 0;
#X connect 4 0 1 0;
#X connect 5 0 4 1;
#X connect 5 0 8 0;
#X connect 6 1 9 0;
#X connect 7 0 4 0;
#X connect 7 1 6 0;
#X connect 9 0 2 0;
#X connect 10 0 9 0;
#X connect 10 1 9 1;
#X restore 451 30 pd zone_stepin;
#X obj 118 629 *~;
#X obj 589 62 lop~ 1;
#X floatatom 667 50 5 0 0 0 - - - 0;
#X floatatom 392 92 5 0 0 0 - - - 0;
#X msg 21 295 61;
#X msg 53 295 63;
#X msg 86 295 65;
#X msg 119 295 66;
#X msg 151 295 68;
#X msg 184 295 70;
#X msg 217 295 73;
#X connect 0 0 4 0;
#X connect 1 0 27 0;
#X connect 2 0 3 0;
#X connect 2 0 3 1;
#X connect 3 0 4 1;
#X connect 4 0 12 0;
#X connect 5 0 0 1;
#X connect 6 0 18 0;
#X connect 6 0 37 0;
#X connect 7 0 8 0;
#X connect 8 0 2 0;
#X connect 10 0 7 1;
#X connect 11 0 6 0;
#X connect 11 0 51 0;
#X connect 11 3 21 0;
#X connect 12 0 16 0;
#X connect 13 0 12 1;
#X connect 14 0 23 0;
#X connect 14 0 26 0;
#X connect 15 0 14 0;
#X connect 16 0 48 0;
#X connect 18 0 16 1;
#X connect 19 0 13 0;
#X connect 20 0 19 0;
#X connect 20 0 24 0;
#X connect 21 0 25 0;
#X connect 21 1 25 1;
#X connect 22 0 47 0;
#X connect 25 0 44 0;
#X connect 25 0 45 0;
#X connect 26 0 52 0;
#X connect 26 1 53 0;
#X connect 26 2 54 0;
#X connect 26 3 55 0;
#X connect 26 4 56 0;
#X connect 26 5 57 0;
#X connect 26 6 58 0;
#X connect 27 0 0 0;
#X connect 28 0 29 0;
#X connect 29 0 30 0;
#X connect 30 0 31 0;
#X connect 31 0 27 0;
#X connect 31 1 27 1;
#X connect 32 0 9 0;
#X connect 32 0 10 0;
#X connect 33 0 36 0;
#X connect 34 0 46 0;
#X connect 35 0 33 0;
#X connect 35 0 34 0;
#X connect 35 0 5 0;
#X connect 35 0 28 0;
#X connect 35 0 7 0;
#X connect 36 0 35 0;
#X connect 37 0 39 0;
#X connect 37 0 36 1;
#X connect 37 0 41 0;
#X connect 38 0 35 0;
#X connect 39 0 38 0;
#X connect 40 0 34 1;
#X connect 40 0 43 0;
#X connect 42 0 40 0;
#X connect 44 0 42 0;
#X connect 45 0 20 0;
#X connect 46 0 33 1;
#X connect 47 0 11 0;
#X connect 47 0 32 0;
#X connect 47 1 49 0;
#X connect 47 1 50 0;
#X connect 48 0 17 0;
#X connect 49 0 48 1;
#X connect 52 0 1 0;
#X connect 53 0 1 0;
#X connect 54 0 1 0;
#X connect 55 0 1 0;
#X connect 56 0 1 0;
#X connect 57 0 1 0;
#X connect 58 0 1 0;
