#N canvas -10 24 960 982 12;
#N canvas 0 0 1045 784 zone_rectangle 0;
#N canvas 1042 258 541 300 zone_verticalband 0;
#X obj 62 54 unpack;
#X obj 62 24 inlet;
#X obj 164 29 inlet;
#X obj 212 60 inlet;
#X obj 92 173 t b f;
#X obj 73 211 +;
#X obj 73 236 == 2;
#X obj 73 270 outlet;
#X obj 63 124 >;
#X obj 94 124 <;
#X floatatom 20 104 5 0 0 0 - - - 0;
#X connect 0 0 8 0;
#X connect 0 0 9 0;
#X connect 0 0 10 0;
#X connect 1 0 0 0;
#X connect 2 0 8 1;
#X connect 3 0 9 1;
#X connect 4 0 5 0;
#X connect 4 1 5 1;
#X connect 5 0 6 0;
#X connect 6 0 7 0;
#X connect 8 0 5 0;
#X connect 9 0 4 0;
#X restore 86 103 pd zone_verticalband;
#N canvas 1042 258 541 300 zone_horizontalband 0;
#X obj 62 54 unpack;
#X obj 62 24 inlet;
#X obj 164 29 inlet;
#X obj 212 60 inlet;
#X obj 92 173 t b f;
#X obj 73 211 +;
#X obj 73 236 == 2;
#X obj 73 270 outlet;
#X obj 63 124 >;
#X obj 94 124 <;
#X floatatom 20 104 5 0 0 0 - - - 0;
#X connect 0 0 10 0;
#X connect 0 1 8 0;
#X connect 0 1 9 0;
#X connect 1 0 0 0;
#X connect 2 0 8 1;
#X connect 3 0 9 1;
#X connect 4 0 5 0;
#X connect 4 1 5 1;
#X connect 5 0 6 0;
#X connect 6 0 7 0;
#X connect 8 0 5 0;
#X connect 9 0 4 0;
#X restore 86 182 pd zone_horizontalband;
#X obj 57 215 +;
#X obj 57 240 == 2;
#X floatatom 57 265 5 0 0 0 - - - 0;
#X obj 47 42 inlet point;
#X obj 148 46 inlet x1;
#X obj 227 49 inlet y1;
#X obj 298 56 inlet x2;
#X obj 377 61 inlet y2;
#X obj 57 289 outlet;
#X connect 0 0 2 0;
#X connect 1 0 2 1;
#X connect 2 0 3 0;
#X connect 3 0 4 0;
#X connect 4 0 10 0;
#X connect 5 0 1 0;
#X connect 5 0 0 0;
#X connect 6 0 0 1;
#X connect 7 0 1 1;
#X connect 8 0 0 2;
#X connect 9 0 1 2;
#X restore 13 96 pd zone_rectangle;
#X floatatom 13 121 5 0 0 0 - - - 0;
#X obj 12 352 *~;
#X obj 719 168 array get sampledata;
#X obj 12 413 throw~ scene3;
#N canvas 0 0 1045 784 zone_rectangle 0;
#N canvas 1042 258 541 300 zone_verticalband 0;
#X obj 62 54 unpack;
#X obj 62 24 inlet;
#X obj 164 29 inlet;
#X obj 212 60 inlet;
#X obj 92 173 t b f;
#X obj 73 211 +;
#X obj 73 236 == 2;
#X obj 73 270 outlet;
#X obj 63 124 >;
#X obj 94 124 <;
#X floatatom 20 104 5 0 0 0 - - - 0;
#X connect 0 0 8 0;
#X connect 0 0 9 0;
#X connect 0 0 10 0;
#X connect 1 0 0 0;
#X connect 2 0 8 1;
#X connect 3 0 9 1;
#X connect 4 0 5 0;
#X connect 4 1 5 1;
#X connect 5 0 6 0;
#X connect 6 0 7 0;
#X connect 8 0 5 0;
#X connect 9 0 4 0;
#X restore 86 103 pd zone_verticalband;
#N canvas 1042 258 541 300 zone_horizontalband 0;
#X obj 62 54 unpack;
#X obj 62 24 inlet;
#X obj 164 29 inlet;
#X obj 212 60 inlet;
#X obj 92 173 t b f;
#X obj 73 211 +;
#X obj 73 236 == 2;
#X obj 73 270 outlet;
#X obj 63 124 >;
#X obj 94 124 <;
#X floatatom 20 104 5 0 0 0 - - - 0;
#X connect 0 0 10 0;
#X connect 0 1 8 0;
#X connect 0 1 9 0;
#X connect 1 0 0 0;
#X connect 2 0 8 1;
#X connect 3 0 9 1;
#X connect 4 0 5 0;
#X connect 4 1 5 1;
#X connect 5 0 6 0;
#X connect 6 0 7 0;
#X connect 8 0 5 0;
#X connect 9 0 4 0;
#X restore 86 182 pd zone_horizontalband;
#X obj 57 215 +;
#X obj 57 240 == 2;
#X floatatom 57 265 5 0 0 0 - - - 0;
#X obj 47 42 inlet point;
#X obj 148 46 inlet x1;
#X obj 227 49 inlet y1;
#X obj 298 56 inlet x2;
#X obj 377 61 inlet y2;
#X obj 57 289 outlet;
#X connect 0 0 2 0;
#X connect 1 0 2 1;
#X connect 2 0 3 0;
#X connect 3 0 4 0;
#X connect 4 0 10 0;
#X connect 5 0 1 0;
#X connect 5 0 0 0;
#X connect 6 0 0 1;
#X connect 7 0 1 1;
#X connect 8 0 0 2;
#X connect 9 0 1 2;
#X restore 242 105 pd zone_rectangle;
#X floatatom 242 130 5 0 0 0 - - - 0;
#X obj 241 359 *~;
#X obj 249 412 throw~ scene3;
#N canvas 0 0 1045 784 zone_rectangle 0;
#N canvas 1042 258 541 300 zone_verticalband 0;
#X obj 62 54 unpack;
#X obj 62 24 inlet;
#X obj 164 29 inlet;
#X obj 212 60 inlet;
#X obj 92 173 t b f;
#X obj 73 211 +;
#X obj 73 236 == 2;
#X obj 73 270 outlet;
#X obj 63 124 >;
#X obj 94 124 <;
#X floatatom 20 104 5 0 0 0 - - - 0;
#X connect 0 0 8 0;
#X connect 0 0 9 0;
#X connect 0 0 10 0;
#X connect 1 0 0 0;
#X connect 2 0 8 1;
#X connect 3 0 9 1;
#X connect 4 0 5 0;
#X connect 4 1 5 1;
#X connect 5 0 6 0;
#X connect 6 0 7 0;
#X connect 8 0 5 0;
#X connect 9 0 4 0;
#X restore 86 103 pd zone_verticalband;
#N canvas 1042 258 541 300 zone_horizontalband 0;
#X obj 62 54 unpack;
#X obj 62 24 inlet;
#X obj 164 29 inlet;
#X obj 212 60 inlet;
#X obj 92 173 t b f;
#X obj 73 211 +;
#X obj 73 236 == 2;
#X obj 73 270 outlet;
#X obj 63 124 >;
#X obj 94 124 <;
#X floatatom 20 104 5 0 0 0 - - - 0;
#X connect 0 0 10 0;
#X connect 0 1 8 0;
#X connect 0 1 9 0;
#X connect 1 0 0 0;
#X connect 2 0 8 1;
#X connect 3 0 9 1;
#X connect 4 0 5 0;
#X connect 4 1 5 1;
#X connect 5 0 6 0;
#X connect 6 0 7 0;
#X connect 8 0 5 0;
#X connect 9 0 4 0;
#X restore 86 182 pd zone_horizontalband;
#X obj 57 215 +;
#X obj 57 240 == 2;
#X floatatom 57 265 5 0 0 0 - - - 0;
#X obj 47 42 inlet point;
#X obj 148 46 inlet x1;
#X obj 227 49 inlet y1;
#X obj 298 56 inlet x2;
#X obj 377 61 inlet y2;
#X obj 57 289 outlet;
#X connect 0 0 2 0;
#X connect 1 0 2 1;
#X connect 2 0 3 0;
#X connect 3 0 4 0;
#X connect 4 0 10 0;
#X connect 5 0 1 0;
#X connect 5 0 0 0;
#X connect 6 0 0 1;
#X connect 7 0 1 1;
#X connect 8 0 0 2;
#X connect 9 0 1 2;
#X restore 466 104 pd zone_rectangle;
#X floatatom 466 129 5 0 0 0 - - - 0;
#X obj 465 360 *~;
#X obj 465 409 throw~ scene3;
#X obj 13 25 r \$0point;
#X obj 242 34 r \$0point;
#X obj 466 33 r \$0point;
#X obj 719 312 s \$0data1;
#X obj 741 288 s \$0data2;
#X obj 764 261 s \$0data3;
#X obj 787 237 s \$0data4;
#X obj 810 312 s \$0data5;
#X obj 832 288 s \$0data6;
#X obj 856 261 s \$0data7;
#X obj 719 129 r sendata;
#X obj 721 51 inlet point;
#X obj 721 76 s \$0point;
#X obj 719 193 unpack f f f f f f f;
#X obj 93 26 r rectangle1;
#X obj 318 35 r rectangle2;
#X obj 545 34 r rectangle3;
#X obj 93 51 unpack f f f f;
#X obj 318 60 unpack f f f f;
#X obj 545 59 unpack f f f f;
#X obj 31 260 phasor~;
#X obj 31 326 tabread4~ sample1;
#X obj 93 260 r \$0data1;
#X obj 31 294 *~;
#X obj 31 193 expr 44100/$f1;
#X obj 150 193 random 100;
#X obj 31 231 expr $f1 * ($f2/1000 + 0.95);
#X obj 150 170 bng 20 250 50 0 empty empty empty 0 -10 0 12 #fcfcfc #000000 #000000;
#X obj 259 266 phasor~;
#X obj 259 300 *~;
#X obj 259 199 expr 44100/$f1;
#X obj 378 199 random 100;
#X obj 259 237 expr $f1 * ($f2/1000 + 0.95);
#X obj 378 176 bng 20 250 50 0 empty empty empty 0 -10 0 12 #fcfcfc #000000 #000000;
#X obj 259 332 tabread4~ sample2;
#X obj 321 266 r \$0data2;
#X obj 484 268 phasor~;
#X obj 484 302 *~;
#X obj 484 201 expr 44100/$f1;
#X obj 603 201 random 100;
#X obj 484 239 expr $f1 * ($f2/1000 + 0.95);
#X obj 603 178 bng 20 250 50 0 empty empty empty 0 -10 0 12 #fcfcfc #000000 #000000;
#X obj 484 334 tabread4~ sample3;
#X obj 546 268 r \$0data3;
#N canvas 0 0 1045 784 zone_rectangle 0;
#N canvas 1042 258 541 300 zone_verticalband 0;
#X obj 62 54 unpack;
#X obj 62 24 inlet;
#X obj 164 29 inlet;
#X obj 212 60 inlet;
#X obj 92 173 t b f;
#X obj 73 211 +;
#X obj 73 236 == 2;
#X obj 73 270 outlet;
#X obj 63 124 >;
#X obj 94 124 <;
#X floatatom 20 104 5 0 0 0 - - - 0;
#X connect 0 0 8 0;
#X connect 0 0 9 0;
#X connect 0 0 10 0;
#X connect 1 0 0 0;
#X connect 2 0 8 1;
#X connect 3 0 9 1;
#X connect 4 0 5 0;
#X connect 4 1 5 1;
#X connect 5 0 6 0;
#X connect 6 0 7 0;
#X connect 8 0 5 0;
#X connect 9 0 4 0;
#X restore 86 103 pd zone_verticalband;
#N canvas 1042 258 541 300 zone_horizontalband 0;
#X obj 62 54 unpack;
#X obj 62 24 inlet;
#X obj 164 29 inlet;
#X obj 212 60 inlet;
#X obj 92 173 t b f;
#X obj 73 211 +;
#X obj 73 236 == 2;
#X obj 73 270 outlet;
#X obj 63 124 >;
#X obj 94 124 <;
#X floatatom 20 104 5 0 0 0 - - - 0;
#X connect 0 0 10 0;
#X connect 0 1 8 0;
#X connect 0 1 9 0;
#X connect 1 0 0 0;
#X connect 2 0 8 1;
#X connect 3 0 9 1;
#X connect 4 0 5 0;
#X connect 4 1 5 1;
#X connect 5 0 6 0;
#X connect 6 0 7 0;
#X connect 8 0 5 0;
#X connect 9 0 4 0;
#X restore 86 182 pd zone_horizontalband;
#X obj 57 215 +;
#X obj 57 240 == 2;
#X floatatom 57 265 5 0 0 0 - - - 0;
#X obj 47 42 inlet point;
#X obj 148 46 inlet x1;
#X obj 227 49 inlet y1;
#X obj 298 56 inlet x2;
#X obj 377 61 inlet y2;
#X obj 57 289 outlet;
#X connect 0 0 2 0;
#X connect 1 0 2 1;
#X connect 2 0 3 0;
#X connect 3 0 4 0;
#X connect 4 0 10 0;
#X connect 5 0 1 0;
#X connect 5 0 0 0;
#X connect 6 0 0 1;
#X connect 7 0 1 1;
#X connect 8 0 0 2;
#X connect 9 0 1 2;
#X restore 15 524 pd zone_rectangle;
#X floatatom 15 549 5 0 0 0 - - - 0;
#X obj 14 788 *~;
#X obj 14 856 throw~ scene3;
#N canvas 0 0 1045 784 zone_rectangle 0;
#N canvas 1042 258 541 300 zone_verticalband 0;
#X obj 62 54 unpack;
#X obj 62 24 inlet;
#X obj 164 29 inlet;
#X obj 212 60 inlet;
#X obj 92 173 t b f;
#X obj 73 211 +;
#X obj 73 236 == 2;
#X obj 73 270 outlet;
#X obj 63 124 >;
#X obj 94 124 <;
#X floatatom 20 104 5 0 0 0 - - - 0;
#X connect 0 0 8 0;
#X connect 0 0 9 0;
#X connect 0 0 10 0;
#X connect 1 0 0 0;
#X connect 2 0 8 1;
#X connect 3 0 9 1;
#X connect 4 0 5 0;
#X connect 4 1 5 1;
#X connect 5 0 6 0;
#X connect 6 0 7 0;
#X connect 8 0 5 0;
#X connect 9 0 4 0;
#X restore 86 103 pd zone_verticalband;
#N canvas 1042 258 541 300 zone_horizontalband 0;
#X obj 62 54 unpack;
#X obj 62 24 inlet;
#X obj 164 29 inlet;
#X obj 212 60 inlet;
#X obj 92 173 t b f;
#X obj 73 211 +;
#X obj 73 236 == 2;
#X obj 73 270 outlet;
#X obj 63 124 >;
#X obj 94 124 <;
#X floatatom 20 104 5 0 0 0 - - - 0;
#X connect 0 0 10 0;
#X connect 0 1 8 0;
#X connect 0 1 9 0;
#X connect 1 0 0 0;
#X connect 2 0 8 1;
#X connect 3 0 9 1;
#X connect 4 0 5 0;
#X connect 4 1 5 1;
#X connect 5 0 6 0;
#X connect 6 0 7 0;
#X connect 8 0 5 0;
#X connect 9 0 4 0;
#X restore 86 182 pd zone_horizontalband;
#X obj 57 215 +;
#X obj 57 240 == 2;
#X floatatom 57 265 5 0 0 0 - - - 0;
#X obj 47 42 inlet point;
#X obj 148 46 inlet x1;
#X obj 227 49 inlet y1;
#X obj 298 56 inlet x2;
#X obj 377 61 inlet y2;
#X obj 57 289 outlet;
#X connect 0 0 2 0;
#X connect 1 0 2 1;
#X connect 2 0 3 0;
#X connect 3 0 4 0;
#X connect 4 0 10 0;
#X connect 5 0 1 0;
#X connect 5 0 0 0;
#X connect 6 0 0 1;
#X connect 7 0 1 1;
#X connect 8 0 0 2;
#X connect 9 0 1 2;
#X restore 244 533 pd zone_rectangle;
#X floatatom 244 558 5 0 0 0 - - - 0;
#X obj 243 797 *~;
#X obj 243 865 throw~ scene3;
#N canvas 0 0 1045 784 zone_rectangle 0;
#N canvas 1042 258 541 300 zone_verticalband 0;
#X obj 62 54 unpack;
#X obj 62 24 inlet;
#X obj 164 29 inlet;
#X obj 212 60 inlet;
#X obj 92 173 t b f;
#X obj 73 211 +;
#X obj 73 236 == 2;
#X obj 73 270 outlet;
#X obj 63 124 >;
#X obj 94 124 <;
#X floatatom 20 104 5 0 0 0 - - - 0;
#X connect 0 0 8 0;
#X connect 0 0 9 0;
#X connect 0 0 10 0;
#X connect 1 0 0 0;
#X connect 2 0 8 1;
#X connect 3 0 9 1;
#X connect 4 0 5 0;
#X connect 4 1 5 1;
#X connect 5 0 6 0;
#X connect 6 0 7 0;
#X connect 8 0 5 0;
#X connect 9 0 4 0;
#X restore 86 103 pd zone_verticalband;
#N canvas 1042 258 541 300 zone_horizontalband 0;
#X obj 62 54 unpack;
#X obj 62 24 inlet;
#X obj 164 29 inlet;
#X obj 212 60 inlet;
#X obj 92 173 t b f;
#X obj 73 211 +;
#X obj 73 236 == 2;
#X obj 73 270 outlet;
#X obj 63 124 >;
#X obj 94 124 <;
#X floatatom 20 104 5 0 0 0 - - - 0;
#X connect 0 0 10 0;
#X connect 0 1 8 0;
#X connect 0 1 9 0;
#X connect 1 0 0 0;
#X connect 2 0 8 1;
#X connect 3 0 9 1;
#X connect 4 0 5 0;
#X connect 4 1 5 1;
#X connect 5 0 6 0;
#X connect 6 0 7 0;
#X connect 8 0 5 0;
#X connect 9 0 4 0;
#X restore 86 182 pd zone_horizontalband;
#X obj 57 215 +;
#X obj 57 240 == 2;
#X floatatom 57 265 5 0 0 0 - - - 0;
#X obj 47 42 inlet point;
#X obj 148 46 inlet x1;
#X obj 227 49 inlet y1;
#X obj 298 56 inlet x2;
#X obj 377 61 inlet y2;
#X obj 57 289 outlet;
#X connect 0 0 2 0;
#X connect 1 0 2 1;
#X connect 2 0 3 0;
#X connect 3 0 4 0;
#X connect 4 0 10 0;
#X connect 5 0 1 0;
#X connect 5 0 0 0;
#X connect 6 0 0 1;
#X connect 7 0 1 1;
#X connect 8 0 0 2;
#X connect 9 0 1 2;
#X restore 468 532 pd zone_rectangle;
#X floatatom 468 557 5 0 0 0 - - - 0;
#X obj 467 796 *~;
#X obj 467 864 throw~ scene3;
#X obj 15 453 r \$0point;
#X obj 244 462 r \$0point;
#X obj 468 461 r \$0point;
#X obj 95 479 unpack f f f f;
#X obj 320 488 unpack f f f f;
#X obj 547 487 unpack f f f f;
#X obj 33 688 phasor~;
#X obj 33 722 *~;
#X obj 33 621 expr 44100/$f1;
#X obj 152 621 random 100;
#X obj 33 659 expr $f1 * ($f2/1000 + 0.95);
#X obj 152 598 bng 20 250 50 0 empty empty empty 0 -10 0 12 #fcfcfc #000000 #000000;
#X obj 261 694 phasor~;
#X obj 261 728 *~;
#X obj 261 627 expr 44100/$f1;
#X obj 380 627 random 100;
#X obj 261 665 expr $f1 * ($f2/1000 + 0.95);
#X obj 380 604 bng 20 250 50 0 empty empty empty 0 -10 0 12 #fcfcfc #000000 #000000;
#X obj 486 696 phasor~;
#X obj 486 730 *~;
#X obj 486 629 expr 44100/$f1;
#X obj 605 629 random 100;
#X obj 486 667 expr $f1 * ($f2/1000 + 0.95);
#X obj 605 606 bng 20 250 50 0 empty empty empty 0 -10 0 12 #fcfcfc #000000 #000000;
#N canvas 0 0 1045 784 zone_rectangle 0;
#N canvas 1042 258 541 300 zone_verticalband 0;
#X obj 62 54 unpack;
#X obj 62 24 inlet;
#X obj 164 29 inlet;
#X obj 212 60 inlet;
#X obj 92 173 t b f;
#X obj 73 211 +;
#X obj 73 236 == 2;
#X obj 73 270 outlet;
#X obj 63 124 >;
#X obj 94 124 <;
#X floatatom 20 104 5 0 0 0 - - - 0;
#X connect 0 0 8 0;
#X connect 0 0 9 0;
#X connect 0 0 10 0;
#X connect 1 0 0 0;
#X connect 2 0 8 1;
#X connect 3 0 9 1;
#X connect 4 0 5 0;
#X connect 4 1 5 1;
#X connect 5 0 6 0;
#X connect 6 0 7 0;
#X connect 8 0 5 0;
#X connect 9 0 4 0;
#X restore 86 103 pd zone_verticalband;
#N canvas 1042 258 541 300 zone_horizontalband 0;
#X obj 62 54 unpack;
#X obj 62 24 inlet;
#X obj 164 29 inlet;
#X obj 212 60 inlet;
#X obj 92 173 t b f;
#X obj 73 211 +;
#X obj 73 236 == 2;
#X obj 73 270 outlet;
#X obj 63 124 >;
#X obj 94 124 <;
#X floatatom 20 104 5 0 0 0 - - - 0;
#X connect 0 0 10 0;
#X connect 0 1 8 0;
#X connect 0 1 9 0;
#X connect 1 0 0 0;
#X connect 2 0 8 1;
#X connect 3 0 9 1;
#X connect 4 0 5 0;
#X connect 4 1 5 1;
#X connect 5 0 6 0;
#X connect 6 0 7 0;
#X connect 8 0 5 0;
#X connect 9 0 4 0;
#X restore 86 182 pd zone_horizontalband;
#X obj 57 215 +;
#X obj 57 240 == 2;
#X floatatom 57 265 5 0 0 0 - - - 0;
#X obj 47 42 inlet point;
#X obj 148 46 inlet x1;
#X obj 227 49 inlet y1;
#X obj 298 56 inlet x2;
#X obj 377 61 inlet y2;
#X obj 57 289 outlet;
#X connect 0 0 2 0;
#X connect 1 0 2 1;
#X connect 2 0 3 0;
#X connect 3 0 4 0;
#X connect 4 0 10 0;
#X connect 5 0 1 0;
#X connect 5 0 0 0;
#X connect 6 0 0 1;
#X connect 7 0 1 1;
#X connect 8 0 0 2;
#X connect 9 0 1 2;
#X restore 713 526 pd zone_rectangle;
#X floatatom 713 551 5 0 0 0 - - - 0;
#X obj 712 790 *~;
#X obj 712 858 throw~ scene3;
#X obj 713 455 r \$0point;
#X obj 792 481 unpack f f f f;
#X obj 731 690 phasor~;
#X obj 731 724 *~;
#X obj 731 623 expr 44100/$f1;
#X obj 850 623 random 100;
#X obj 731 661 expr $f1 * ($f2/1000 + 0.95);
#X obj 850 600 bng 20 250 50 0 empty empty empty 0 -10 0 12 #fcfcfc #000000 #000000;
#X obj 95 454 r rectangle4;
#X obj 320 463 r rectangle5;
#X obj 547 462 r rectangle6;
#X obj 792 456 r rectangle7;
#X obj 793 690 r \$0data7;
#X obj 548 696 r \$0data6;
#X obj 323 694 r \$0data5;
#X obj 95 688 r \$0data4;
#X obj 33 754 tabread4~ sample4;
#X obj 261 760 tabread4~ sample5;
#X obj 486 762 tabread4~ sample6;
#X obj 731 756 tabread4~ sample7;
#X obj 905 341 r \$0point;
#X obj 905 366 centroid_vector;
#X obj 905 391 expr pow($f1 \, 0.5);
#X obj 905 416 lop~ 1;
#X obj 509 386 expr~ tanh(($v1*0.7) * (1+($v2*0.5)));
#X obj 12 382 expr~ tanh(($v1*0.7) * (1+($v2*0.5)));
#X obj 230 384 expr~ tanh(($v1*0.7) * (1+($v2*0.5)));
#X obj 752 825 expr~ tanh(($v1*0.7) * (1+($v2*0.5)));
#X obj 506 825 expr~ tanh(($v1*0.7) * (1+($v2*0.5)));
#X obj 258 826 expr~ tanh(($v1*0.7) * (1+($v2*0.5)));
#X obj 14 822 expr~ tanh(($v1*0.7) * (1+($v2*0.5)));
#X obj 13 145 lop~ 0.5;
#X obj 242 154 lop~ 0.5;
#X obj 466 153 lop~ 0.5;
#X obj 468 581 lop~ 0.5;
#X obj 244 582 lop~ 0.5;
#X obj 15 573 lop~ 0.5;
#X obj 713 575 lop~ 0.5;
#X connect 0 0 1 0;
#X connect 1 0 128 0;
#X connect 2 0 122 0;
#X connect 3 0 26 0;
#X connect 5 0 6 0;
#X connect 6 0 129 0;
#X connect 7 0 123 0;
#X connect 9 0 10 0;
#X connect 10 0 130 0;
#X connect 11 0 121 0;
#X connect 13 0 0 0;
#X connect 14 0 5 0;
#X connect 15 0 9 0;
#X connect 23 0 3 0;
#X connect 24 0 25 0;
#X connect 26 0 16 0;
#X connect 26 1 17 0;
#X connect 26 2 18 0;
#X connect 26 3 19 0;
#X connect 26 4 20 0;
#X connect 26 5 21 0;
#X connect 26 6 22 0;
#X connect 27 0 30 0;
#X connect 28 0 31 0;
#X connect 29 0 32 0;
#X connect 30 0 0 1;
#X connect 30 1 0 2;
#X connect 30 2 0 3;
#X connect 30 3 0 4;
#X connect 31 0 5 1;
#X connect 31 1 5 2;
#X connect 31 2 5 3;
#X connect 31 3 5 4;
#X connect 32 0 9 1;
#X connect 32 1 9 2;
#X connect 32 2 9 3;
#X connect 32 3 9 4;
#X connect 33 0 36 0;
#X connect 34 0 2 1;
#X connect 35 0 36 1;
#X connect 35 0 37 0;
#X connect 35 0 40 0;
#X connect 36 0 34 0;
#X connect 37 0 39 0;
#X connect 38 0 39 1;
#X connect 39 0 33 0;
#X connect 40 0 38 0;
#X connect 41 0 42 0;
#X connect 42 0 47 0;
#X connect 43 0 45 0;
#X connect 44 0 45 1;
#X connect 45 0 41 0;
#X connect 46 0 44 0;
#X connect 47 0 7 1;
#X connect 48 0 42 1;
#X connect 48 0 43 0;
#X connect 48 0 46 0;
#X connect 49 0 50 0;
#X connect 50 0 55 0;
#X connect 51 0 53 0;
#X connect 52 0 53 1;
#X connect 53 0 49 0;
#X connect 54 0 52 0;
#X connect 55 0 11 1;
#X connect 56 0 50 1;
#X connect 56 0 51 0;
#X connect 56 0 54 0;
#X connect 57 0 58 0;
#X connect 58 0 133 0;
#X connect 59 0 127 0;
#X connect 61 0 62 0;
#X connect 62 0 132 0;
#X connect 63 0 126 0;
#X connect 65 0 66 0;
#X connect 66 0 131 0;
#X connect 67 0 125 0;
#X connect 69 0 57 0;
#X connect 70 0 61 0;
#X connect 71 0 65 0;
#X connect 72 0 57 1;
#X connect 72 1 57 2;
#X connect 72 2 57 3;
#X connect 72 3 57 4;
#X connect 73 0 61 1;
#X connect 73 1 61 2;
#X connect 73 2 61 3;
#X connect 73 3 61 4;
#X connect 74 0 65 1;
#X connect 74 1 65 2;
#X connect 74 2 65 3;
#X connect 74 3 65 4;
#X connect 75 0 76 0;
#X connect 76 0 113 0;
#X connect 77 0 79 0;
#X connect 78 0 79 1;
#X connect 79 0 75 0;
#X connect 80 0 78 0;
#X connect 81 0 82 0;
#X connect 82 0 114 0;
#X connect 83 0 85 0;
#X connect 84 0 85 1;
#X connect 85 0 81 0;
#X connect 86 0 84 0;
#X connect 87 0 88 0;
#X connect 88 0 115 0;
#X connect 89 0 91 0;
#X connect 90 0 91 1;
#X connect 91 0 87 0;
#X connect 92 0 90 0;
#X connect 93 0 94 0;
#X connect 94 0 134 0;
#X connect 95 0 124 0;
#X connect 97 0 93 0;
#X connect 98 0 93 1;
#X connect 98 1 93 2;
#X connect 98 2 93 3;
#X connect 98 3 93 4;
#X connect 99 0 100 0;
#X connect 100 0 116 0;
#X connect 101 0 103 0;
#X connect 102 0 103 1;
#X connect 103 0 99 0;
#X connect 104 0 102 0;
#X connect 105 0 72 0;
#X connect 106 0 73 0;
#X connect 107 0 74 0;
#X connect 108 0 98 0;
#X connect 109 0 100 1;
#X connect 109 0 101 0;
#X connect 109 0 104 0;
#X connect 110 0 88 1;
#X connect 110 0 89 0;
#X connect 110 0 92 0;
#X connect 111 0 82 1;
#X connect 111 0 83 0;
#X connect 111 0 86 0;
#X connect 112 0 76 1;
#X connect 112 0 77 0;
#X connect 112 0 80 0;
#X connect 113 0 59 1;
#X connect 114 0 63 1;
#X connect 115 0 67 1;
#X connect 116 0 95 1;
#X connect 117 0 118 0;
#X connect 118 0 119 0;
#X connect 119 0 120 0;
#X connect 120 0 121 1;
#X connect 120 0 122 1;
#X connect 120 0 123 1;
#X connect 120 0 124 1;
#X connect 120 0 125 1;
#X connect 120 0 126 1;
#X connect 120 0 127 1;
#X connect 121 0 12 0;
#X connect 122 0 4 0;
#X connect 123 0 8 0;
#X connect 124 0 96 0;
#X connect 125 0 68 0;
#X connect 126 0 64 0;
#X connect 127 0 60 0;
#X connect 128 0 2 0;
#X connect 129 0 7 0;
#X connect 130 0 11 0;
#X connect 131 0 67 0;
#X connect 132 0 63 0;
#X connect 133 0 59 0;
#X connect 134 0 95 0;
