#N canvas 515 24 1371 982 12;
#N canvas 4 0 1920 982 shepard 0;
#X obj 104 76 phasor~;
#X obj 148 365 cos~;
#X obj 148 218 +~ 0.25;
#X obj 148 195 *~ -0.5;
#X obj 106 400 *~;
#X obj 105 169 *~ 36;
#X obj 105 195 +~ 48;
#X obj 105 218 mtof~;
#X obj 270 365 cos~;
#X obj 270 218 +~ 0.25;
#X obj 270 195 *~ -0.5;
#X obj 228 400 *~;
#X obj 227 169 *~ 36;
#X obj 227 195 +~ 48;
#X obj 227 218 mtof~;
#X obj 227 123 +~ 0.125;
#X obj 227 147 wrap~;
#X obj 391 363 cos~;
#X obj 391 216 +~ 0.25;
#X obj 391 193 *~ -0.5;
#X obj 349 398 *~;
#X obj 348 167 *~ 36;
#X obj 348 193 +~ 48;
#X obj 348 216 mtof~;
#X obj 348 145 wrap~;
#X obj 348 121 +~ 0.25;
#X obj 509 363 cos~;
#X obj 509 216 +~ 0.25;
#X obj 509 193 *~ -0.5;
#X obj 467 398 *~;
#X obj 466 167 *~ 36;
#X obj 466 193 +~ 48;
#X obj 466 216 mtof~;
#X obj 466 145 wrap~;
#X obj 466 121 +~ 0.375;
#X obj 637 365 cos~;
#X obj 637 218 +~ 0.25;
#X obj 637 195 *~ -0.5;
#X obj 595 400 *~;
#X obj 594 169 *~ 36;
#X obj 594 195 +~ 48;
#X obj 594 218 mtof~;
#X obj 594 147 wrap~;
#X obj 594 123 +~ 0.5;
#X obj 761 365 cos~;
#X obj 761 218 +~ 0.25;
#X obj 761 195 *~ -0.5;
#X obj 719 400 *~;
#X obj 718 169 *~ 36;
#X obj 718 195 +~ 48;
#X obj 718 218 mtof~;
#X obj 718 147 wrap~;
#X obj 718 123 +~ 0.675;
#X obj 885 366 cos~;
#X obj 885 219 +~ 0.25;
#X obj 885 196 *~ -0.5;
#X obj 843 401 *~;
#X obj 842 170 *~ 36;
#X obj 842 196 +~ 48;
#X obj 842 219 mtof~;
#X obj 842 148 wrap~;
#X obj 842 124 +~ 0.75;
#X obj 1006 365 cos~;
#X obj 1006 218 +~ 0.25;
#X obj 1006 195 *~ -0.5;
#X obj 964 400 *~;
#X obj 963 169 *~ 36;
#X obj 963 195 +~ 48;
#X obj 963 218 mtof~;
#X obj 963 147 wrap~;
#X obj 963 123 +~ 0.875;
#X obj 63 365 vcf~ 440 60;
#X obj 185 365 vcf~ 440 60;
#X obj 306 363 vcf~ 440 60;
#X obj 425 363 vcf~ 440 60;
#X obj 553 365 vcf~ 440 60;
#X obj 677 365 vcf~ 440 60;
#X obj 801 366 vcf~ 440 60;
#X obj 922 365 vcf~ 440 60;
#X floatatom 1088 168 5 0 0 0 - - - 0;
#X msg 1095 125 400;
#X obj 105 11 inlet~ freq;
#X obj 105 473 expr~ tanh($v1);
#X obj 1296 176 expr~ $v1 * (((1-$v3)*0.5)+($v2*$v3));
#X obj 1296 141 noise~;
#X obj 1424 125 expr~ random(0 \, 64);
#X obj 1424 150 /~ 64;
#X obj 1620 129 inlet dist;
#X obj 1177 129 r lb;
#X obj 1620 154 lop~ 1;
#X obj 105 497 outlet~;
#X obj 263 47 line;
#X obj 195 15 inlet mul;
#X msg 195 40 \$1 100 1;
#X msg 317 51 \$1 100 1;
#X obj 317 26 inlet add;
#X msg 447 68 \$1 100 1;
#X obj 447 43 inlet q;
#X obj 382 59 line;
#X obj 524 73 line;
#X connect 0 0 3 0;
#X connect 0 0 5 0;
#X connect 0 0 15 0;
#X connect 0 0 25 0;
#X connect 0 0 34 0;
#X connect 0 0 43 0;
#X connect 0 0 52 0;
#X connect 0 0 61 0;
#X connect 0 0 70 0;
#X connect 1 0 4 1;
#X connect 2 0 1 0;
#X connect 3 0 2 0;
#X connect 4 0 82 0;
#X connect 5 0 6 0;
#X connect 6 0 7 0;
#X connect 7 0 71 1;
#X connect 8 0 11 1;
#X connect 9 0 8 0;
#X connect 10 0 9 0;
#X connect 11 0 82 0;
#X connect 12 0 13 0;
#X connect 13 0 14 0;
#X connect 14 0 72 1;
#X connect 15 0 16 0;
#X connect 16 0 12 0;
#X connect 16 0 10 0;
#X connect 17 0 20 1;
#X connect 18 0 17 0;
#X connect 19 0 18 0;
#X connect 20 0 82 0;
#X connect 21 0 22 0;
#X connect 22 0 23 0;
#X connect 23 0 73 1;
#X connect 24 0 21 0;
#X connect 24 0 19 0;
#X connect 25 0 24 0;
#X connect 26 0 29 1;
#X connect 27 0 26 0;
#X connect 28 0 27 0;
#X connect 29 0 82 0;
#X connect 30 0 31 0;
#X connect 31 0 32 0;
#X connect 32 0 74 1;
#X connect 33 0 30 0;
#X connect 33 0 28 0;
#X connect 34 0 33 0;
#X connect 35 0 38 1;
#X connect 36 0 35 0;
#X connect 37 0 36 0;
#X connect 38 0 82 0;
#X connect 39 0 40 0;
#X connect 40 0 41 0;
#X connect 41 0 75 1;
#X connect 42 0 39 0;
#X connect 42 0 37 0;
#X connect 43 0 42 0;
#X connect 44 0 47 1;
#X connect 45 0 44 0;
#X connect 46 0 45 0;
#X connect 47 0 82 0;
#X connect 48 0 49 0;
#X connect 49 0 50 0;
#X connect 50 0 76 1;
#X connect 51 0 48 0;
#X connect 51 0 46 0;
#X connect 52 0 51 0;
#X connect 53 0 56 1;
#X connect 54 0 53 0;
#X connect 55 0 54 0;
#X connect 56 0 82 0;
#X connect 57 0 58 0;
#X connect 58 0 59 0;
#X connect 60 0 57 0;
#X connect 60 0 55 0;
#X connect 61 0 60 0;
#X connect 62 0 65 1;
#X connect 63 0 62 0;
#X connect 64 0 63 0;
#X connect 65 0 82 0;
#X connect 66 0 67 0;
#X connect 67 0 68 0;
#X connect 68 0 78 1;
#X connect 69 0 66 0;
#X connect 69 0 64 0;
#X connect 70 0 69 0;
#X connect 71 0 4 0;
#X connect 72 0 11 0;
#X connect 73 0 20 0;
#X connect 74 0 29 0;
#X connect 75 0 38 0;
#X connect 76 0 47 0;
#X connect 77 0 56 0;
#X connect 78 0 65 0;
#X connect 79 0 78 2;
#X connect 79 0 71 2;
#X connect 79 0 72 2;
#X connect 79 0 73 2;
#X connect 79 0 74 2;
#X connect 79 0 75 2;
#X connect 79 0 76 2;
#X connect 79 0 77 2;
#X connect 80 0 79 0;
#X connect 81 0 0 0;
#X connect 82 0 90 0;
#X connect 83 0 71 0;
#X connect 83 0 72 0;
#X connect 83 0 78 0;
#X connect 83 0 77 0;
#X connect 83 0 76 0;
#X connect 83 0 75 0;
#X connect 83 0 74 0;
#X connect 83 0 73 0;
#X connect 84 0 83 0;
#X connect 85 0 86 0;
#X connect 86 0 83 1;
#X connect 87 0 89 0;
#X connect 88 0 80 0;
#X connect 89 0 83 2;
#X connect 91 0 5 1;
#X connect 91 0 66 1;
#X connect 91 0 57 1;
#X connect 91 0 48 1;
#X connect 91 0 39 1;
#X connect 91 0 30 1;
#X connect 91 0 21 1;
#X connect 91 0 12 1;
#X connect 92 0 93 0;
#X connect 93 0 91 0;
#X connect 94 0 98 0;
#X connect 95 0 94 0;
#X connect 96 0 99 0;
#X connect 97 0 96 0;
#X connect 98 0 6 1;
#X connect 98 0 67 1;
#X connect 98 0 58 1;
#X connect 98 0 49 1;
#X connect 98 0 40 1;
#X connect 98 0 31 1;
#X connect 98 0 22 1;
#X connect 98 0 13 1;
#X connect 99 0 79 0;
#X restore 34 253 pd shepard;
#X obj 251 343 samphold~;
#X obj 250 376 expr~ round($v1*(pow(2 \, $f2)-1))/(pow(2 \, $f2)-1);
#X obj 310 318 phasor~;
#X obj 583 341 int;
#X obj 313 271 hsl 162 19 20 44099 0 0 empty empty empty -2 -10 0 12 #fcfcfc #000000 #000000 0 1;
#X obj 586 316 hsl 162 19 1 24 0 0 empty empty empty -2 -10 0 12 #fcfcfc #000000 #000000 0 1;
#X obj 300 247 hsl 162 19 0 36 0 0 empty empty empty -2 -10 0 12 #fcfcfc #000000 #000000 0 1;
#N canvas 244 -10 1920 982 buffer 0;
#X obj 121 278 *~ 44100;
#X msg 627 213 1 2 3 4 5 6 7 9 10 12 14 15 18 20 21 25 28 30 35 36 42 45 49 50 60 63 70 75 84 90 98 100 105 126 140 147 150;
#X obj 627 256 array set divisors;
#X obj 121 304 /~ 1;
#X obj 628 181 table divisors 37;
#X obj 628 156 table bffr 44100;
#X obj 121 331 tabread4~ bffr;
#X obj 142 177 tabwrite~ bffr;
#X obj 121 138 metro 1000;
#X obj 121 207 f;
#X obj 230 327 cos~;
#X obj 230 303 +~ 0.25;
#X obj 230 279 *~ 0.5;
#X obj 230 354 abs~;
#X obj 121 402 *~;
#X obj 419 205 tabread divisors;
#X floatatom 431 268 5 0 0 0 - - - 0;
#X obj 121 252 phasor~ 1;
#X obj 230 378 pow~ 0.1;
#X obj 119 456 outlet~;
#X obj 423 167 inlet;
#X obj 47 40 inlet~;
#X obj 382 56 r lb;
#X connect 0 0 3 0;
#X connect 1 0 2 0;
#X connect 3 0 6 0;
#X connect 6 0 14 0;
#X connect 8 0 7 0;
#X connect 8 0 9 0;
#X connect 9 0 3 1;
#X connect 9 0 17 0;
#X connect 10 0 13 0;
#X connect 11 0 10 0;
#X connect 12 0 11 0;
#X connect 13 0 18 0;
#X connect 14 0 19 0;
#X connect 15 0 16 0;
#X connect 15 0 9 0;
#X connect 17 0 0 0;
#X connect 17 0 12 0;
#X connect 18 0 14 1;
#X connect 20 0 15 0;
#X connect 21 0 7 0;
#X connect 22 0 1 0;
#X connect 22 0 8 0;
#X restore 237 307 pd buffer;
#X obj 305 441 lop~ 20;
#X obj 34 524 expr~ ($v1*$v4)+($v3*($v4-1)) \; ($v2*$v4)+($v3*($v4-1));
#X obj 424 411 hradio 19 1 0 2 empty empty empty 0 -10 0 12 #fcfcfc #000000 #000000 0;
#X obj 562 69 bng 19 250 50 0 empty empty empty 0 -10 0 12 #fcfcfc #000000 #000000;
#X obj 561 132 random 37;
#X obj 819 161 delay;
#X obj 853 207 + 1;
#X obj 819 230 % 2;
#X obj 900 235 delay;
#X obj 900 211 random 5000;
#X obj 819 130 random 500;
#X obj 715 132 random 44080;
#X obj 715 156 + 20;
#X obj 645 156 + 6;
#X obj 644 132 random 29;
#X obj 34 74 r centroid;
#X obj 34 98 unpack f f;
#X obj 34 146 - 0.05;
#X floatatom 34 170 8 0 0 0 - - - 0;
#X obj 34 122 / 10;
#N canvas -94 210 1920 1109 distance_to_centroid 0;
#X obj 93 80 r p1;
#X obj 213 81 r p2;
#X obj 333 81 r p3;
#X obj 453 82 r p4;
#X obj 573 81 r p5;
#X obj 693 81 r p6;
#X obj 813 81 r p7;
#X obj 93 104 unpack f f;
#X obj 213 104 unpack f f;
#X obj 333 104 unpack f f;
#X obj 453 104 unpack f f;
#X obj 573 104 unpack f f;
#X obj 693 104 unpack f f;
#X obj 813 104 unpack f f;
#X obj 93 368 expr ($f1+$f2+$f3+$f4+$f5+$f6+$f7)/$f8;
#X obj 160 151 min 0;
#X obj 280 151 min 0;
#X obj 400 151 min 0;
#X obj 520 151 min 0;
#X obj 640 151 min 0;
#X obj 760 151 min 0;
#X obj 880 151 min 0;
#X obj 424 239 t b f;
#X obj 465 239 t b f;
#X obj 506 239 t b f;
#X obj 547 239 t b f;
#X obj 588 239 t b f;
#X obj 629 239 t b f;
#X obj 119 319 t b f;
#X obj 160 319 t b f;
#X obj 201 319 t b f;
#X obj 242 319 t b f;
#X obj 283 319 t b f;
#X obj 324 319 t b f;
#X obj 365 319 t b f;
#X obj 93 392 outlet;
#X obj 365 287 expr 7+$f1+$f2+$f3+$f4+$f5+$f6+$f7;
#X obj 93 205 centroid_vector;
#X obj 210 206 centroid_vector;
#X obj 330 207 centroid_vector;
#X obj 447 208 centroid_vector;
#X obj 567 206 centroid_vector;
#X obj 684 207 centroid_vector;
#X obj 816 210 centroid_vector;
#X connect 0 0 7 0;
#X connect 0 0 37 0;
#X connect 1 0 8 0;
#X connect 1 0 38 0;
#X connect 2 0 9 0;
#X connect 2 0 39 0;
#X connect 3 0 10 0;
#X connect 3 0 40 0;
#X connect 4 0 11 0;
#X connect 4 0 41 0;
#X connect 5 0 12 0;
#X connect 5 0 42 0;
#X connect 6 0 13 0;
#X connect 6 0 43 0;
#X connect 7 1 15 0;
#X connect 8 1 16 0;
#X connect 9 1 17 0;
#X connect 10 1 18 0;
#X connect 11 1 19 0;
#X connect 12 1 20 0;
#X connect 13 1 21 0;
#X connect 14 0 35 0;
#X connect 15 0 36 0;
#X connect 16 0 22 0;
#X connect 17 0 23 0;
#X connect 18 0 24 0;
#X connect 19 0 25 0;
#X connect 20 0 26 0;
#X connect 21 0 27 0;
#X connect 22 0 36 0;
#X connect 22 1 36 1;
#X connect 23 0 36 0;
#X connect 23 1 36 2;
#X connect 24 0 36 0;
#X connect 24 1 36 3;
#X connect 25 0 36 0;
#X connect 25 1 36 4;
#X connect 26 0 36 0;
#X connect 26 1 36 5;
#X connect 27 0 36 0;
#X connect 27 1 36 6;
#X connect 28 0 14 0;
#X connect 28 1 14 1;
#X connect 29 0 14 0;
#X connect 29 1 14 2;
#X connect 30 0 14 0;
#X connect 30 1 14 3;
#X connect 31 0 14 0;
#X connect 31 1 14 4;
#X connect 32 0 14 0;
#X connect 32 1 14 5;
#X connect 33 0 14 0;
#X connect 33 1 14 6;
#X connect 34 0 14 0;
#X connect 34 1 14 7;
#X connect 36 0 34 0;
#X connect 37 0 14 0;
#X connect 38 0 28 0;
#X connect 39 0 29 0;
#X connect 40 0 30 0;
#X connect 41 0 31 0;
#X connect 42 0 32 0;
#X connect 43 0 33 0;
#X restore 173 27 pd distance_to_centroid;
#X floatatom 173 51 5 0 0 0 - - - 0;
#X obj 173 75 - 1;
#X obj 173 99 abs;
#X obj 173 147 + 100;
#X floatatom 173 171 9 0 0 0 - - - 0;
#X obj 173 123 * 300;
#X msg 914 131 0;
#N canvas 0 32 1920 982 scaled_speed_vector 0;
#X obj 44 36 r p1;
#X obj 151 35 r p2;
#X obj 257 34 r p3;
#X obj 364 33 r p4;
#X obj 44 93 r p5;
#X obj 151 92 r p6;
#X obj 257 91 r p7;
#X obj 44 64 unpack f f f f;
#X obj 44 118 unpack f f f f;
#X obj 151 63 unpack f f f f;
#X obj 151 117 unpack f f f f;
#X obj 257 116 unpack f f f f;
#X obj 257 62 unpack f f f f;
#X obj 364 61 unpack f f f f;
#X obj 135 190 * 0.4;
#X obj 214 190 * 0.4;
#X obj 135 215 *;
#X obj 214 215 *;
#X obj 135 240 +;
#X obj 214 240 t b f;
#X obj 135 265 sqrt;
#X obj 135 290 clip 0 1;
#X obj 135 315 outlet;
#X connect 0 0 7 0;
#X connect 1 0 9 0;
#X connect 2 0 12 0;
#X connect 3 0 13 0;
#X connect 4 0 8 0;
#X connect 5 0 10 0;
#X connect 6 0 11 0;
#X connect 7 2 14 0;
#X connect 7 3 15 0;
#X connect 8 2 14 0;
#X connect 8 3 15 0;
#X connect 9 2 14 0;
#X connect 9 3 15 0;
#X connect 10 2 14 0;
#X connect 10 3 15 0;
#X connect 11 2 14 0;
#X connect 11 3 15 0;
#X connect 12 2 14 0;
#X connect 12 3 15 0;
#X connect 13 2 14 0;
#X connect 13 3 15 0;
#X connect 14 0 16 0;
#X connect 14 0 16 1;
#X connect 15 0 17 0;
#X connect 15 0 17 1;
#X connect 16 0 18 0;
#X connect 17 0 19 0;
#X connect 18 0 20 0;
#X connect 19 0 18 0;
#X connect 19 1 18 1;
#X connect 20 0 21 0;
#X connect 21 0 22 0;
#X restore 348 26 pd scaled_speed_vector;
#X floatatom 101 171 9 0 0 0 - - - 0;
#X floatatom 348 51 5 0 0 0 - - - 0;
#X floatatom 247 170 9 0 0 0 - - - 0;
#X obj 348 75 - 1;
#X obj 348 99 abs;
#X obj 348 124 * 5000;
#X obj 348 149 + 1000;
#X floatatom 348 174 5 0 0 0 - - - 0;
#X obj 819 206 f 0;
#X obj 33 739 throw~ scene4;
#X obj 916 92 r lb;
#X obj 33 392 else/giga.rev~ -size 40 -damp 0.9 -bw 0.75 -dry 1 -early 0.8 -late 0.05 -wet 0.25, f 23;
#X obj 247 146 + 30;
#X obj 247 122 * 60;
#X obj 101 121 * -30;
#X obj 101 146 + 50;
#X obj 33 627 expr~ tanh($v1*8);
#X obj 190 588 r centroid;
#X obj 190 613 unpack f f;
#X obj 190 638 +;
#X obj 190 663 != 0;
#X obj 190 688 lop~ 1;
#X obj 33 684 *~;
#X floatatom 448 461 5 0 0 0 - - - 0;
#X connect 0 0 49 0;
#X connect 0 0 8 0;
#X connect 1 0 2 0;
#X connect 2 0 10 2;
#X connect 3 0 1 1;
#X connect 4 0 2 1;
#X connect 5 0 3 0;
#X connect 6 0 4 0;
#X connect 7 0 8 1;
#X connect 8 0 1 0;
#X connect 9 0 10 3;
#X connect 10 0 54 0;
#X connect 11 0 9 0;
#X connect 11 0 61 0;
#X connect 12 0 13 0;
#X connect 12 0 19 0;
#X connect 12 0 20 0;
#X connect 12 0 23 0;
#X connect 12 0 46 0;
#X connect 13 0 7 0;
#X connect 14 0 18 0;
#X connect 14 0 46 0;
#X connect 15 0 46 1;
#X connect 16 0 11 0;
#X connect 17 0 12 0;
#X connect 18 0 17 0;
#X connect 19 0 14 0;
#X connect 20 0 21 0;
#X connect 21 0 5 0;
#X connect 22 0 6 0;
#X connect 23 0 22 0;
#X connect 24 0 25 0;
#X connect 25 0 28 0;
#X connect 25 1 52 0;
#X connect 26 0 27 0;
#X connect 27 0 0 0;
#X connect 28 0 26 0;
#X connect 29 0 30 0;
#X connect 30 0 31 0;
#X connect 30 0 51 0;
#X connect 31 0 32 0;
#X connect 32 0 35 0;
#X connect 33 0 34 0;
#X connect 34 0 0 3;
#X connect 35 0 33 0;
#X connect 36 0 46 1;
#X connect 37 0 39 0;
#X connect 38 0 0 2;
#X connect 39 0 0 4;
#X connect 39 0 41 0;
#X connect 40 0 0 1;
#X connect 41 0 42 0;
#X connect 42 0 43 0;
#X connect 43 0 44 0;
#X connect 44 0 45 0;
#X connect 45 0 18 1;
#X connect 46 0 16 0;
#X connect 46 0 15 0;
#X connect 48 0 36 0;
#X connect 48 0 12 0;
#X connect 49 0 10 0;
#X connect 49 1 10 1;
#X connect 50 0 40 0;
#X connect 51 0 50 0;
#X connect 52 0 53 0;
#X connect 53 0 38 0;
#X connect 54 0 60 0;
#X connect 55 0 56 0;
#X connect 56 0 57 0;
#X connect 56 1 57 1;
#X connect 57 0 58 0;
#X connect 58 0 59 0;
#X connect 59 0 60 1;
#X connect 60 0 47 0;
