#N canvas 130 130 923 458 12;
#X obj 17 17 notein;
#X obj 344 525 noteout;
#X obj 344 220 f;
#X obj 344 185 delay 1;
#X obj 344 161 select 0;
#X obj 386 221 f;
#X obj 425 222 f;
#X obj 471 222 f;
#X obj 511 223 f;
#X msg 463 132 1;
#X msg 503 131 1;
#X msg 575 133 1;
#X msg 644 133 1;
#X msg 422 132 4;
#X obj 18 55 - 11;
#X obj 18 215 outlet;
#X obj 120 21 r lb;
#X obj 344 246 pack;
#X obj 386 245 pack;
#X obj 425 246 pack;
#X obj 471 246 pack;
#X obj 511 247 pack;
#X msg 344 339 \$2 \$1 0;
#X msg 407 340 \$2 \$1 0;
#X msg 468 341 \$2 \$1 0;
#X msg 528 342 \$2 \$1 0;
#X msg 590 343 \$2 \$1 0;
#X obj 422 84 select 0 10 20 30 40;
#X obj 18 144 select 0 10 20 30 40;
#X msg 18 177 0;
#X msg 50 177 0.25;
#X msg 90 176 0.5;
#X msg 125 178 0.75;
#X msg 169 179 1;
#X floatatom 72 98 5 0 0 0 - - - 0;
#X floatatom 157 111 5 0 0 0 - - - 0;
#X floatatom 201 84 5 0 0 0 - - - 0;
#X obj 157 248 + 10;
#X obj 198 246 + 20;
#X obj 240 246 + 30;
#X obj 281 243 + 40;
#X obj 120 47 f \$1;
#X msg 537 133 8;
#X msg 609 135 8;
#X msg 678 135 8;
#X msg 720 135 8;
#X connect 0 0 14 0;
#X connect 0 0 35 0;
#X connect 0 1 4 0;
#X connect 2 0 17 0;
#X connect 3 0 2 0;
#X connect 3 0 5 0;
#X connect 3 0 8 0;
#X connect 3 0 7 0;
#X connect 3 0 6 0;
#X connect 4 0 3 0;
#X connect 5 0 18 0;
#X connect 6 0 19 0;
#X connect 7 0 20 0;
#X connect 8 0 21 0;
#X connect 9 0 7 1;
#X connect 9 0 8 1;
#X connect 9 0 6 1;
#X connect 9 0 5 1;
#X connect 10 0 8 1;
#X connect 10 0 7 1;
#X connect 10 0 6 1;
#X connect 11 0 8 1;
#X connect 11 0 7 1;
#X connect 12 0 8 1;
#X connect 13 0 2 1;
#X connect 14 0 27 0;
#X connect 14 0 28 0;
#X connect 14 0 34 0;
#X connect 16 0 41 0;
#X connect 17 0 22 0;
#X connect 18 0 23 0;
#X connect 19 0 24 0;
#X connect 20 0 25 0;
#X connect 21 0 26 0;
#X connect 22 0 1 0;
#X connect 23 0 1 0;
#X connect 24 0 1 0;
#X connect 25 0 1 0;
#X connect 26 0 1 0;
#X connect 27 0 9 0;
#X connect 27 0 13 0;
#X connect 27 1 10 0;
#X connect 27 1 42 0;
#X connect 27 2 11 0;
#X connect 27 2 43 0;
#X connect 27 3 12 0;
#X connect 27 3 44 0;
#X connect 27 4 45 0;
#X connect 28 0 29 0;
#X connect 28 1 30 0;
#X connect 28 2 31 0;
#X connect 28 3 32 0;
#X connect 28 4 33 0;
#X connect 29 0 15 0;
#X connect 30 0 15 0;
#X connect 31 0 15 0;
#X connect 32 0 15 0;
#X connect 33 0 15 0;
#X connect 37 0 18 1;
#X connect 38 0 19 1;
#X connect 39 0 20 1;
#X connect 40 0 21 1;
#X connect 41 0 14 1;
#X connect 41 0 36 0;
#X connect 41 0 37 0;
#X connect 41 0 40 0;
#X connect 41 0 39 0;
#X connect 41 0 38 0;
#X connect 41 0 17 1;
#X connect 42 0 2 1;
#X connect 42 0 5 1;
#X connect 43 0 6 1;
#X connect 43 0 5 1;
#X connect 43 0 2 1;
#X connect 44 0 7 1;
#X connect 44 0 6 1;
#X connect 44 0 5 1;
#X connect 44 0 2 1;
#X connect 45 0 8 1;
#X connect 45 0 7 1;
#X connect 45 0 6 1;
#X connect 45 0 5 1;
#X connect 45 0 2 1;
