#N canvas 0 32 1920 982 12;
#X obj 21 49 netreceive -u -b;
#X msg 12 17 listen 9001;
#N canvas 0 32 1920 979 centroid 0;
#X obj 46 770 pack;
#X obj 166 483 t b f;
#X obj 251 483 t b f;
#X obj 339 483 t b f;
#X obj 426 483 t b f;
#X obj 510 483 t b f;
#X obj 554 483 t b f;
#X obj 641 483 t b f;
#X obj 684 483 t b f;
#X obj 208 483 t b f;
#X obj 295 483 t b f;
#X obj 383 483 t b f;
#X obj 468 483 t b f;
#X obj 599 483 t b f;
#X obj 727 483 t b f;
#X obj 771 483 t b f;
#X obj 816 483 t b f;
#X obj 906 483 t b f;
#X obj 862 483 t b f;
#X obj 215 791 t b f;
#X obj 58 260 t b f;
#X obj 143 260 t b f;
#X obj 231 260 t b f;
#X obj 318 260 t b f;
#X obj 402 260 t b f;
#X obj 446 260 t b f;
#X obj 533 260 t b f;
#X obj 576 260 t b f;
#X obj 100 260 t b f;
#X obj 187 260 t b f;
#X obj 275 260 t b f;
#X obj 360 260 t b f;
#X obj 491 260 t b f;
#X obj 619 260 t b f;
#X obj 663 260 t b f;
#X obj 708 260 t b f;
#X obj 798 260 t b f;
#X obj 754 260 t b f;
#X obj 842 260 t b f;
#X obj 61 168 unpack;
#X obj 110 168 unpack;
#X obj 159 168 unpack;
#X obj 208 168 unpack;
#X obj 256 168 unpack;
#X obj 305 168 unpack;
#X obj 354 168 unpack;
#X obj 403 168 unpack;
#X obj 452 168 unpack;
#X obj 501 168 unpack;
#X obj 550 168 unpack;
#X obj 599 168 unpack;
#X obj 647 168 unpack;
#X obj 696 168 unpack;
#X obj 745 168 unpack;
#X obj 794 168 unpack;
#X obj 843 169 unpack;
#X obj 892 169 unpack;
#X obj 941 169 unpack;
#X obj 9 166 unpack;
#X obj 950 483 t b f;
#X obj 46 796 outlet;
#X obj 120 458 max 0;
#X obj 164 457 max 0;
#X obj 206 457 max 0;
#X obj 250 456 max 0;
#X obj 293 457 max 0;
#X obj 337 456 max 0;
#X obj 379 456 max 0;
#X obj 423 455 max 0;
#X obj 466 455 max 0;
#X obj 510 454 max 0;
#X obj 552 454 max 0;
#X obj 598 455 max 0;
#X obj 640 456 max 0;
#X obj 684 455 max 0;
#X obj 726 455 max 0;
#X obj 770 454 max 0;
#X obj 818 454 max 0;
#X obj 862 453 max 0;
#X obj 904 453 max 0;
#X obj 948 452 max 0;
#X obj 13 233 max 0;
#X obj 56 232 max 0;
#X obj 99 232 max 0;
#X obj 143 231 max 0;
#X obj 186 232 max 0;
#X obj 230 231 max 0;
#X obj 272 231 max 0;
#X obj 316 230 max 0;
#X obj 359 230 max 0;
#X obj 403 229 max 0;
#X obj 445 229 max 0;
#X obj 489 228 max 0;
#X obj 531 229 max 0;
#X obj 575 228 max 0;
#X obj 617 228 max 0;
#X obj 661 227 max 0;
#X obj 709 227 max 0;
#X obj 753 227 max 0;
#X obj 795 226 max 0;
#X obj 839 225 max 0;
#X obj 1052 405 min 0;
#X obj 1094 405 min 0;
#X obj 1137 405 min 0;
#X obj 1179 405 min 0;
#X obj 1222 404 min 0;
#X obj 1264 404 min 0;
#X obj 1307 404 min 0;
#X obj 1349 404 min 0;
#X obj 1392 403 min 0;
#X obj 1434 403 min 0;
#X obj 1478 402 min 0;
#X obj 1519 403 min 0;
#X obj 1562 402 min 0;
#X obj 1604 402 min 0;
#X obj 1647 402 min 0;
#X obj 1689 402 min 0;
#X obj 1731 403 min 0;
#X obj 1773 403 min 0;
#X obj 1816 403 min 0;
#X obj 1858 403 min 0;
#X obj 215 737 expr ($f1+$f2+$f3+$f4+$f5+$f6+$f7+$f8+$f9+$f10+$f11+$f12+$f13+$f14+$f15+$f16+$f17+$f18+$f19+$f20)/$f21, f 121;
#X obj 46 332 expr ($f1+$f2+$f3+$f4+$f5+$f6+$f7+$f8+$f9+$f10+$f11+$f12+$f13+$f14+$f15+$f16+$f17+$f18+$f19+$f20)/$f21, f 115;
#X obj 1073 507 expr 20+($f1+$f2+$f3+$f4+$f5+$f6+$f7+$f8+$f9+$f10+$f11+$f12+$f13+$f14+$f15+$f16+$f17+$f18+$f19+$f20), f 109;
#X obj 999 484 t b f;
#X obj 896 260 t b f;
#X obj 1073 436 t b f;
#X obj 1158 436 t b f;
#X obj 1246 436 t b f;
#X obj 1333 436 t b f;
#X obj 1417 436 t b f;
#X obj 1461 436 t b f;
#X obj 1548 436 t b f;
#X obj 1591 436 t b f;
#X obj 1115 436 t b f;
#X obj 1202 436 t b f;
#X obj 1290 436 t b f;
#X obj 1375 436 t b f;
#X obj 1506 436 t b f;
#X obj 1634 436 t b f;
#X obj 1678 436 t b f;
#X obj 1723 436 t b f;
#X obj 1813 436 t b f;
#X obj 1769 436 t b f;
#X obj 1857 436 t b f;
#X obj 9 7 r p1;
#X obj 51 15 r p2;
#X obj 93 21 r p3;
#X obj 135 29 r p4;
#X obj 177 33 r p5;
#X obj 219 41 r p6;
#X obj 261 47 r p7;
#X obj 303 55 r p8;
#X obj 346 60 r p9;
#X obj 388 68 r p10;
#X obj 430 74 r p11;
#X obj 472 82 r p12;
#X obj 514 86 r p13;
#X obj 556 94 r p14;
#X obj 598 100 r p15;
#X obj 640 108 r p16;
#X obj 683 113 r p17;
#X obj 725 121 r p18;
#X obj 767 127 r p19;
#X obj 809 135 r p20;
#X connect 0 0 60 0;
#X connect 1 0 121 0;
#X connect 1 1 121 1;
#X connect 2 0 121 0;
#X connect 2 1 121 3;
#X connect 3 0 121 0;
#X connect 3 1 121 5;
#X connect 4 0 121 0;
#X connect 4 1 121 7;
#X connect 5 0 121 0;
#X connect 5 1 121 9;
#X connect 6 0 121 0;
#X connect 6 1 121 11;
#X connect 7 0 121 0;
#X connect 7 1 121 13;
#X connect 8 0 121 0;
#X connect 8 1 121 15;
#X connect 9 0 121 0;
#X connect 9 1 121 2;
#X connect 10 0 121 0;
#X connect 10 1 121 4;
#X connect 11 0 121 0;
#X connect 11 1 121 6;
#X connect 12 0 121 0;
#X connect 12 1 121 8;
#X connect 13 0 121 0;
#X connect 13 1 121 10;
#X connect 14 0 121 0;
#X connect 14 1 121 12;
#X connect 15 0 121 0;
#X connect 15 1 121 14;
#X connect 16 0 121 0;
#X connect 16 1 121 16;
#X connect 17 0 121 0;
#X connect 17 1 121 17;
#X connect 18 0 121 0;
#X connect 18 1 121 18;
#X connect 19 0 0 0;
#X connect 19 1 0 1;
#X connect 20 0 122 0;
#X connect 20 1 122 1;
#X connect 21 0 122 0;
#X connect 21 1 122 3;
#X connect 22 0 122 0;
#X connect 22 1 122 5;
#X connect 23 0 122 0;
#X connect 23 1 122 7;
#X connect 24 0 122 0;
#X connect 24 1 122 9;
#X connect 25 0 122 0;
#X connect 25 1 122 11;
#X connect 26 0 122 0;
#X connect 26 1 122 13;
#X connect 27 0 122 0;
#X connect 27 1 122 15;
#X connect 28 0 122 0;
#X connect 28 1 122 2;
#X connect 29 0 122 0;
#X connect 29 1 122 4;
#X connect 30 0 122 0;
#X connect 30 1 122 6;
#X connect 31 0 122 0;
#X connect 31 1 122 8;
#X connect 32 0 122 0;
#X connect 32 1 122 10;
#X connect 33 0 122 0;
#X connect 33 1 122 12;
#X connect 34 0 122 0;
#X connect 34 1 122 14;
#X connect 35 0 122 0;
#X connect 35 1 122 16;
#X connect 36 0 122 0;
#X connect 36 1 122 17;
#X connect 37 0 122 0;
#X connect 37 1 122 18;
#X connect 38 0 122 0;
#X connect 38 1 122 19;
#X connect 39 0 82 0;
#X connect 39 0 102 0;
#X connect 39 1 62 0;
#X connect 40 0 83 0;
#X connect 40 0 103 0;
#X connect 40 1 63 0;
#X connect 41 0 84 0;
#X connect 41 0 104 0;
#X connect 41 1 64 0;
#X connect 42 0 85 0;
#X connect 42 0 105 0;
#X connect 42 1 65 0;
#X connect 43 0 86 0;
#X connect 43 0 117 0;
#X connect 43 1 66 0;
#X connect 44 0 87 0;
#X connect 44 0 106 0;
#X connect 44 1 67 0;
#X connect 45 0 88 0;
#X connect 45 0 107 0;
#X connect 45 1 68 0;
#X connect 46 0 89 0;
#X connect 46 0 108 0;
#X connect 46 1 69 0;
#X connect 47 0 90 0;
#X connect 47 0 109 0;
#X connect 47 1 70 0;
#X connect 48 0 91 0;
#X connect 48 0 110 0;
#X connect 48 1 71 0;
#X connect 49 0 92 0;
#X connect 49 0 111 0;
#X connect 49 1 72 0;
#X connect 50 0 93 0;
#X connect 50 0 112 0;
#X connect 50 1 73 0;
#X connect 51 0 94 0;
#X connect 51 0 113 0;
#X connect 51 1 74 0;
#X connect 52 0 95 0;
#X connect 52 0 114 0;
#X connect 52 1 75 0;
#X connect 53 0 96 0;
#X connect 53 0 115 0;
#X connect 53 1 76 0;
#X connect 54 0 97 0;
#X connect 54 0 116 0;
#X connect 54 1 77 0;
#X connect 55 0 98 0;
#X connect 55 0 118 0;
#X connect 55 1 78 0;
#X connect 56 0 99 0;
#X connect 56 0 119 0;
#X connect 56 1 79 0;
#X connect 57 0 100 0;
#X connect 57 0 120 0;
#X connect 57 1 80 0;
#X connect 58 0 81 0;
#X connect 58 0 101 0;
#X connect 58 1 61 0;
#X connect 59 0 121 0;
#X connect 59 1 121 19;
#X connect 61 0 121 0;
#X connect 62 0 1 0;
#X connect 63 0 9 0;
#X connect 64 0 2 0;
#X connect 65 0 10 0;
#X connect 66 0 3 0;
#X connect 67 0 11 0;
#X connect 68 0 4 0;
#X connect 69 0 12 0;
#X connect 70 0 5 0;
#X connect 71 0 6 0;
#X connect 72 0 13 0;
#X connect 73 0 7 0;
#X connect 74 0 8 0;
#X connect 75 0 14 0;
#X connect 76 0 15 0;
#X connect 77 0 16 0;
#X connect 78 0 18 0;
#X connect 79 0 17 0;
#X connect 80 0 59 0;
#X connect 81 0 122 0;
#X connect 82 0 20 0;
#X connect 83 0 28 0;
#X connect 84 0 21 0;
#X connect 85 0 29 0;
#X connect 86 0 22 0;
#X connect 87 0 30 0;
#X connect 88 0 23 0;
#X connect 89 0 31 0;
#X connect 90 0 24 0;
#X connect 91 0 25 0;
#X connect 92 0 32 0;
#X connect 93 0 26 0;
#X connect 94 0 27 0;
#X connect 95 0 33 0;
#X connect 96 0 34 0;
#X connect 97 0 35 0;
#X connect 98 0 37 0;
#X connect 99 0 36 0;
#X connect 100 0 38 0;
#X connect 101 0 123 0;
#X connect 102 0 126 0;
#X connect 103 0 134 0;
#X connect 104 0 127 0;
#X connect 105 0 135 0;
#X connect 106 0 128 0;
#X connect 107 0 136 0;
#X connect 108 0 129 0;
#X connect 109 0 137 0;
#X connect 110 0 130 0;
#X connect 111 0 131 0;
#X connect 112 0 138 0;
#X connect 113 0 132 0;
#X connect 114 0 133 0;
#X connect 115 0 139 0;
#X connect 116 0 140 0;
#X connect 117 0 141 0;
#X connect 118 0 143 0;
#X connect 119 0 142 0;
#X connect 120 0 144 0;
#X connect 121 0 19 0;
#X connect 122 0 0 0;
#X connect 123 0 125 0;
#X connect 123 0 124 0;
#X connect 124 0 121 0;
#X connect 124 1 121 20;
#X connect 125 0 122 0;
#X connect 125 1 122 20;
#X connect 126 0 123 0;
#X connect 126 1 123 1;
#X connect 127 0 123 0;
#X connect 127 1 123 3;
#X connect 128 0 123 0;
#X connect 128 1 123 5;
#X connect 129 0 123 0;
#X connect 129 1 123 7;
#X connect 130 0 123 0;
#X connect 130 1 123 9;
#X connect 131 0 123 0;
#X connect 131 1 123 10;
#X connect 132 0 123 0;
#X connect 132 1 123 12;
#X connect 133 0 123 0;
#X connect 133 1 123 13;
#X connect 134 0 123 0;
#X connect 134 1 123 2;
#X connect 135 0 123 0;
#X connect 135 1 123 4;
#X connect 136 0 123 0;
#X connect 136 1 123 6;
#X connect 137 0 123 0;
#X connect 137 1 123 8;
#X connect 138 0 123 0;
#X connect 138 1 123 11;
#X connect 139 0 123 0;
#X connect 139 1 123 14;
#X connect 140 0 123 0;
#X connect 140 1 123 15;
#X connect 141 0 123 0;
#X connect 141 1 123 16;
#X connect 142 0 123 0;
#X connect 142 1 123 18;
#X connect 143 0 123 0;
#X connect 143 1 123 17;
#X connect 144 0 123 0;
#X connect 144 1 123 19;
#X connect 145 0 58 0;
#X connect 146 0 39 0;
#X connect 147 0 40 0;
#X connect 148 0 41 0;
#X connect 149 0 42 0;
#X connect 150 0 43 0;
#X connect 151 0 44 0;
#X connect 152 0 45 0;
#X connect 153 0 46 0;
#X connect 154 0 47 0;
#X connect 155 0 48 0;
#X connect 156 0 49 0;
#X connect 157 0 50 0;
#X connect 158 0 51 0;
#X connect 159 0 52 0;
#X connect 160 0 53 0;
#X connect 161 0 54 0;
#X connect 162 0 55 0;
#X connect 163 0 56 0;
#X connect 164 0 57 0;
#X restore 13 107 pd centroid;
#X f 12;
#X listbox 13 136 20 0 0 0 - - - 0;
#X floatatom 214 526 5 0 0 0 - - - 0;
#N canvas 459 288 621 392 receive_points 0;
#X obj 6 41 oscparse;
#X obj 6 70 list trim;
#X obj 6 100 route point;
#X obj 49 140 route 0 1 2 3 4 5 6 7 8 9 10 11 12 13 14 15 16 17 18 19, f 65;
#X obj 49 177 s p1;
#X obj 58 200 s p2;
#X obj 73 225 s p3;
#X obj 82 248 s p4;
#X obj 92 177 s p5;
#X obj 101 200 s p6;
#X obj 116 225 s p7;
#X obj 125 248 s p8;
#X obj 134 177 s p9;
#X obj 143 200 s p10;
#X obj 158 225 s p11;
#X obj 167 248 s p12;
#X obj 177 177 s p13;
#X obj 186 200 s p14;
#X obj 201 225 s p15;
#X obj 210 248 s p16;
#X obj 220 177 s p17;
#X obj 231 200 s p18;
#X obj 246 225 s p19;
#X obj 255 248 s p20;
#X obj 6 15 inlet;
#X connect 0 0 1 0;
#X connect 1 0 2 0;
#X connect 2 0 3 0;
#X connect 3 0 4 0;
#X connect 3 1 5 0;
#X connect 3 2 6 0;
#X connect 3 3 7 0;
#X connect 3 4 8 0;
#X connect 3 5 9 0;
#X connect 3 6 10 0;
#X connect 3 7 11 0;
#X connect 3 8 12 0;
#X connect 3 9 13 0;
#X connect 3 10 14 0;
#X connect 3 11 15 0;
#X connect 3 12 16 0;
#X connect 3 13 17 0;
#X connect 3 14 18 0;
#X connect 3 15 19 0;
#X connect 3 16 20 0;
#X connect 3 17 21 0;
#X connect 3 18 22 0;
#X connect 3 19 23 0;
#X connect 24 0 0 0;
#X restore 12 74 pd receive_points;
#X obj 280 10 r p1;
#X obj 320 11 r p2;
#X obj 360 11 r p3;
#X obj 396 10 r p4;
#X obj 435 10 r p5;
#X obj 472 10 r p6;
#X obj 509 10 r p7;
#X obj 13 161 s centroid;
#N canvas 28 229 866 769 sine_pluck 0;
#X obj 117 395 osc~;
#X obj 117 247 random 4;
#X obj 117 277 select 0 1 2 3;
#X obj 117 368 mtof;
#X msg 117 333 62;
#X msg 156 334 64;
#X msg 197 334 69;
#X msg 237 335 71;
#X obj 149 431 line~;
#X obj 149 460 *~;
#X obj 116 492 *~;
#X obj 286 199 delay;
#X obj 318 145 random 800;
#X obj 318 171 + 100;
#X obj 213 166 bng 20 250 50 0 empty empty empty 0 -10 0 12 #fcfcfc #000000 #000000;
#X msg 195 369 0.25;
#X obj 286 245 spigot;
#X obj 348 218 tgl 20 0 empty empty empty 0 -10 0 12 #fcfcfc #000000 #000000 0 1;
#X obj 348 276 select 1;
#X obj 444 163 expr if($f1==-1 \, 0 \, 1);
#X obj 348 245 change;
#X floatatom 493 241 5 0 0 0 - - - 0;
#X floatatom 443 262 5 0 0 0 - - - 0;
#X obj 192 227 f;
#X msg 151 401 \$1 \, 0 120;
#N canvas 736 309 450 300 centroid_vector 0;
#X obj 17 43 unpack;
#X obj 205 14 r centroid;
#X obj 205 40 unpack;
#X obj 205 67 t b f;
#X obj 262 69 t b f;
#X obj 17 180 *;
#X obj 74 179 *;
#X obj 17 210 +;
#X obj 17 237 sqrt;
#X obj 17 263 outlet;
#X obj 17 16 inlet;
#X obj 17 144 -;
#X obj 74 146 -;
#X obj 17 67 expr if($f1==-1 \, 0 \, $f1);
#X obj 56 98 expr if($f1==-1 \, 0 \, $f1);
#X connect 0 0 13 0;
#X connect 0 1 14 0;
#X connect 1 0 2 0;
#X connect 2 0 3 0;
#X connect 2 1 4 0;
#X connect 3 0 11 0;
#X connect 3 1 11 1;
#X connect 4 0 12 0;
#X connect 4 1 12 1;
#X connect 5 0 7 0;
#X connect 6 0 7 1;
#X connect 7 0 8 0;
#X connect 8 0 9 0;
#X connect 10 0 0 0;
#X connect 11 0 5 0;
#X connect 11 0 5 1;
#X connect 12 0 6 0;
#X connect 12 0 6 1;
#X connect 13 0 11 0;
#X connect 14 0 12 0;
#X restore 236 84 pd centroid_vector;
#X floatatom 104 120 5 0 0 0 - - - 0;
#X obj 443 35 inlet;
#X obj 119 573 throw~ out;
#X obj 485 110 + 500;
#X obj 485 85 * 1500;
#X floatatom 581 131 5 0 0 0 - - - 0;
#X obj 232 122 expr pow((1-$f1) \, 2);
#X obj 485 135 abs;
#X obj 451 57 unpack f f f f f;
#X obj 118 539 samphold~;
#X obj 329 506 phasor~ 44100;
#X floatatom 415 373 5 0 0 0 - - - 0;
#X obj 409 402 expr pow((1-$f1) \, 0.5)*44100;
#X connect 0 0 10 0;
#X connect 1 0 2 0;
#X connect 2 0 4 0;
#X connect 2 1 5 0;
#X connect 2 2 6 0;
#X connect 2 3 7 0;
#X connect 3 0 0 0;
#X connect 4 0 3 0;
#X connect 5 0 3 0;
#X connect 6 0 3 0;
#X connect 7 0 3 0;
#X connect 8 0 9 0;
#X connect 8 0 9 1;
#X connect 9 0 10 1;
#X connect 10 0 35 0;
#X connect 11 0 16 0;
#X connect 12 0 13 0;
#X connect 13 0 11 1;
#X connect 14 0 11 0;
#X connect 14 0 12 0;
#X connect 14 0 1 0;
#X connect 14 0 15 0;
#X connect 14 0 23 0;
#X connect 15 0 0 1;
#X connect 16 0 14 0;
#X connect 17 0 20 0;
#X connect 17 0 16 1;
#X connect 18 0 14 0;
#X connect 19 0 17 0;
#X connect 19 0 21 0;
#X connect 20 0 18 0;
#X connect 23 0 24 0;
#X connect 24 0 8 0;
#X connect 25 0 26 0;
#X connect 25 0 32 0;
#X connect 27 0 25 0;
#X connect 27 0 34 0;
#X connect 29 0 31 0;
#X connect 29 0 33 0;
#X connect 30 0 29 0;
#X connect 32 0 23 1;
#X connect 33 0 12 1;
#X connect 34 0 19 0;
#X connect 34 0 22 0;
#X connect 34 1 30 0;
#X connect 34 2 37 0;
#X connect 35 0 28 0;
#X connect 36 0 35 1;
#X connect 37 0 38 0;
#X connect 38 0 36 0;
#X restore 1541 857 pd sine_pluck;
#X floatatom 562 515 5 0 0 0 - - - 0;
#X obj 497 160 r p1;
#N canvas 0 0 866 769 sine_pluck 0;
#X obj 117 395 osc~;
#X obj 117 247 random 4;
#X obj 117 277 select 0 1 2 3;
#X obj 117 368 mtof;
#X obj 149 431 line~;
#X obj 149 460 *~;
#X obj 116 492 *~;
#X obj 286 199 delay;
#X obj 318 145 random 800;
#X obj 318 171 + 100;
#X obj 213 166 bng 20 250 50 0 empty empty empty 0 -10 0 12 #fcfcfc #000000 #000000;
#X msg 195 369 0.25;
#X obj 286 245 spigot;
#X obj 348 218 tgl 20 0 empty empty empty 0 -10 0 12 #fcfcfc #000000 #000000 0 1;
#X obj 348 276 select 1;
#X obj 444 163 expr if($f1==-1 \, 0 \, 1);
#X obj 348 245 change;
#X floatatom 493 241 5 0 0 0 - - - 0;
#X floatatom 443 262 5 0 0 0 - - - 0;
#X obj 192 227 f;
#X msg 151 401 \$1 \, 0 120;
#N canvas 736 309 450 300 centroid_vector 0;
#X obj 17 43 unpack;
#X obj 205 14 r centroid;
#X obj 205 40 unpack;
#X obj 205 67 t b f;
#X obj 262 69 t b f;
#X obj 17 180 *;
#X obj 74 179 *;
#X obj 17 210 +;
#X obj 17 237 sqrt;
#X obj 17 263 outlet;
#X obj 17 16 inlet;
#X obj 17 144 -;
#X obj 74 146 -;
#X obj 17 67 expr if($f1==-1 \, 0 \, $f1);
#X obj 56 98 expr if($f1==-1 \, 0 \, $f1);
#X connect 0 0 13 0;
#X connect 0 1 14 0;
#X connect 1 0 2 0;
#X connect 2 0 3 0;
#X connect 2 1 4 0;
#X connect 3 0 11 0;
#X connect 3 1 11 1;
#X connect 4 0 12 0;
#X connect 4 1 12 1;
#X connect 5 0 7 0;
#X connect 6 0 7 1;
#X connect 7 0 8 0;
#X connect 8 0 9 0;
#X connect 10 0 0 0;
#X connect 11 0 5 0;
#X connect 11 0 5 1;
#X connect 12 0 6 0;
#X connect 12 0 6 1;
#X connect 13 0 11 0;
#X connect 14 0 12 0;
#X restore 236 84 pd centroid_vector;
#X floatatom 104 120 5 0 0 0 - - - 0;
#X obj 443 35 inlet;
#X msg 117 333 50;
#X msg 156 334 52;
#X msg 197 334 57;
#X msg 237 335 59;
#X obj 117 569 throw~ out;
#X obj 509 114 + 500;
#X obj 509 89 * 1500;
#X floatatom 638 146 5 0 0 0 - - - 0;
#X obj 232 122 expr pow((1-$f1) \, 2);
#X obj 509 139 abs;
#X obj 329 506 phasor~ 44100;
#X floatatom 415 373 5 0 0 0 - - - 0;
#X obj 409 402 expr pow((1-$f1) \, 0.5)*44100;
#X obj 444 67 unpack f f f f f;
#X obj 118 523 samphold~;
#X connect 0 0 6 0;
#X connect 1 0 2 0;
#X connect 2 0 24 0;
#X connect 2 1 25 0;
#X connect 2 2 26 0;
#X connect 2 3 27 0;
#X connect 3 0 0 0;
#X connect 4 0 5 0;
#X connect 4 0 5 1;
#X connect 5 0 6 1;
#X connect 6 0 38 0;
#X connect 7 0 12 0;
#X connect 8 0 9 0;
#X connect 9 0 7 1;
#X connect 10 0 7 0;
#X connect 10 0 8 0;
#X connect 10 0 1 0;
#X connect 10 0 11 0;
#X connect 10 0 19 0;
#X connect 11 0 0 1;
#X connect 12 0 10 0;
#X connect 13 0 16 0;
#X connect 13 0 12 1;
#X connect 14 0 10 0;
#X connect 15 0 13 0;
#X connect 15 0 17 0;
#X connect 16 0 14 0;
#X connect 19 0 20 0;
#X connect 20 0 4 0;
#X connect 21 0 22 0;
#X connect 21 0 32 0;
#X connect 23 0 21 0;
#X connect 23 0 37 0;
#X connect 24 0 3 0;
#X connect 25 0 3 0;
#X connect 26 0 3 0;
#X connect 27 0 3 0;
#X connect 29 0 31 0;
#X connect 29 0 33 0;
#X connect 30 0 29 0;
#X connect 32 0 19 1;
#X connect 33 0 8 1;
#X connect 34 0 38 1;
#X connect 35 0 36 0;
#X connect 36 0 34 0;
#X connect 37 0 15 0;
#X connect 37 0 18 0;
#X connect 37 1 30 0;
#X connect 37 2 35 0;
#X connect 38 0 28 0;
#X restore 1656 857 pd sine_pluck;
#X obj 591 160 r p2;
#N canvas 0 0 866 769 sine_pluck 0;
#X obj 117 395 osc~;
#X obj 117 247 random 4;
#X obj 117 277 select 0 1 2 3;
#X obj 117 368 mtof;
#X obj 149 431 line~;
#X obj 149 460 *~;
#X obj 116 492 *~;
#X obj 286 199 delay;
#X obj 318 145 random 800;
#X obj 318 171 + 100;
#X obj 213 166 bng 20 250 50 0 empty empty empty 0 -10 0 12 #fcfcfc #000000 #000000;
#X msg 195 369 0.25;
#X obj 286 245 spigot;
#X obj 348 218 tgl 20 0 empty empty empty 0 -10 0 12 #fcfcfc #000000 #000000 0 1;
#X obj 348 276 select 1;
#X obj 444 163 expr if($f1==-1 \, 0 \, 1);
#X obj 348 245 change;
#X floatatom 493 241 5 0 0 0 - - - 0;
#X floatatom 443 262 5 0 0 0 - - - 0;
#X obj 192 227 f;
#X msg 151 401 \$1 \, 0 120;
#N canvas 736 309 450 300 centroid_vector 0;
#X obj 17 43 unpack;
#X obj 205 14 r centroid;
#X obj 205 40 unpack;
#X obj 205 67 t b f;
#X obj 262 69 t b f;
#X obj 17 180 *;
#X obj 74 179 *;
#X obj 17 210 +;
#X obj 17 237 sqrt;
#X obj 17 263 outlet;
#X obj 17 16 inlet;
#X obj 17 144 -;
#X obj 74 146 -;
#X obj 17 67 expr if($f1==-1 \, 0 \, $f1);
#X obj 56 98 expr if($f1==-1 \, 0 \, $f1);
#X connect 0 0 13 0;
#X connect 0 1 14 0;
#X connect 1 0 2 0;
#X connect 2 0 3 0;
#X connect 2 1 4 0;
#X connect 3 0 11 0;
#X connect 3 1 11 1;
#X connect 4 0 12 0;
#X connect 4 1 12 1;
#X connect 5 0 7 0;
#X connect 6 0 7 1;
#X connect 7 0 8 0;
#X connect 8 0 9 0;
#X connect 10 0 0 0;
#X connect 11 0 5 0;
#X connect 11 0 5 1;
#X connect 12 0 6 0;
#X connect 12 0 6 1;
#X connect 13 0 11 0;
#X connect 14 0 12 0;
#X restore 236 84 pd centroid_vector;
#X floatatom 104 120 5 0 0 0 - - - 0;
#X obj 443 35 inlet;
#X msg 117 333 74;
#X msg 156 334 76;
#X msg 197 334 81;
#X msg 237 335 83;
#X obj 117 586 throw~ out;
#X obj 502 89 * 1500;
#X obj 502 114 + 500;
#X obj 232 122 expr pow((1-$f1) \, 2);
#X floatatom 639 152 5 0 0 0 - - - 0;
#X obj 502 139 abs;
#X obj 329 506 phasor~ 44100;
#X floatatom 415 373 5 0 0 0 - - - 0;
#X obj 409 402 expr pow((1-$f1) \, 0.5)*44100;
#X obj 121 536 samphold~;
#X obj 444 67 unpack f f f f f;
#X connect 0 0 6 0;
#X connect 1 0 2 0;
#X connect 2 0 24 0;
#X connect 2 1 25 0;
#X connect 2 2 26 0;
#X connect 2 3 27 0;
#X connect 3 0 0 0;
#X connect 4 0 5 0;
#X connect 4 0 5 1;
#X connect 5 0 6 1;
#X connect 6 0 37 0;
#X connect 7 0 12 0;
#X connect 8 0 9 0;
#X connect 9 0 7 1;
#X connect 10 0 7 0;
#X connect 10 0 8 0;
#X connect 10 0 1 0;
#X connect 10 0 11 0;
#X connect 10 0 19 0;
#X connect 11 0 0 1;
#X connect 12 0 10 0;
#X connect 13 0 16 0;
#X connect 13 0 12 1;
#X connect 14 0 10 0;
#X connect 15 0 13 0;
#X connect 15 0 17 0;
#X connect 16 0 14 0;
#X connect 19 0 20 0;
#X connect 20 0 4 0;
#X connect 21 0 22 0;
#X connect 21 0 31 0;
#X connect 23 0 21 0;
#X connect 23 0 38 0;
#X connect 24 0 3 0;
#X connect 25 0 3 0;
#X connect 26 0 3 0;
#X connect 27 0 3 0;
#X connect 29 0 30 0;
#X connect 30 0 32 0;
#X connect 30 0 33 0;
#X connect 31 0 19 1;
#X connect 33 0 8 1;
#X connect 35 0 36 0;
#X connect 36 0 34 0;
#X connect 37 0 28 0;
#X connect 38 0 15 0;
#X connect 38 0 18 0;
#X connect 38 1 29 0;
#X connect 38 2 35 0;
#X restore 1763 857 pd sine_pluck;
#X obj 683 160 r p3;
#X listbox 280 80 20 0 0 0 - - - 0;
#X msg 214 550 \$1 100;
#X obj 214 575 line~;
#X obj 134 577 noise~;
#X obj 296 569 != -1;
#X obj 295 620 line~;
#X obj 278 656 *~;
#X msg 295 595 \$1 100;
#X obj 125 909 else/giga.rev~;
#X msg 228 881 wet \$1;
#X obj 231 850 hsl 170 20 0 1 0 0 empty empty empty -2 -10 0 12 #fcfcfc #000000 #000000 0 1;
#X obj 16 616 expr~ (($v1*$v3)+($v2*($v3-1)))/16;
#X obj 16 650 lop~ 1000;
#X obj 145 812 hsl 170 20 0 1 0 0 empty empty empty -2 -10 0 12 #fcfcfc #000000 #000000 0 1;
#X obj 142 834 lop~ 20;
#X obj 124 857 *~;
#X msg 148 25 listen 3333;
#X listbox 320 58 20 0 0 0 - - - 0;
#X listbox 360 35 20 0 0 0 - - - 0;
#X listbox 396 104 20 0 0 0 - - - 0;
#X listbox 435 81 20 0 0 0 - - - 0;
#X obj 278 694 hip~ 800;
#X obj 214 459 r p1;
#N canvas 1185 455 541 300 zone_leftup 0;
#X obj 62 54 unpack;
#X obj 62 24 inlet;
#X obj 63 124 <;
#X obj 94 124 <;
#X obj 164 29 inlet;
#X obj 212 60 inlet;
#X obj 92 173 t b f;
#X obj 73 211 +;
#X obj 73 236 == 2;
#X obj 73 270 outlet;
#X connect 0 0 2 0;
#X connect 0 1 3 0;
#X connect 1 0 0 0;
#X connect 2 0 7 0;
#X connect 3 0 6 0;
#X connect 4 0 2 1;
#X connect 5 0 3 1;
#X connect 6 0 7 0;
#X connect 6 1 7 1;
#X connect 7 0 8 0;
#X connect 8 0 9 0;
#X restore 1217 431 pd zone_leftup;
#X floatatom 1264 396 5 0 0 0 - - - 0;
#X floatatom 1312 398 5 0 0 0 - - - 0;
#X floatatom 275 462 5 0 0 0 - - - 0;
#X floatatom 337 462 5 0 0 0 - - - 0;
#N canvas 1185 455 541 300 zone_rightdown 0;
#X obj 62 54 unpack;
#X obj 62 24 inlet;
#X obj 164 29 inlet;
#X obj 212 60 inlet;
#X obj 92 173 t b f;
#X obj 73 211 +;
#X obj 73 236 == 2;
#X obj 73 270 outlet;
#X obj 63 124 >;
#X obj 94 124 >;
#X connect 0 0 8 0;
#X connect 0 1 9 0;
#X connect 1 0 0 0;
#X connect 2 0 8 1;
#X connect 3 0 9 1;
#X connect 4 0 5 0;
#X connect 4 1 5 1;
#X connect 5 0 6 0;
#X connect 6 0 7 0;
#X connect 8 0 5 0;
#X connect 9 0 4 0;
#X restore 1192 481 pd zone_rightdown;
#N canvas 1042 258 541 300 zone_centerband 0;
#X obj 62 54 unpack;
#X obj 62 24 inlet;
#X obj 164 29 inlet;
#X obj 212 60 inlet;
#X obj 92 173 t b f;
#X obj 73 211 +;
#X obj 73 236 == 2;
#X obj 73 270 outlet;
#X obj 63 124 >;
#X obj 94 124 <;
#X floatatom 20 104 5 0 0 0 - - - 0;
#X connect 0 0 8 0;
#X connect 0 0 9 0;
#X connect 0 0 10 0;
#X connect 1 0 0 0;
#X connect 2 0 8 1;
#X connect 3 0 9 1;
#X connect 4 0 5 0;
#X connect 4 1 5 1;
#X connect 5 0 6 0;
#X connect 6 0 7 0;
#X connect 8 0 5 0;
#X connect 9 0 4 0;
#X restore 214 495 pd zone_centerband;
#X obj 296 536 unpack f f f f;
#X obj 777 155 r p4;
#X obj 873 157 r p5;
#X obj 965 160 r p6;
#X obj 1059 160 r p7;
#X obj 701 49 s stepin;
#X obj 704 21 hsl 170 20 0 1 0 0 empty empty empty -2 -10 0 12 #fcfcfc #000000 #000000 0 1;
#X obj 497 188 noise_scene1;
#X obj 25 747 catch~ scene1;
#X obj 591 187 noise_scene1;
#X obj 683 187 noise_scene1;
#X obj 777 186 noise_scene1;
#X obj 873 188 noise_scene1;
#X obj 965 188 noise_scene1;
#X obj 1059 187 noise_scene1;
#X text 926 21 wow now im not sure about which corner is 0 0 anymore... need to check that \, in the noise_scene1 the range is inverted \, 0 - 1 is 1 - 0...;
#X obj 1646 773 hradio 20 1 0 8 empty empty scenes 0 -10 0 12 #fcfcfc #000000 #000000 0;
#X obj 1636 890 catch~ out;
#X obj 125 939 dac~;
#X obj 125 788 expr~ tanh($v1);
#X obj 731 475 r p1;
#X floatatom 809 483 5 0 0 0 x1 - - 0;
#X floatatom 930 482 5 0 0 0 x2 - - 0;
#X floatatom 872 482 5 0 0 0 y1 - - 0;
#X floatatom 986 482 5 0 0 0 y2 - - 0;
#N canvas 0 0 1045 784 zone_rectangle 0;
#N canvas 1042 258 541 300 zone_verticalband 0;
#X obj 62 54 unpack;
#X obj 62 24 inlet;
#X obj 164 29 inlet;
#X obj 212 60 inlet;
#X obj 92 173 t b f;
#X obj 73 211 +;
#X obj 73 236 == 2;
#X obj 73 270 outlet;
#X obj 63 124 >;
#X obj 94 124 <;
#X floatatom 20 104 5 0 0 0 - - - 0;
#X connect 0 0 8 0;
#X connect 0 0 9 0;
#X connect 0 0 10 0;
#X connect 1 0 0 0;
#X connect 2 0 8 1;
#X connect 3 0 9 1;
#X connect 4 0 5 0;
#X connect 4 1 5 1;
#X connect 5 0 6 0;
#X connect 6 0 7 0;
#X connect 8 0 5 0;
#X connect 9 0 4 0;
#X restore 86 103 pd zone_verticalband;
#N canvas 1042 258 541 300 zone_horizontalband 0;
#X obj 62 54 unpack;
#X obj 62 24 inlet;
#X obj 164 29 inlet;
#X obj 212 60 inlet;
#X obj 92 173 t b f;
#X obj 73 211 +;
#X obj 73 236 == 2;
#X obj 73 270 outlet;
#X obj 63 124 >;
#X obj 94 124 <;
#X floatatom 20 104 5 0 0 0 - - - 0;
#X connect 0 0 10 0;
#X connect 0 1 8 0;
#X connect 0 1 9 0;
#X connect 1 0 0 0;
#X connect 2 0 8 1;
#X connect 3 0 9 1;
#X connect 4 0 5 0;
#X connect 4 1 5 1;
#X connect 5 0 6 0;
#X connect 6 0 7 0;
#X connect 8 0 5 0;
#X connect 9 0 4 0;
#X restore 86 182 pd zone_horizontalband;
#X obj 57 215 +;
#X obj 57 240 == 2;
#X floatatom 57 265 5 0 0 0 - - - 0;
#X obj 47 42 inlet point;
#X obj 148 46 inlet x1;
#X obj 227 49 inlet y1;
#X obj 298 56 inlet x2;
#X obj 377 61 inlet y2;
#X obj 57 289 outlet;
#X connect 0 0 2 0;
#X connect 1 0 2 1;
#X connect 2 0 3 0;
#X connect 3 0 4 0;
#X connect 4 0 10 0;
#X connect 5 0 1 0;
#X connect 5 0 0 0;
#X connect 6 0 0 1;
#X connect 7 0 1 1;
#X connect 8 0 0 2;
#X connect 9 0 1 2;
#X restore 737 557 pd zone_rectangle;
#X floatatom 737 582 5 0 0 0 - - - 0;
#X text 794 453 coords 1 always smaller than coords 2;
#X obj 125 747 catch~ scene2;
#X obj 642 260 tgl 20 0 empty empty empty 0 -10 0 12 #fcfcfc #000000 #000000 0 1;
#X obj 767 261 tgl 20 0 empty empty empty 0 -10 0 12 #fcfcfc #000000 #000000 0 1;
#X obj 893 262 tgl 20 0 empty empty empty 0 -10 0 12 #fcfcfc #000000 #000000 0 1;
#X obj 1019 261 tgl 20 0 empty empty empty 0 -10 0 12 #fcfcfc #000000 #000000 0 1;
#X obj 1144 262 tgl 20 0 empty empty empty 0 -10 0 12 #fcfcfc #000000 #000000 0 1;
#X obj 1270 263 tgl 20 0 empty empty empty 0 -10 0 12 #fcfcfc #000000 #000000 0 1;
#X obj 516 259 tgl 20 0 empty empty empty 0 -10 0 12 #fcfcfc #000000 #000000 0 1;
#X obj 421 259 r p1;
#X obj 421 284 pluck_scene2 1;
#X obj 547 285 pluck_scene2 2;
#X obj 672 286 pluck_scene2 3;
#X obj 798 287 pluck_scene2 4;
#X obj 924 286 pluck_scene2 5;
#X obj 1049 287 pluck_scene2 6;
#X obj 1175 288 pluck_scene2 7;
#X obj 1175 263 r p7;
#X obj 1049 262 r p6;
#X obj 924 261 r p5;
#X obj 798 262 r p4;
#X obj 672 261 r p3;
#X obj 547 260 r p2;
#X text 421 177 cortina;
#X text 125 255 cuando los cuadrados se agrandan;
#X text 570 396 escena3: cuadrados fijos \, los bailarines se mueven reciclar ruido de la escena 1 para cuando esten fuera de cualquier espacio. llenar cada espacio de un sonido distinto;
#X text 667 895 escena4: idmish track + shepard tones reactivos;
#X text 39 282 hacer un comfy track con 808 y algo de fondo?;
#X obj 1537 289 soundfiler;
#X obj 1706 296 table sample1;
#X obj 1706 321 table sample2;
#X obj 1706 346 table sample3;
#X obj 1706 371 table sample4;
#X obj 1706 396 table sample5;
#X obj 1706 421 table sample6;
#X obj 1706 446 table sample7;
#X msg 1537 105 read -resize bathroom.wav sample1;
#X msg 1547 129 read -resize creak.wav sample2;
#X msg 1557 153 read -resize forecast.wav sample3;
#X msg 1567 177 read -resize fridge.wav sample4;
#X msg 1578 201 read -resize morning.wav sample5;
#X msg 1588 225 read -resize night.wav sample6;
#X msg 1598 249 read -resize water.wav sample7;
#X obj 1537 376 array set sampledata;
#X obj 1569 344 f 0;
#X obj 1536 73 t b b b b b b b;
#X obj 1535 26 bng 20 250 50 0 empty empty empty 0 -10 0 12 #fcfcfc #000000 #000000;
#X msg 1587 317 0, f 4;
#X obj 514 649 samples_scene3, f 15;
#X msg 1542 421 \; sample1 normalize \; sample2 normalize \; sample3 normalize \; sample4 normalize \; sample5 normalize \; sample6 normalize \; sample7 normalize \; sendata bang \;;
#X obj 225 746 catch~ scene3;
#X text 950 538 recortar samples \, son muy largos algunos como manejar las áreas de los rectángulos?? ahora es cutre pero supongo que funcionaria;
#X obj 1606 345 + 1;
#X obj 1706 471 table sampledata 7;
#X obj 666 741 s rectangle1;
#X obj 762 741 s rectangle2;
#X obj 856 741 s rectangle3;
#X obj 952 741 s rectangle4;
#X obj 1048 741 s rectangle5;
#X obj 1142 741 s rectangle6;
#X obj 1238 741 s rectangle7;
#X obj 514 618 r p1;
#X obj 629 648 samples_scene3, f 15;
#X obj 629 617 r p2;
#X obj 744 648 samples_scene3, f 15;
#X obj 859 647 samples_scene3, f 15;
#X obj 859 616 r p4;
#X obj 744 617 r p3;
#X obj 975 647 samples_scene3, f 15;
#X obj 1090 647 samples_scene3, f 15;
#X obj 1205 646 samples_scene3, f 15;
#X obj 975 616 r p5;
#X obj 1090 616 r p6;
#X obj 1205 615 r p7;
#X obj 1537 317 t f b;
#X listbox 472 58 20 0 0 0 - - - 0;
#X listbox 509 35 20 0 0 0 - - - 0;
#X text 690 714 lists of four elements formated 0 to 1 - x1 y1 x2 y2 (x1<x2 && y1<y2), f 71;
#X text 505 546 incluir esto para el volumen?;
#X obj 562 481 centroid_vector;
#X connect 0 0 5 0;
#X connect 1 0 0 0;
#X connect 2 0 3 0;
#X connect 3 0 13 0;
#X connect 4 0 22 0;
#X connect 6 0 21 0;
#X connect 7 0 38 0;
#X connect 8 0 39 0;
#X connect 9 0 40 0;
#X connect 10 0 41 0;
#X connect 11 0 153 0;
#X connect 12 0 154 0;
#X connect 16 0 58 0;
#X connect 18 0 60 0;
#X connect 20 0 61 0;
#X connect 22 0 23 0;
#X connect 23 0 32 2;
#X connect 24 0 32 1;
#X connect 25 0 28 0;
#X connect 26 0 27 1;
#X connect 27 0 42 0;
#X connect 28 0 26 0;
#X connect 29 0 69 0;
#X connect 29 1 69 1;
#X connect 30 0 29 0;
#X connect 31 0 30 0;
#X connect 32 0 33 0;
#X connect 33 0 27 0;
#X connect 34 0 35 0;
#X connect 35 0 36 1;
#X connect 36 0 29 0;
#X connect 37 0 0 0;
#X connect 43 0 50 0;
#X connect 43 0 51 0;
#X connect 45 0 44 1;
#X connect 46 0 44 2;
#X connect 47 0 50 1;
#X connect 48 0 50 2;
#X connect 50 0 4 0;
#X connect 51 0 25 0;
#X connect 52 0 62 0;
#X connect 53 0 63 0;
#X connect 54 0 64 0;
#X connect 55 0 65 0;
#X connect 57 0 56 0;
#X connect 70 0 36 0;
#X connect 71 0 76 0;
#X connect 72 0 76 1;
#X connect 73 0 76 3;
#X connect 74 0 76 2;
#X connect 75 0 76 4;
#X connect 76 0 77 0;
#X connect 79 0 70 0;
#X connect 80 0 89 1;
#X connect 81 0 90 1;
#X connect 82 0 91 1;
#X connect 83 0 92 1;
#X connect 84 0 93 1;
#X connect 85 0 94 1;
#X connect 86 0 88 1;
#X connect 87 0 88 0;
#X connect 95 0 94 0;
#X connect 96 0 93 0;
#X connect 97 0 92 0;
#X connect 98 0 91 0;
#X connect 99 0 90 0;
#X connect 100 0 89 0;
#X connect 106 0 152 0;
#X connect 114 0 106 0;
#X connect 115 0 106 0;
#X connect 116 0 106 0;
#X connect 117 0 106 0;
#X connect 118 0 106 0;
#X connect 119 0 106 0;
#X connect 120 0 106 0;
#X connect 122 0 121 1;
#X connect 122 0 130 0;
#X connect 123 0 120 0;
#X connect 123 1 119 0;
#X connect 123 2 118 0;
#X connect 123 3 117 0;
#X connect 123 4 116 0;
#X connect 123 5 115 0;
#X connect 123 6 114 0;
#X connect 124 0 123 0;
#X connect 124 0 125 0;
#X connect 125 0 122 1;
#X connect 130 0 122 1;
#X connect 139 0 126 0;
#X connect 141 0 140 0;
#X connect 144 0 143 0;
#X connect 145 0 142 0;
#X connect 149 0 146 0;
#X connect 150 0 147 0;
#X connect 151 0 148 0;
#X connect 152 0 121 0;
#X connect 152 1 122 0;
#X connect 157 0 15 0;
