#N canvas 0 32 1920 982 12;
#X obj 12 47 netreceive -u -b;
#X msg 12 20 listen 9001;
#N canvas 0 32 1920 982 centroid 0;
#X obj 46 770 pack;
#X obj 166 483 t b f;
#X obj 251 483 t b f;
#X obj 339 483 t b f;
#X obj 426 483 t b f;
#X obj 510 483 t b f;
#X obj 554 483 t b f;
#X obj 641 483 t b f;
#X obj 684 483 t b f;
#X obj 208 483 t b f;
#X obj 295 483 t b f;
#X obj 383 483 t b f;
#X obj 468 483 t b f;
#X obj 599 483 t b f;
#X obj 727 483 t b f;
#X obj 771 483 t b f;
#X obj 816 483 t b f;
#X obj 906 483 t b f;
#X obj 862 483 t b f;
#X obj 215 791 t b f;
#X obj 58 260 t b f;
#X obj 143 260 t b f;
#X obj 231 260 t b f;
#X obj 318 260 t b f;
#X obj 402 260 t b f;
#X obj 446 260 t b f;
#X obj 533 260 t b f;
#X obj 576 260 t b f;
#X obj 100 260 t b f;
#X obj 187 260 t b f;
#X obj 275 260 t b f;
#X obj 360 260 t b f;
#X obj 491 260 t b f;
#X obj 619 260 t b f;
#X obj 663 260 t b f;
#X obj 708 260 t b f;
#X obj 798 260 t b f;
#X obj 754 260 t b f;
#X obj 842 260 t b f;
#X obj 61 168 unpack;
#X obj 110 168 unpack;
#X obj 159 168 unpack;
#X obj 208 168 unpack;
#X obj 256 168 unpack;
#X obj 305 168 unpack;
#X obj 354 168 unpack;
#X obj 403 168 unpack;
#X obj 452 168 unpack;
#X obj 501 168 unpack;
#X obj 550 168 unpack;
#X obj 599 168 unpack;
#X obj 647 168 unpack;
#X obj 696 168 unpack;
#X obj 745 168 unpack;
#X obj 794 168 unpack;
#X obj 843 169 unpack;
#X obj 892 169 unpack;
#X obj 941 169 unpack;
#X obj 9 166 unpack;
#X obj 950 483 t b f;
#X obj 46 796 outlet;
#X obj 120 458 max 0;
#X obj 164 457 max 0;
#X obj 206 457 max 0;
#X obj 250 456 max 0;
#X obj 293 457 max 0;
#X obj 337 456 max 0;
#X obj 379 456 max 0;
#X obj 423 455 max 0;
#X obj 466 455 max 0;
#X obj 510 454 max 0;
#X obj 552 454 max 0;
#X obj 598 455 max 0;
#X obj 640 456 max 0;
#X obj 684 455 max 0;
#X obj 726 455 max 0;
#X obj 770 454 max 0;
#X obj 818 454 max 0;
#X obj 862 453 max 0;
#X obj 904 453 max 0;
#X obj 948 452 max 0;
#X obj 13 233 max 0;
#X obj 56 232 max 0;
#X obj 99 232 max 0;
#X obj 143 231 max 0;
#X obj 186 232 max 0;
#X obj 230 231 max 0;
#X obj 272 231 max 0;
#X obj 316 230 max 0;
#X obj 359 230 max 0;
#X obj 403 229 max 0;
#X obj 445 229 max 0;
#X obj 489 228 max 0;
#X obj 531 229 max 0;
#X obj 575 228 max 0;
#X obj 617 228 max 0;
#X obj 661 227 max 0;
#X obj 709 227 max 0;
#X obj 753 227 max 0;
#X obj 795 226 max 0;
#X obj 839 225 max 0;
#X obj 1052 405 min 0;
#X obj 1094 405 min 0;
#X obj 1137 405 min 0;
#X obj 1179 405 min 0;
#X obj 1222 404 min 0;
#X obj 1264 404 min 0;
#X obj 1307 404 min 0;
#X obj 1349 404 min 0;
#X obj 1392 403 min 0;
#X obj 1434 403 min 0;
#X obj 1478 402 min 0;
#X obj 1519 403 min 0;
#X obj 1562 402 min 0;
#X obj 1604 402 min 0;
#X obj 1647 402 min 0;
#X obj 1689 402 min 0;
#X obj 1731 403 min 0;
#X obj 1773 403 min 0;
#X obj 1816 403 min 0;
#X obj 1858 403 min 0;
#X obj 215 737 expr ($f1+$f2+$f3+$f4+$f5+$f6+$f7+$f8+$f9+$f10+$f11+$f12+$f13+$f14+$f15+$f16+$f17+$f18+$f19+$f20)/$f21, f 121;
#X obj 46 332 expr ($f1+$f2+$f3+$f4+$f5+$f6+$f7+$f8+$f9+$f10+$f11+$f12+$f13+$f14+$f15+$f16+$f17+$f18+$f19+$f20)/$f21, f 115;
#X obj 1073 507 expr 20+($f1+$f2+$f3+$f4+$f5+$f6+$f7+$f8+$f9+$f10+$f11+$f12+$f13+$f14+$f15+$f16+$f17+$f18+$f19+$f20), f 109;
#X obj 999 484 t b f;
#X obj 896 260 t b f;
#X obj 1073 436 t b f;
#X obj 1158 436 t b f;
#X obj 1246 436 t b f;
#X obj 1333 436 t b f;
#X obj 1417 436 t b f;
#X obj 1461 436 t b f;
#X obj 1548 436 t b f;
#X obj 1591 436 t b f;
#X obj 1115 436 t b f;
#X obj 1202 436 t b f;
#X obj 1290 436 t b f;
#X obj 1375 436 t b f;
#X obj 1506 436 t b f;
#X obj 1634 436 t b f;
#X obj 1678 436 t b f;
#X obj 1723 436 t b f;
#X obj 1813 436 t b f;
#X obj 1769 436 t b f;
#X obj 1857 436 t b f;
#X obj 9 7 r p1;
#X obj 51 15 r p2;
#X obj 93 21 r p3;
#X obj 135 29 r p4;
#X obj 177 33 r p5;
#X obj 219 41 r p6;
#X obj 261 47 r p7;
#X obj 303 55 r p8;
#X obj 346 60 r p9;
#X obj 388 68 r p10;
#X obj 430 74 r p11;
#X obj 472 82 r p12;
#X obj 514 86 r p13;
#X obj 556 94 r p14;
#X obj 598 100 r p15;
#X obj 640 108 r p16;
#X obj 683 113 r p17;
#X obj 725 121 r p18;
#X obj 767 127 r p19;
#X obj 809 135 r p20;
#X obj 1073 532 max 1;
#X connect 0 0 60 0;
#X connect 1 0 121 0;
#X connect 1 1 121 1;
#X connect 2 0 121 0;
#X connect 2 1 121 3;
#X connect 3 0 121 0;
#X connect 3 1 121 5;
#X connect 4 0 121 0;
#X connect 4 1 121 7;
#X connect 5 0 121 0;
#X connect 5 1 121 9;
#X connect 6 0 121 0;
#X connect 6 1 121 11;
#X connect 7 0 121 0;
#X connect 7 1 121 13;
#X connect 8 0 121 0;
#X connect 8 1 121 15;
#X connect 9 0 121 0;
#X connect 9 1 121 2;
#X connect 10 0 121 0;
#X connect 10 1 121 4;
#X connect 11 0 121 0;
#X connect 11 1 121 6;
#X connect 12 0 121 0;
#X connect 12 1 121 8;
#X connect 13 0 121 0;
#X connect 13 1 121 10;
#X connect 14 0 121 0;
#X connect 14 1 121 12;
#X connect 15 0 121 0;
#X connect 15 1 121 14;
#X connect 16 0 121 0;
#X connect 16 1 121 16;
#X connect 17 0 121 0;
#X connect 17 1 121 17;
#X connect 18 0 121 0;
#X connect 18 1 121 18;
#X connect 19 0 0 0;
#X connect 19 1 0 1;
#X connect 20 0 122 0;
#X connect 20 1 122 1;
#X connect 21 0 122 0;
#X connect 21 1 122 3;
#X connect 22 0 122 0;
#X connect 22 1 122 5;
#X connect 23 0 122 0;
#X connect 23 1 122 7;
#X connect 24 0 122 0;
#X connect 24 1 122 9;
#X connect 25 0 122 0;
#X connect 25 1 122 11;
#X connect 26 0 122 0;
#X connect 26 1 122 13;
#X connect 27 0 122 0;
#X connect 27 1 122 15;
#X connect 28 0 122 0;
#X connect 28 1 122 2;
#X connect 29 0 122 0;
#X connect 29 1 122 4;
#X connect 30 0 122 0;
#X connect 30 1 122 6;
#X connect 31 0 122 0;
#X connect 31 1 122 8;
#X connect 32 0 122 0;
#X connect 32 1 122 10;
#X connect 33 0 122 0;
#X connect 33 1 122 12;
#X connect 34 0 122 0;
#X connect 34 1 122 14;
#X connect 35 0 122 0;
#X connect 35 1 122 16;
#X connect 36 0 122 0;
#X connect 36 1 122 17;
#X connect 37 0 122 0;
#X connect 37 1 122 18;
#X connect 38 0 122 0;
#X connect 38 1 122 19;
#X connect 39 0 82 0;
#X connect 39 0 102 0;
#X connect 39 1 62 0;
#X connect 40 0 83 0;
#X connect 40 0 103 0;
#X connect 40 1 63 0;
#X connect 41 0 84 0;
#X connect 41 0 104 0;
#X connect 41 1 64 0;
#X connect 42 0 85 0;
#X connect 42 0 105 0;
#X connect 42 1 65 0;
#X connect 43 0 86 0;
#X connect 43 0 117 0;
#X connect 43 1 66 0;
#X connect 44 0 87 0;
#X connect 44 0 106 0;
#X connect 44 1 67 0;
#X connect 45 0 88 0;
#X connect 45 0 107 0;
#X connect 45 1 68 0;
#X connect 46 0 89 0;
#X connect 46 0 108 0;
#X connect 46 1 69 0;
#X connect 47 0 90 0;
#X connect 47 0 109 0;
#X connect 47 1 70 0;
#X connect 48 0 91 0;
#X connect 48 0 110 0;
#X connect 48 1 71 0;
#X connect 49 0 92 0;
#X connect 49 0 111 0;
#X connect 49 1 72 0;
#X connect 50 0 93 0;
#X connect 50 0 112 0;
#X connect 50 1 73 0;
#X connect 51 0 94 0;
#X connect 51 0 113 0;
#X connect 51 1 74 0;
#X connect 52 0 95 0;
#X connect 52 0 114 0;
#X connect 52 1 75 0;
#X connect 53 0 96 0;
#X connect 53 0 115 0;
#X connect 53 1 76 0;
#X connect 54 0 97 0;
#X connect 54 0 116 0;
#X connect 54 1 77 0;
#X connect 55 0 98 0;
#X connect 55 0 118 0;
#X connect 55 1 78 0;
#X connect 56 0 99 0;
#X connect 56 0 119 0;
#X connect 56 1 79 0;
#X connect 57 0 100 0;
#X connect 57 0 120 0;
#X connect 57 1 80 0;
#X connect 58 0 81 0;
#X connect 58 0 101 0;
#X connect 58 1 61 0;
#X connect 59 0 121 0;
#X connect 59 1 121 19;
#X connect 61 0 121 0;
#X connect 62 0 1 0;
#X connect 63 0 9 0;
#X connect 64 0 2 0;
#X connect 65 0 10 0;
#X connect 66 0 3 0;
#X connect 67 0 11 0;
#X connect 68 0 4 0;
#X connect 69 0 12 0;
#X connect 70 0 5 0;
#X connect 71 0 6 0;
#X connect 72 0 13 0;
#X connect 73 0 7 0;
#X connect 74 0 8 0;
#X connect 75 0 14 0;
#X connect 76 0 15 0;
#X connect 77 0 16 0;
#X connect 78 0 18 0;
#X connect 79 0 17 0;
#X connect 80 0 59 0;
#X connect 81 0 122 0;
#X connect 82 0 20 0;
#X connect 83 0 28 0;
#X connect 84 0 21 0;
#X connect 85 0 29 0;
#X connect 86 0 22 0;
#X connect 87 0 30 0;
#X connect 88 0 23 0;
#X connect 89 0 31 0;
#X connect 90 0 24 0;
#X connect 91 0 25 0;
#X connect 92 0 32 0;
#X connect 93 0 26 0;
#X connect 94 0 27 0;
#X connect 95 0 33 0;
#X connect 96 0 34 0;
#X connect 97 0 35 0;
#X connect 98 0 37 0;
#X connect 99 0 36 0;
#X connect 100 0 38 0;
#X connect 101 0 123 0;
#X connect 102 0 126 0;
#X connect 103 0 134 0;
#X connect 104 0 127 0;
#X connect 105 0 135 0;
#X connect 106 0 128 0;
#X connect 107 0 136 0;
#X connect 108 0 129 0;
#X connect 109 0 137 0;
#X connect 110 0 130 0;
#X connect 111 0 131 0;
#X connect 112 0 138 0;
#X connect 113 0 132 0;
#X connect 114 0 133 0;
#X connect 115 0 139 0;
#X connect 116 0 140 0;
#X connect 117 0 141 0;
#X connect 118 0 143 0;
#X connect 119 0 142 0;
#X connect 120 0 144 0;
#X connect 121 0 19 0;
#X connect 122 0 0 0;
#X connect 123 0 165 0;
#X connect 124 0 121 0;
#X connect 124 1 121 20;
#X connect 125 0 122 0;
#X connect 125 1 122 20;
#X connect 126 0 123 0;
#X connect 126 1 123 1;
#X connect 127 0 123 0;
#X connect 127 1 123 3;
#X connect 128 0 123 0;
#X connect 128 1 123 5;
#X connect 129 0 123 0;
#X connect 129 1 123 7;
#X connect 130 0 123 0;
#X connect 130 1 123 9;
#X connect 131 0 123 0;
#X connect 131 1 123 10;
#X connect 132 0 123 0;
#X connect 132 1 123 12;
#X connect 133 0 123 0;
#X connect 133 1 123 13;
#X connect 134 0 123 0;
#X connect 134 1 123 2;
#X connect 135 0 123 0;
#X connect 135 1 123 4;
#X connect 136 0 123 0;
#X connect 136 1 123 6;
#X connect 137 0 123 0;
#X connect 137 1 123 8;
#X connect 138 0 123 0;
#X connect 138 1 123 11;
#X connect 139 0 123 0;
#X connect 139 1 123 14;
#X connect 140 0 123 0;
#X connect 140 1 123 15;
#X connect 141 0 123 0;
#X connect 141 1 123 16;
#X connect 142 0 123 0;
#X connect 142 1 123 18;
#X connect 143 0 123 0;
#X connect 143 1 123 17;
#X connect 144 0 123 0;
#X connect 144 1 123 19;
#X connect 145 0 58 0;
#X connect 146 0 39 0;
#X connect 147 0 40 0;
#X connect 148 0 41 0;
#X connect 149 0 42 0;
#X connect 150 0 43 0;
#X connect 151 0 44 0;
#X connect 152 0 45 0;
#X connect 153 0 46 0;
#X connect 154 0 47 0;
#X connect 155 0 48 0;
#X connect 156 0 49 0;
#X connect 157 0 50 0;
#X connect 158 0 51 0;
#X connect 159 0 52 0;
#X connect 160 0 53 0;
#X connect 161 0 54 0;
#X connect 162 0 55 0;
#X connect 163 0 56 0;
#X connect 164 0 57 0;
#X connect 165 0 125 0;
#X connect 165 0 124 0;
#X restore 13 108 pd centroid;
#X f 12;
#X listbox 13 137 20 0 0 0 - - - 0;
#N canvas 459 288 621 392 receive_points 0;
#X obj 6 41 oscparse;
#X obj 6 70 list trim;
#X obj 6 100 route point;
#X obj 49 140 route 0 1 2 3 4 5 6 7 8 9 10 11 12 13 14 15 16 17 18 19, f 65;
#X obj 49 177 s p1;
#X obj 58 200 s p2;
#X obj 73 225 s p3;
#X obj 82 248 s p4;
#X obj 92 177 s p5;
#X obj 101 200 s p6;
#X obj 116 225 s p7;
#X obj 125 248 s p8;
#X obj 134 177 s p9;
#X obj 143 200 s p10;
#X obj 158 225 s p11;
#X obj 167 248 s p12;
#X obj 177 177 s p13;
#X obj 186 200 s p14;
#X obj 201 225 s p15;
#X obj 210 248 s p16;
#X obj 220 177 s p17;
#X obj 231 200 s p18;
#X obj 246 225 s p19;
#X obj 255 248 s p20;
#X obj 6 15 inlet;
#X connect 0 0 1 0;
#X connect 1 0 2 0;
#X connect 2 0 3 0;
#X connect 3 0 4 0;
#X connect 3 1 5 0;
#X connect 3 2 6 0;
#X connect 3 3 7 0;
#X connect 3 4 8 0;
#X connect 3 5 9 0;
#X connect 3 6 10 0;
#X connect 3 7 11 0;
#X connect 3 8 12 0;
#X connect 3 9 13 0;
#X connect 3 10 14 0;
#X connect 3 11 15 0;
#X connect 3 12 16 0;
#X connect 3 13 17 0;
#X connect 3 14 18 0;
#X connect 3 15 19 0;
#X connect 3 16 20 0;
#X connect 3 17 21 0;
#X connect 3 18 22 0;
#X connect 3 19 23 0;
#X connect 24 0 0 0;
#X restore 12 72 pd receive_points;
#X obj 216 15 r p1;
#X obj 256 16 r p2;
#X obj 296 16 r p3;
#X obj 332 15 r p4;
#X obj 371 15 r p5;
#X obj 408 15 r p6;
#X obj 445 15 r p7;
#X obj 13 162 s centroid;
#X obj 1736 623 r p1;
#X obj 1828 626 r p2;
#X obj 1926 627 r p3;
#X listbox 216 85 20 0 0 0 - - - 0;
#X msg 172 886 wet \$1;
#X obj 193 849 hsl 170 20 0 1 0 0 empty empty empty -2 -10 0 12 #fcfcfc #000000 #000000 0 1;
#X listbox 256 63 20 0 0 0 - - - 0;
#X listbox 296 40 20 0 0 0 - - - 0;
#X listbox 332 109 20 0 0 0 - - - 0;
#X listbox 371 86 20 0 0 0 - - - 0;
#X obj 2018 626 r p4;
#X obj 2111 627 r p5;
#X obj 2209 626 r p6;
#X obj 2301 626 r p7;
#X obj 321 187 s stepin;
#X obj 324 157 hsl 170 20 1 0 0 0 empty empty empty -2 -10 0 12 #fcfcfc #000000 #000000 0 1;
#X obj 150 1066 dac~;
#X obj 1540 708 r p1;
#X obj 2294 712 r p7;
#X obj 2168 711 r p6;
#X obj 2043 710 r p5;
#X obj 1917 711 r p4;
#X obj 1791 710 r p3;
#X obj 1666 709 r p2;
#X obj 1537 289 soundfiler;
#X obj 1706 296 table sample1;
#X obj 1706 321 table sample2;
#X obj 1706 346 table sample3;
#X obj 1706 371 table sample4;
#X obj 1706 396 table sample5;
#X obj 1706 421 table sample6;
#X obj 1706 446 table sample7;
#X msg 1537 105 read -resize bathroom.wav sample1;
#X msg 1547 129 read -resize creak.wav sample2;
#X msg 1557 153 read -resize forecast.wav sample3;
#X msg 1567 177 read -resize fridge.wav sample4;
#X msg 1578 201 read -resize morning.wav sample5;
#X msg 1588 225 read -resize night.wav sample6;
#X msg 1598 249 read -resize water.wav sample7;
#X obj 1537 376 array set sampledata;
#X obj 1569 344 f 0;
#X obj 1536 73 t b b b b b b b;
#X obj 1535 43 bng 20 250 50 0 empty empty empty 0 -10 0 12 #fcfcfc #000000 #000000;
#X msg 1587 317 0, f 4;
#X obj 1545 842 samples_scene3, f 15;
#X msg 1543 470 \; sample1 normalize \; sample2 normalize \; sample3 normalize \; sample4 normalize \; sample5 normalize \; sample6 normalize \; sample7 normalize \; sendata bang \;;
#X obj 1606 345 + 1;
#X obj 1706 471 table sampledata 7;
#X obj 1661 1136 s rectangle1;
#X obj 1757 1136 s rectangle2;
#X obj 1851 1136 s rectangle3;
#X obj 1947 1136 s rectangle4;
#X obj 2043 1136 s rectangle5;
#X obj 2137 1136 s rectangle6;
#X obj 2233 1136 s rectangle7;
#X obj 1545 811 r p1;
#X obj 1660 841 samples_scene3, f 15;
#X obj 1660 810 r p2;
#X obj 1775 841 samples_scene3, f 15;
#X obj 1890 840 samples_scene3, f 15;
#X obj 1890 809 r p4;
#X obj 1775 810 r p3;
#X obj 2006 840 samples_scene3, f 15;
#X obj 2121 840 samples_scene3, f 15;
#X obj 2236 839 samples_scene3, f 15;
#X obj 2006 809 r p5;
#X obj 2121 809 r p6;
#X obj 2236 808 r p7;
#X obj 1537 317 t f b;
#X listbox 408 63 20 0 0 0 - - - 0;
#X listbox 445 40 20 0 0 0 - - - 0;
#X text 1728 926 lists of four elements formated 0 to 1 - x1 y1 x2 y2 (x1<x2 && y1<y2), f 71;
#X obj 13 199 loadbang;
#X obj 13 224 s lb;
#X obj 2308 926 bng 20 250 50 0 empty empty empty 0 -10 0 12 #fcfcfc #000000 #000000;
#N canvas 418 117 681 607 deprecated 0;
#X floatatom 212 75 5 0 0 0 - - - 0;
#X msg 212 99 \$1 100;
#X obj 212 124 line~;
#X obj 132 126 noise~;
#X obj 294 118 != -1;
#X obj 293 169 line~;
#X obj 276 205 *~;
#X msg 293 144 \$1 100;
#X obj 14 165 expr~ (($v1*$v3)+($v2*($v3-1)))/16;
#X obj 14 199 lop~ 1000;
#X obj 276 243 hip~ 800;
#X obj 212 8 r p1;
#X floatatom 273 11 5 0 0 0 - - - 0;
#X floatatom 335 11 5 0 0 0 - - - 0;
#N canvas 1042 258 541 300 zone_centerband 0;
#X obj 62 54 unpack;
#X obj 62 24 inlet;
#X obj 164 29 inlet;
#X obj 212 60 inlet;
#X obj 92 173 t b f;
#X obj 73 211 +;
#X obj 73 236 == 2;
#X obj 73 270 outlet;
#X obj 63 124 >;
#X obj 94 124 <;
#X floatatom 20 104 5 0 0 0 - - - 0;
#X connect 0 0 8 0;
#X connect 0 0 9 0;
#X connect 0 0 10 0;
#X connect 1 0 0 0;
#X connect 2 0 8 1;
#X connect 3 0 9 1;
#X connect 4 0 5 0;
#X connect 4 1 5 1;
#X connect 5 0 6 0;
#X connect 6 0 7 0;
#X connect 8 0 5 0;
#X connect 9 0 4 0;
#X restore 212 44 pd zone_centerband;
#X obj 294 85 unpack f f f f;
#N canvas 28 229 866 769 sine_pluck 0;
#X obj 117 395 osc~;
#X obj 117 247 random 4;
#X obj 117 277 select 0 1 2 3;
#X obj 117 368 mtof;
#X msg 117 333 62;
#X msg 156 334 64;
#X msg 197 334 69;
#X msg 237 335 71;
#X obj 149 431 line~;
#X obj 149 460 *~;
#X obj 116 492 *~;
#X obj 286 199 delay;
#X obj 318 145 random 800;
#X obj 318 171 + 100;
#X obj 213 166 bng 20 250 50 0 empty empty empty 0 -10 0 12 #fcfcfc #000000 #000000;
#X msg 195 369 0.25;
#X obj 286 245 spigot;
#X obj 348 218 tgl 20 0 empty empty empty 0 -10 0 12 #fcfcfc #000000 #000000 0 1;
#X obj 348 276 select 1;
#X obj 444 163 expr if($f1==-1 \, 0 \, 1);
#X obj 348 245 change;
#X floatatom 493 241 5 0 0 0 - - - 0;
#X floatatom 443 262 5 0 0 0 - - - 0;
#X obj 192 227 f;
#X msg 151 401 \$1 \, 0 120;
#N canvas 736 309 450 300 centroid_vector 0;
#X obj 17 43 unpack;
#X obj 205 14 r centroid;
#X obj 205 40 unpack;
#X obj 205 67 t b f;
#X obj 262 69 t b f;
#X obj 17 180 *;
#X obj 74 179 *;
#X obj 17 210 +;
#X obj 17 237 sqrt;
#X obj 17 263 outlet;
#X obj 17 16 inlet;
#X obj 17 144 -;
#X obj 74 146 -;
#X obj 17 67 expr if($f1==-1 \, 0 \, $f1);
#X obj 56 98 expr if($f1==-1 \, 0 \, $f1);
#X connect 0 0 13 0;
#X connect 0 1 14 0;
#X connect 1 0 2 0;
#X connect 2 0 3 0;
#X connect 2 1 4 0;
#X connect 3 0 11 0;
#X connect 3 1 11 1;
#X connect 4 0 12 0;
#X connect 4 1 12 1;
#X connect 5 0 7 0;
#X connect 6 0 7 1;
#X connect 7 0 8 0;
#X connect 8 0 9 0;
#X connect 10 0 0 0;
#X connect 11 0 5 0;
#X connect 11 0 5 1;
#X connect 12 0 6 0;
#X connect 12 0 6 1;
#X connect 13 0 11 0;
#X connect 14 0 12 0;
#X restore 236 84 pd centroid_vector;
#X floatatom 104 120 5 0 0 0 - - - 0;
#X obj 443 35 inlet;
#X obj 119 573 throw~ out;
#X obj 485 110 + 500;
#X obj 485 85 * 1500;
#X floatatom 581 131 5 0 0 0 - - - 0;
#X obj 232 122 expr pow((1-$f1) \, 2);
#X obj 485 135 abs;
#X obj 451 57 unpack f f f f f;
#X obj 118 539 samphold~;
#X obj 329 506 phasor~ 44100;
#X floatatom 415 373 5 0 0 0 - - - 0;
#X obj 409 402 expr pow((1-$f1) \, 0.5)*44100;
#X connect 0 0 10 0;
#X connect 1 0 2 0;
#X connect 2 0 4 0;
#X connect 2 1 5 0;
#X connect 2 2 6 0;
#X connect 2 3 7 0;
#X connect 3 0 0 0;
#X connect 4 0 3 0;
#X connect 5 0 3 0;
#X connect 6 0 3 0;
#X connect 7 0 3 0;
#X connect 8 0 9 0;
#X connect 8 0 9 1;
#X connect 9 0 10 1;
#X connect 10 0 35 0;
#X connect 11 0 16 0;
#X connect 12 0 13 0;
#X connect 13 0 11 1;
#X connect 14 0 11 0;
#X connect 14 0 12 0;
#X connect 14 0 1 0;
#X connect 14 0 15 0;
#X connect 14 0 23 0;
#X connect 15 0 0 1;
#X connect 16 0 14 0;
#X connect 17 0 20 0;
#X connect 17 0 16 1;
#X connect 18 0 14 0;
#X connect 19 0 17 0;
#X connect 19 0 21 0;
#X connect 20 0 18 0;
#X connect 23 0 24 0;
#X connect 24 0 8 0;
#X connect 25 0 26 0;
#X connect 25 0 32 0;
#X connect 27 0 25 0;
#X connect 27 0 34 0;
#X connect 29 0 31 0;
#X connect 29 0 33 0;
#X connect 30 0 29 0;
#X connect 32 0 23 1;
#X connect 33 0 12 1;
#X connect 34 0 19 0;
#X connect 34 0 22 0;
#X connect 34 1 30 0;
#X connect 34 2 37 0;
#X connect 35 0 28 0;
#X connect 36 0 35 1;
#X connect 37 0 38 0;
#X connect 38 0 36 0;
#X restore 22 423 pd sine_pluck;
#N canvas 0 0 866 769 sine_pluck 0;
#X obj 117 395 osc~;
#X obj 117 247 random 4;
#X obj 117 277 select 0 1 2 3;
#X obj 117 368 mtof;
#X obj 149 431 line~;
#X obj 149 460 *~;
#X obj 116 492 *~;
#X obj 286 199 delay;
#X obj 318 145 random 800;
#X obj 318 171 + 100;
#X obj 213 166 bng 20 250 50 0 empty empty empty 0 -10 0 12 #fcfcfc #000000 #000000;
#X msg 195 369 0.25;
#X obj 286 245 spigot;
#X obj 348 218 tgl 20 0 empty empty empty 0 -10 0 12 #fcfcfc #000000 #000000 0 1;
#X obj 348 276 select 1;
#X obj 444 163 expr if($f1==-1 \, 0 \, 1);
#X obj 348 245 change;
#X floatatom 493 241 5 0 0 0 - - - 0;
#X floatatom 443 262 5 0 0 0 - - - 0;
#X obj 192 227 f;
#X msg 151 401 \$1 \, 0 120;
#N canvas 736 309 450 300 centroid_vector 0;
#X obj 17 43 unpack;
#X obj 205 14 r centroid;
#X obj 205 40 unpack;
#X obj 205 67 t b f;
#X obj 262 69 t b f;
#X obj 17 180 *;
#X obj 74 179 *;
#X obj 17 210 +;
#X obj 17 237 sqrt;
#X obj 17 263 outlet;
#X obj 17 16 inlet;
#X obj 17 144 -;
#X obj 74 146 -;
#X obj 17 67 expr if($f1==-1 \, 0 \, $f1);
#X obj 56 98 expr if($f1==-1 \, 0 \, $f1);
#X connect 0 0 13 0;
#X connect 0 1 14 0;
#X connect 1 0 2 0;
#X connect 2 0 3 0;
#X connect 2 1 4 0;
#X connect 3 0 11 0;
#X connect 3 1 11 1;
#X connect 4 0 12 0;
#X connect 4 1 12 1;
#X connect 5 0 7 0;
#X connect 6 0 7 1;
#X connect 7 0 8 0;
#X connect 8 0 9 0;
#X connect 10 0 0 0;
#X connect 11 0 5 0;
#X connect 11 0 5 1;
#X connect 12 0 6 0;
#X connect 12 0 6 1;
#X connect 13 0 11 0;
#X connect 14 0 12 0;
#X restore 236 84 pd centroid_vector;
#X floatatom 104 120 5 0 0 0 - - - 0;
#X obj 443 35 inlet;
#X msg 117 333 50;
#X msg 156 334 52;
#X msg 197 334 57;
#X msg 237 335 59;
#X obj 117 569 throw~ out;
#X obj 509 114 + 500;
#X obj 509 89 * 1500;
#X floatatom 638 146 5 0 0 0 - - - 0;
#X obj 232 122 expr pow((1-$f1) \, 2);
#X obj 509 139 abs;
#X obj 329 506 phasor~ 44100;
#X floatatom 415 373 5 0 0 0 - - - 0;
#X obj 409 402 expr pow((1-$f1) \, 0.5)*44100;
#X obj 444 67 unpack f f f f f;
#X obj 118 523 samphold~;
#X connect 0 0 6 0;
#X connect 1 0 2 0;
#X connect 2 0 24 0;
#X connect 2 1 25 0;
#X connect 2 2 26 0;
#X connect 2 3 27 0;
#X connect 3 0 0 0;
#X connect 4 0 5 0;
#X connect 4 0 5 1;
#X connect 5 0 6 1;
#X connect 6 0 38 0;
#X connect 7 0 12 0;
#X connect 8 0 9 0;
#X connect 9 0 7 1;
#X connect 10 0 7 0;
#X connect 10 0 8 0;
#X connect 10 0 1 0;
#X connect 10 0 11 0;
#X connect 10 0 19 0;
#X connect 11 0 0 1;
#X connect 12 0 10 0;
#X connect 13 0 16 0;
#X connect 13 0 12 1;
#X connect 14 0 10 0;
#X connect 15 0 13 0;
#X connect 15 0 17 0;
#X connect 16 0 14 0;
#X connect 19 0 20 0;
#X connect 20 0 4 0;
#X connect 21 0 22 0;
#X connect 21 0 32 0;
#X connect 23 0 21 0;
#X connect 23 0 37 0;
#X connect 24 0 3 0;
#X connect 25 0 3 0;
#X connect 26 0 3 0;
#X connect 27 0 3 0;
#X connect 29 0 31 0;
#X connect 29 0 33 0;
#X connect 30 0 29 0;
#X connect 32 0 19 1;
#X connect 33 0 8 1;
#X connect 34 0 38 1;
#X connect 35 0 36 0;
#X connect 36 0 34 0;
#X connect 37 0 15 0;
#X connect 37 0 18 0;
#X connect 37 1 30 0;
#X connect 37 2 35 0;
#X connect 38 0 28 0;
#X restore 137 423 pd sine_pluck;
#N canvas 0 0 866 769 sine_pluck 0;
#X obj 117 395 osc~;
#X obj 117 247 random 4;
#X obj 117 277 select 0 1 2 3;
#X obj 117 368 mtof;
#X obj 149 431 line~;
#X obj 149 460 *~;
#X obj 116 492 *~;
#X obj 286 199 delay;
#X obj 318 145 random 800;
#X obj 318 171 + 100;
#X obj 213 166 bng 20 250 50 0 empty empty empty 0 -10 0 12 #fcfcfc #000000 #000000;
#X msg 195 369 0.25;
#X obj 286 245 spigot;
#X obj 348 218 tgl 20 0 empty empty empty 0 -10 0 12 #fcfcfc #000000 #000000 0 1;
#X obj 348 276 select 1;
#X obj 444 163 expr if($f1==-1 \, 0 \, 1);
#X obj 348 245 change;
#X floatatom 493 241 5 0 0 0 - - - 0;
#X floatatom 443 262 5 0 0 0 - - - 0;
#X obj 192 227 f;
#X msg 151 401 \$1 \, 0 120;
#N canvas 736 309 450 300 centroid_vector 0;
#X obj 17 43 unpack;
#X obj 205 14 r centroid;
#X obj 205 40 unpack;
#X obj 205 67 t b f;
#X obj 262 69 t b f;
#X obj 17 180 *;
#X obj 74 179 *;
#X obj 17 210 +;
#X obj 17 237 sqrt;
#X obj 17 263 outlet;
#X obj 17 16 inlet;
#X obj 17 144 -;
#X obj 74 146 -;
#X obj 17 67 expr if($f1==-1 \, 0 \, $f1);
#X obj 56 98 expr if($f1==-1 \, 0 \, $f1);
#X connect 0 0 13 0;
#X connect 0 1 14 0;
#X connect 1 0 2 0;
#X connect 2 0 3 0;
#X connect 2 1 4 0;
#X connect 3 0 11 0;
#X connect 3 1 11 1;
#X connect 4 0 12 0;
#X connect 4 1 12 1;
#X connect 5 0 7 0;
#X connect 6 0 7 1;
#X connect 7 0 8 0;
#X connect 8 0 9 0;
#X connect 10 0 0 0;
#X connect 11 0 5 0;
#X connect 11 0 5 1;
#X connect 12 0 6 0;
#X connect 12 0 6 1;
#X connect 13 0 11 0;
#X connect 14 0 12 0;
#X restore 236 84 pd centroid_vector;
#X floatatom 104 120 5 0 0 0 - - - 0;
#X obj 443 35 inlet;
#X msg 117 333 74;
#X msg 156 334 76;
#X msg 197 334 81;
#X msg 237 335 83;
#X obj 117 586 throw~ out;
#X obj 502 89 * 1500;
#X obj 502 114 + 500;
#X obj 232 122 expr pow((1-$f1) \, 2);
#X floatatom 639 152 5 0 0 0 - - - 0;
#X obj 502 139 abs;
#X obj 329 506 phasor~ 44100;
#X floatatom 415 373 5 0 0 0 - - - 0;
#X obj 409 402 expr pow((1-$f1) \, 0.5)*44100;
#X obj 121 536 samphold~;
#X obj 444 67 unpack f f f f f;
#X connect 0 0 6 0;
#X connect 1 0 2 0;
#X connect 2 0 24 0;
#X connect 2 1 25 0;
#X connect 2 2 26 0;
#X connect 2 3 27 0;
#X connect 3 0 0 0;
#X connect 4 0 5 0;
#X connect 4 0 5 1;
#X connect 5 0 6 1;
#X connect 6 0 37 0;
#X connect 7 0 12 0;
#X connect 8 0 9 0;
#X connect 9 0 7 1;
#X connect 10 0 7 0;
#X connect 10 0 8 0;
#X connect 10 0 1 0;
#X connect 10 0 11 0;
#X connect 10 0 19 0;
#X connect 11 0 0 1;
#X connect 12 0 10 0;
#X connect 13 0 16 0;
#X connect 13 0 12 1;
#X connect 14 0 10 0;
#X connect 15 0 13 0;
#X connect 15 0 17 0;
#X connect 16 0 14 0;
#X connect 19 0 20 0;
#X connect 20 0 4 0;
#X connect 21 0 22 0;
#X connect 21 0 31 0;
#X connect 23 0 21 0;
#X connect 23 0 38 0;
#X connect 24 0 3 0;
#X connect 25 0 3 0;
#X connect 26 0 3 0;
#X connect 27 0 3 0;
#X connect 29 0 30 0;
#X connect 30 0 32 0;
#X connect 30 0 33 0;
#X connect 31 0 19 1;
#X connect 33 0 8 1;
#X connect 35 0 36 0;
#X connect 36 0 34 0;
#X connect 37 0 28 0;
#X connect 38 0 15 0;
#X connect 38 0 18 0;
#X connect 38 1 29 0;
#X connect 38 2 35 0;
#X restore 244 423 pd sine_pluck;
#X obj 127 339 hradio 20 1 0 8 empty empty scenes 0 -10 0 12 #fcfcfc #000000 #000000 0;
#X obj 117 456 catch~ out;
#N canvas 1185 455 541 300 zone_leftup 0;
#X obj 62 54 unpack;
#X obj 62 24 inlet;
#X obj 63 124 <;
#X obj 94 124 <;
#X obj 164 29 inlet;
#X obj 212 60 inlet;
#X obj 92 173 t b f;
#X obj 73 211 +;
#X obj 73 236 == 2;
#X obj 73 270 outlet;
#X connect 0 0 2 0;
#X connect 0 1 3 0;
#X connect 1 0 0 0;
#X connect 2 0 7 0;
#X connect 3 0 6 0;
#X connect 4 0 2 1;
#X connect 5 0 3 1;
#X connect 6 0 7 0;
#X connect 6 1 7 1;
#X connect 7 0 8 0;
#X connect 8 0 9 0;
#X restore 405 368 pd zone_leftup;
#X floatatom 452 333 5 0 0 0 - - - 0;
#X floatatom 500 335 5 0 0 0 - - - 0;
#N canvas 1185 455 541 300 zone_rightdown 0;
#X obj 62 54 unpack;
#X obj 62 24 inlet;
#X obj 164 29 inlet;
#X obj 212 60 inlet;
#X obj 92 173 t b f;
#X obj 73 211 +;
#X obj 73 236 == 2;
#X obj 73 270 outlet;
#X obj 63 124 >;
#X obj 94 124 >;
#X connect 0 0 8 0;
#X connect 0 1 9 0;
#X connect 1 0 0 0;
#X connect 2 0 8 1;
#X connect 3 0 9 1;
#X connect 4 0 5 0;
#X connect 4 1 5 1;
#X connect 5 0 6 0;
#X connect 6 0 7 0;
#X connect 8 0 5 0;
#X connect 9 0 4 0;
#X restore 380 418 pd zone_rightdown;
#X floatatom 547 150 5 0 0 0 - - - 0;
#X obj 722 116 r p1;
#X floatatom 794 117 5 0 0 0 x1 - - 0;
#X floatatom 915 117 5 0 0 0 x2 - - 0;
#X floatatom 857 116 5 0 0 0 y1 - - 0;
#X floatatom 971 117 5 0 0 0 y2 - - 0;
#N canvas 0 0 1045 784 zone_rectangle 0;
#N canvas 1042 258 541 300 zone_verticalband 0;
#X obj 62 54 unpack;
#X obj 62 24 inlet;
#X obj 164 29 inlet;
#X obj 212 60 inlet;
#X obj 92 173 t b f;
#X obj 73 211 +;
#X obj 73 236 == 2;
#X obj 73 270 outlet;
#X obj 63 124 >;
#X obj 94 124 <;
#X floatatom 20 104 5 0 0 0 - - - 0;
#X connect 0 0 8 0;
#X connect 0 0 9 0;
#X connect 0 0 10 0;
#X connect 1 0 0 0;
#X connect 2 0 8 1;
#X connect 3 0 9 1;
#X connect 4 0 5 0;
#X connect 4 1 5 1;
#X connect 5 0 6 0;
#X connect 6 0 7 0;
#X connect 8 0 5 0;
#X connect 9 0 4 0;
#X restore 86 103 pd zone_verticalband;
#N canvas 1042 258 541 300 zone_horizontalband 0;
#X obj 62 54 unpack;
#X obj 62 24 inlet;
#X obj 164 29 inlet;
#X obj 212 60 inlet;
#X obj 92 173 t b f;
#X obj 73 211 +;
#X obj 73 236 == 2;
#X obj 73 270 outlet;
#X obj 63 124 >;
#X obj 94 124 <;
#X floatatom 20 104 5 0 0 0 - - - 0;
#X connect 0 0 10 0;
#X connect 0 1 8 0;
#X connect 0 1 9 0;
#X connect 1 0 0 0;
#X connect 2 0 8 1;
#X connect 3 0 9 1;
#X connect 4 0 5 0;
#X connect 4 1 5 1;
#X connect 5 0 6 0;
#X connect 6 0 7 0;
#X connect 8 0 5 0;
#X connect 9 0 4 0;
#X restore 86 182 pd zone_horizontalband;
#X obj 57 215 +;
#X obj 57 240 == 2;
#X floatatom 57 265 5 0 0 0 - - - 0;
#X obj 47 42 inlet point;
#X obj 148 46 inlet x1;
#X obj 227 49 inlet y1;
#X obj 298 56 inlet x2;
#X obj 377 61 inlet y2;
#X obj 57 289 outlet;
#X connect 0 0 2 0;
#X connect 1 0 2 1;
#X connect 2 0 3 0;
#X connect 3 0 4 0;
#X connect 4 0 10 0;
#X connect 5 0 1 0;
#X connect 5 0 0 0;
#X connect 6 0 0 1;
#X connect 7 0 1 1;
#X connect 8 0 0 2;
#X connect 9 0 1 2;
#X restore 722 192 pd zone_rectangle;
#X floatatom 722 217 5 0 0 0 - - - 0;
#X text 779 88 coords 1 always smaller than coords 2;
#X text 498 41 escena3: cuadrados fijos \, los bailarines se mueven reciclar ruido de la escena 1 para cuando esten fuera de cualquier espacio. llenar cada espacio de un sonido distinto;
#X text 935 173 recortar samples \, son muy largos algunos como manejar las áreas de los rectángulos?? ahora es cutre pero supongo que funcionaria;
#X text 490 181 incluir esto para el volumen?;
#X obj 547 116 centroid_vector;
#X connect 0 0 1 0;
#X connect 1 0 2 0;
#X connect 4 0 7 0;
#X connect 7 0 5 0;
#X connect 11 0 14 0;
#X connect 12 0 14 1;
#X connect 13 0 14 2;
#X connect 14 0 0 0;
#X connect 15 0 4 0;
#X connect 22 0 21 1;
#X connect 23 0 21 2;
#X connect 26 0 31 0;
#X connect 27 0 31 1;
#X connect 28 0 31 3;
#X connect 29 0 31 2;
#X connect 30 0 31 4;
#X connect 31 0 32 0;
#X connect 37 0 25 0;
#X restore 1714 545 pd deprecated;
#X obj 37 719 *~;
#X obj 290 718 *~;
#X obj 396 719 *~;
#X obj 655 720 *~;
#X obj 88 496 vsl 20 170 0 1 0 0 empty empty empty 0 -9 0 12 #fcfcfc #000000 #000000 0 1;
#X obj 83 677 lop~ 20;
#X obj 336 496 vsl 20 170 0 1 0 0 empty empty empty 0 -9 0 12 #fcfcfc #000000 #000000 0 1;
#X obj 334 676 lop~ 20;
#X obj 446 502 vsl 20 170 0 1 0 0 empty empty empty 0 -9 0 12 #fcfcfc #000000 #000000 0 1;
#X obj 444 682 lop~ 20;
#X obj 699 503 vsl 20 170 0 1 0 0 empty empty empty 0 -9 0 12 #fcfcfc #000000 #000000 0 1;
#X obj 699 678 lop~ 20;
#X obj 1535 17 r lb;
#X obj 1543 416 r lb;
#X obj 1543 441 delay 20;
#X text 670 145 arriba izquierda 0 0;
#X obj 15 867 env~;
#X obj 15 892 - 100;
#X obj 15 917 vu 20 200 empty empty -1 -10 0 12 #404040 #000000 1 0;
#X msg 1947 1042 0 0.8 0.2 1;
#X obj 1540 733 pluck_scene2.1 1;
#X obj 1666 734 pluck_scene2.1 2;
#X obj 1791 735 pluck_scene2.1 3;
#X obj 1917 736 pluck_scene2.1 4;
#X obj 2043 735 pluck_scene2.1 5;
#X obj 2168 736 pluck_scene2.1 6;
#X obj 2294 740 pluck_scene2.1 7;
#X obj 1540 758 tgl 20 0 empty empty empty 0 -10 0 12 #fcfcfc #000000 #000000 0 1;
#X obj 1666 759 tgl 20 0 empty empty empty 0 -10 0 12 #fcfcfc #000000 #000000 0 1;
#X obj 1791 760 tgl 20 0 empty empty empty 0 -10 0 12 #fcfcfc #000000 #000000 0 1;
#X obj 1917 761 tgl 20 0 empty empty empty 0 -10 0 12 #fcfcfc #000000 #000000 0 1;
#X obj 2043 760 tgl 20 0 empty empty empty 0 -10 0 12 #fcfcfc #000000 #000000 0 1;
#X obj 2168 761 tgl 20 0 empty empty empty 0 -10 0 12 #fcfcfc #000000 #000000 0 1;
#X obj 2294 765 tgl 20 0 empty empty empty 0 -10 0 12 #fcfcfc #000000 #000000 0 1;
#X obj 1736 651 noise_scene1;
#X obj 2042 578 shepard_scene4;
#X msg 241 190 1;
#X obj 1760 686 courtain;
#X obj 90 200 bng 20 250 50 0 empty empty empty 0 -10 0 12 #fcfcfc #000000 #000000;
#X obj 1853 685 courtain;
#X obj 1951 682 courtain;
#X obj 2043 680 courtain;
#X obj 2134 678 courtain;
#X obj 2232 679 courtain;
#X obj 2324 680 courtain;
#X obj 150 711 *~;
#X obj 198 495 vsl 20 170 0 1 0 0 empty empty empty 0 -9 0 12 #fcfcfc #000000 #000000 0 1;
#X obj 198 679 lop~ 20;
#X obj 1829 653 noise_scene1;
#X obj 1925 657 noise_scene1;
#X obj 2020 655 noise_scene1;
#X obj 2114 657 noise_scene1;
#X obj 2210 661 noise_scene1;
#X obj 2305 659 noise_scene1;
#X obj 2307 903 r lb;
#X obj 241 161 r lb;
#X obj 395 514 /~ 4;
#X msg 1757 1075 0.6 0.6 1 1;
#X obj 1867 512 table spin;
#X obj 1867 327 table bossaL;
#X obj 1867 373 table somebodyL;
#X obj 1867 417 table idmL;
#X obj 1867 465 table circleL;
#X obj 1867 536 table raveL;
#X obj 1867 559 table raveR;
#X obj 1867 488 table circleR;
#X obj 1867 441 table idmR;
#X obj 1867 395 table somebodyR;
#X obj 1867 350 table bossaR;
#X obj 1863 282 soundfiler;
#X msg 1863 105 read -resize BOSSA.wav bossaL bossaR;
#X msg 1874 133 read -resize SOMEBODY.wav somebodyL somebodyR;
#X msg 1884 161 read -resize IDM.wav idmL idmR;
#X msg 1897 189 read -resize CIRCLE.wav circleL circleR;
#X msg 1923 252 read -resize RAVE.wav raveL raveR;
#X msg 1912 215 read -resize SPIN.wav spin \; spin normalize;
#X obj 1863 75 t b b b b b b;
#X obj 1863 47 bng 20 250 50 0 empty empty empty 0 -10 0 12 #fcfcfc #000000 #000000;
#X obj 1863 21 r lb;
#N canvas 140 238 450 300 clean_launchpad 0;
#X obj 25 101 until;
#X msg 25 74 127;
#X obj 25 133 f;
#X obj 54 133 + 1;
#X msg 25 157 \$1 0 0;
#X msg 71 102 0;
#X obj 25 184 noteout;
#X obj 25 48 bng 20 250 50 0 empty empty empty 0 -10 0 12 #fcfcfc #000000 #000000;
#X obj 25 19 inlet;
#X connect 0 0 2 0;
#X connect 1 0 0 0;
#X connect 1 0 5 0;
#X connect 2 0 3 0;
#X connect 2 0 4 0;
#X connect 3 0 2 1;
#X connect 4 0 6 0;
#X connect 5 0 2 1;
#X connect 7 0 1 0;
#X connect 8 0 7 0;
#X restore 673 72 pd clean_launchpad;
#X obj 673 39 bng 20 250 50 0 empty empty empty 0 -10 0 12 #fcfcfc #000000 #000000;
#X floatatom 38 439 5 0 0 0 - - - 0;
#X obj 38 415 slider 11;
#X obj 151 414 slider 12;
#X floatatom 151 438 5 0 0 0 - - - 0;
#N canvas 108 151 914 953 bossa 0;
#X obj 48 281 phasor~;
#X obj 48 315 *~;
#X obj 48 251 expr 44100/$f1;
#X obj 110 222 bng 19 250 50 0 empty empty empty 0 -10 0 12 #fcfcfc #000000 #000000;
#X floatatom 110 305 5 0 0 0 - - - 0;
#X msg 150 223 0;
#X obj 17 16 notein;
#X obj 18 374 *~;
#X obj 110 197 select 1;
#X obj 17 144 f;
#X obj 49 144 + 1;
#X obj 17 168 % 2;
#X obj 17 87 select 1;
#X obj 313 245 noteout;
#X obj 313 192 + 30;
#X obj 313 169 * 90;
#X obj 313 142 f;
#X obj 313 107 delay 1;
#X obj 313 83 select 0;
#X obj 17 190 lop~ 20;
#X obj 17 63 expr if($f1==83&&$f2==127 \, 1 \, 0);
#X msg 313 218 83 \$1 0;
#X obj 17 423 outlet~;
#X obj 152 421 outlet~;
#X obj 153 375 *~;
#X obj 48 347 tabread4~ bossaL;
#X obj 171 347 tabread4~ bossaR;
#X obj 110 281 array size bossaL;
#X connect 0 0 1 0;
#X connect 1 0 25 0;
#X connect 1 0 26 0;
#X connect 2 0 0 0;
#X connect 3 0 27 0;
#X connect 5 0 0 1;
#X connect 6 0 20 0;
#X connect 6 1 18 0;
#X connect 6 1 20 1;
#X connect 7 0 22 0;
#X connect 8 0 3 0;
#X connect 8 0 5 0;
#X connect 9 0 10 0;
#X connect 9 0 11 0;
#X connect 10 0 9 1;
#X connect 11 0 8 0;
#X connect 11 0 16 1;
#X connect 11 0 19 0;
#X connect 12 0 9 0;
#X connect 14 0 21 0;
#X connect 15 0 14 0;
#X connect 16 0 15 0;
#X connect 17 0 16 0;
#X connect 18 0 17 0;
#X connect 19 0 7 0;
#X connect 19 0 24 0;
#X connect 20 0 12 0;
#X connect 21 0 13 0;
#X connect 24 0 23 0;
#X connect 25 0 7 1;
#X connect 26 0 24 1;
#X connect 27 0 1 1;
#X connect 27 0 2 0;
#X connect 27 0 4 0;
#X restore 256 462 pd bossa;
#N canvas 25 26 914 1007 somebody 0;
#X obj 48 281 phasor~;
#X obj 48 315 *~;
#X obj 48 251 expr 44100/$f1;
#X obj 110 222 bng 19 250 50 0 empty empty empty 0 -10 0 12 #fcfcfc #000000 #000000;
#X floatatom 110 305 5 0 0 0 - - - 0;
#X msg 150 223 0;
#X obj 17 16 notein;
#X obj 18 374 *~;
#X obj 110 197 select 1;
#X obj 17 144 f;
#X obj 49 144 + 1;
#X obj 17 168 % 2;
#X obj 17 87 select 1;
#X obj 342 297 noteout;
#X obj 342 244 + 30;
#X obj 342 221 * 90;
#X obj 342 194 f;
#X obj 342 159 delay 1;
#X obj 342 135 select 0;
#X obj 17 190 lop~ 20;
#X obj 20 63 expr if($f1==85&&$f2==127 \, 1 \, 0);
#X msg 342 270 85 \$1 0;
#X obj 110 281 array size somebodyL;
#X obj 199 347 tabread4~ somebodyR;
#X obj 48 347 tabread4~ somebodyL;
#X obj 18 398 outlet~;
#X obj 181 374 *~;
#X obj 181 398 outlet~;
#X connect 0 0 1 0;
#X connect 1 0 23 0;
#X connect 1 0 24 0;
#X connect 2 0 0 0;
#X connect 3 0 22 0;
#X connect 5 0 0 1;
#X connect 6 0 20 0;
#X connect 6 1 18 0;
#X connect 6 1 20 1;
#X connect 7 0 25 0;
#X connect 8 0 3 0;
#X connect 8 0 5 0;
#X connect 9 0 10 0;
#X connect 9 0 11 0;
#X connect 10 0 9 1;
#X connect 11 0 8 0;
#X connect 11 0 16 1;
#X connect 11 0 19 0;
#X connect 12 0 9 0;
#X connect 14 0 21 0;
#X connect 15 0 14 0;
#X connect 16 0 15 0;
#X connect 17 0 16 0;
#X connect 18 0 17 0;
#X connect 19 0 7 0;
#X connect 19 0 26 0;
#X connect 20 0 12 0;
#X connect 21 0 13 0;
#X connect 22 0 1 1;
#X connect 22 0 2 0;
#X connect 22 0 4 0;
#X connect 23 0 26 1;
#X connect 24 0 7 1;
#X connect 26 0 27 0;
#X restore 512 446 pd somebody;
#N canvas 84 164 914 982 spin 0;
#X obj 17 16 notein;
#X obj 17 98 select 1;
#X obj 208 230 noteout;
#X obj 208 174 delay 1;
#X obj 208 150 select 0;
#X obj 17 150 array size spin;
#X obj 16 301 tabread4~ spin;
#X obj 16 271 line~;
#X msg 17 247 0 \, \$1 \$2;
#X obj 17 220 pack f f;
#X obj 70 173 expr $f1/44.1;
#X obj 17 196 f;
#X obj 80 197 bng 19 250 50 0 empty empty empty 0 -10 0 12 #fcfcfc #000000 #000000;
#X obj 17 63 expr if($f1==78&&$f2==127 \, 1 \, 0);
#X msg 208 203 78 10 0;
#X obj 16 329 outlet~;
#X connect 0 0 13 0;
#X connect 0 1 4 0;
#X connect 0 1 13 1;
#X connect 1 0 5 0;
#X connect 3 0 14 0;
#X connect 4 0 3 0;
#X connect 5 0 10 0;
#X connect 5 0 11 1;
#X connect 6 0 15 0;
#X connect 7 0 6 0;
#X connect 8 0 7 0;
#X connect 9 0 8 0;
#X connect 10 0 9 1;
#X connect 10 0 12 0;
#X connect 11 0 9 0;
#X connect 12 0 11 0;
#X connect 13 0 1 0;
#X connect 14 0 2 0;
#X restore 1038 405 pd spin;
#N canvas -17 198 914 1007 idm 0;
#X obj 48 281 phasor~;
#X obj 48 315 *~;
#X obj 48 251 expr 44100/$f1;
#X obj 110 222 bng 19 250 50 0 empty empty empty 0 -10 0 12 #fcfcfc #000000 #000000;
#X floatatom 110 305 5 0 0 0 - - - 0;
#X msg 150 223 0;
#X obj 17 16 notein;
#X obj 18 374 *~;
#X obj 110 197 select 1;
#X obj 17 144 f;
#X obj 49 144 + 1;
#X obj 17 168 % 2;
#X obj 17 87 select 1;
#X obj 253 310 noteout;
#X obj 253 257 + 30;
#X obj 253 234 * 90;
#X obj 253 207 f;
#X obj 253 172 delay 1;
#X obj 253 148 select 0;
#X obj 17 190 lop~ 20;
#X obj 17 63 expr if($f1==87&&$f2==127 \, 1 \, 0);
#X msg 253 283 87 \$1 0;
#X obj 18 398 outlet~;
#X obj 141 373 *~;
#X obj 141 397 outlet~;
#X obj 48 347 tabread4~ idmL;
#X obj 159 347 tabread4~ idmR;
#X obj 110 281 array size idmL;
#X connect 0 0 1 0;
#X connect 1 0 25 0;
#X connect 1 0 26 0;
#X connect 2 0 0 0;
#X connect 3 0 27 0;
#X connect 5 0 0 1;
#X connect 6 0 20 0;
#X connect 6 1 18 0;
#X connect 6 1 20 1;
#X connect 7 0 22 0;
#X connect 8 0 3 0;
#X connect 8 0 5 0;
#X connect 9 0 10 0;
#X connect 9 0 11 0;
#X connect 10 0 9 1;
#X connect 11 0 8 0;
#X connect 11 0 16 1;
#X connect 11 0 19 0;
#X connect 12 0 9 0;
#X connect 14 0 21 0;
#X connect 15 0 14 0;
#X connect 16 0 15 0;
#X connect 17 0 16 0;
#X connect 18 0 17 0;
#X connect 19 0 7 0;
#X connect 19 0 23 0;
#X connect 20 0 12 0;
#X connect 21 0 13 0;
#X connect 23 0 24 0;
#X connect 25 0 7 1;
#X connect 26 0 23 1;
#X connect 27 0 1 1;
#X connect 27 0 2 0;
#X connect 27 0 4 0;
#X restore 775 473 pd idm;
#N canvas 0 154 914 1007 rave 0;
#X obj 48 281 phasor~;
#X obj 48 315 *~;
#X obj 48 251 expr 44100/$f1;
#X obj 110 222 bng 19 250 50 0 empty empty empty 0 -10 0 12 #fcfcfc #000000 #000000;
#X floatatom 110 305 5 0 0 0 - - - 0;
#X obj 17 16 notein;
#X obj 18 374 *~;
#X obj 110 197 select 1;
#X obj 17 144 f;
#X obj 49 144 + 1;
#X obj 17 168 % 2;
#X obj 17 87 select 1;
#X obj 285 297 noteout;
#X obj 285 244 + 30;
#X obj 285 221 * 90;
#X obj 285 194 f;
#X obj 285 159 delay 1;
#X obj 285 135 select 0;
#X obj 17 190 lop~ 20;
#X obj 17 63 expr if($f1==68&&$f2==127 \, 1 \, 0);
#X msg 285 270 68 \$1 0;
#X msg 150 223 0;
#X obj 170 345 tabread4~ raveR;
#X obj 48 347 tabread4~ raveL;
#X obj 110 281 array size raveL;
#X obj 153 373 *~;
#X obj 18 398 outlet~;
#X obj 153 397 outlet~;
#X connect 0 0 1 0;
#X connect 1 0 23 0;
#X connect 1 0 22 0;
#X connect 2 0 0 0;
#X connect 3 0 24 0;
#X connect 5 0 19 0;
#X connect 5 1 17 0;
#X connect 5 1 19 1;
#X connect 6 0 26 0;
#X connect 7 0 3 0;
#X connect 7 0 21 0;
#X connect 8 0 9 0;
#X connect 8 0 10 0;
#X connect 9 0 8 1;
#X connect 10 0 7 0;
#X connect 10 0 15 1;
#X connect 10 0 18 0;
#X connect 11 0 8 0;
#X connect 13 0 20 0;
#X connect 14 0 13 0;
#X connect 15 0 14 0;
#X connect 16 0 15 0;
#X connect 17 0 16 0;
#X connect 18 0 6 0;
#X connect 18 0 25 0;
#X connect 19 0 11 0;
#X connect 20 0 12 0;
#X connect 21 0 0 1;
#X connect 22 0 25 1;
#X connect 23 0 6 1;
#X connect 24 0 1 1;
#X connect 24 0 2 0;
#X connect 24 0 4 0;
#X connect 25 0 27 0;
#X restore 1094 405 pd rave;
#N canvas 69 417 914 982 circle 0;
#X obj 48 281 phasor~;
#X obj 48 315 *~;
#X obj 48 251 expr 44100/$f1;
#X obj 110 222 bng 19 250 50 0 empty empty empty 0 -10 0 12 #fcfcfc #000000 #000000;
#X floatatom 110 305 5 0 0 0 - - - 0;
#X msg 150 223 0;
#X obj 17 16 notein;
#X obj 18 374 *~;
#X obj 110 197 select 1;
#X obj 17 144 f;
#X obj 49 144 + 1;
#X obj 17 168 % 2;
#X obj 17 87 select 1;
#X obj 373 286 noteout;
#X obj 373 233 + 30;
#X obj 373 210 * 90;
#X obj 373 183 f;
#X obj 373 148 delay 1;
#X obj 373 124 select 0;
#X obj 17 190 lop~ 20;
#X obj 17 63 expr if($f1==88&&$f2==127 \, 1 \, 0);
#X msg 373 259 88 \$1 0;
#X obj 18 398 outlet~;
#X obj 48 347 tabread4~ circleL;
#X obj 111 281 array size circleL;
#X obj 179 347 tabread4~ circleR;
#X obj 160 375 *~;
#X obj 160 399 outlet~;
#X connect 0 0 1 0;
#X connect 1 0 23 0;
#X connect 1 0 25 0;
#X connect 2 0 0 0;
#X connect 3 0 24 0;
#X connect 5 0 0 1;
#X connect 6 0 20 0;
#X connect 6 1 18 0;
#X connect 6 1 20 1;
#X connect 7 0 22 0;
#X connect 8 0 3 0;
#X connect 8 0 5 0;
#X connect 9 0 10 0;
#X connect 9 0 11 0;
#X connect 10 0 9 1;
#X connect 11 0 8 0;
#X connect 11 0 16 1;
#X connect 11 0 19 0;
#X connect 12 0 9 0;
#X connect 14 0 21 0;
#X connect 15 0 14 0;
#X connect 16 0 15 0;
#X connect 17 0 16 0;
#X connect 18 0 17 0;
#X connect 19 0 7 0;
#X connect 19 0 26 0;
#X connect 20 0 12 0;
#X connect 21 0 13 0;
#X connect 23 0 7 1;
#X connect 24 0 1 1;
#X connect 24 0 2 0;
#X connect 24 0 4 0;
#X connect 25 0 26 1;
#X connect 26 0 27 0;
#X restore 966 405 pd circle;
#X floatatom 542 348 5 0 0 0 - - - 0;
#X floatatom 798 413 5 0 0 0 - - - 0;
#X floatatom 1087 344 5 0 0 0 - - - 0;
#X floatatom 274 379 5 0 0 0 - - - 0;
#X obj 274 355 slider 13;
#X obj 542 324 slider 15;
#X obj 798 389 slider 17;
#X obj 1087 320 slider 18;
#X obj 256 486 *~;
#X obj 512 470 *~;
#X obj 775 497 *~;
#X obj 966 429 *~;
#X obj 1038 429 *~;
#X obj 1094 429 *~;
#X obj 291 485 *~;
#X obj 548 470 *~;
#X obj 807 498 *~;
#X obj 1008 428 *~;
#X obj 1122 429 *~;
#X obj 131 384 catch~ scene2;
#X obj 65 338 catch~ ruidito;
#X obj 14 312 catch~ courtain;
#X obj 38 538 *~;
#X obj 151 514 *~;
#X floatatom 394 414 5 0 0 0 - - - 0;
#X obj 394 486 *~;
#X obj 394 390 slider 14;
#X obj 374 360 catch~ scene3;
#X floatatom 655 380 5 0 0 0 - - - 0;
#X obj 655 466 *~;
#X obj 635 326 catch~ scene4;
#X obj 655 356 slider 16;
#X obj 150 916 else/giga.rev~;
#X obj 151 947 expr~ tanh($v1);
#X obj 353 989 lop~ 20;
#X obj 561 939 tgl 50 1 empty empty empty 0 -10 0 12 #ff0400 #000000 #000000 1 1;
#X obj 151 988 *~;
#X obj 256 718 *~;
#N canvas 140 238 450 300 launchpad_color 0;
#X obj 35 22 notein;
#X obj 35 185 noteout;
#X obj 35 86 pack;
#X obj 35 116 list append 0;
#X obj 60 54 / 127;
#X listbox 45 148 20 0 0 0 - - - 0;
#X connect 0 0 2 0;
#X connect 0 1 4 0;
#X connect 2 0 3 0;
#X connect 3 0 1 0;
#X connect 3 0 5 0;
#X connect 4 0 2 1;
#X restore 673 104 pd launchpad_color;
#X obj 547 719 *~;
#X obj 584 496 vsl 20 170 0 1 0 0 empty empty empty 0 -9 0 12 #fcfcfc #000000 #000000 0 1;
#X obj 584 677 lop~ 20;
#X obj 513 719 *~;
#X obj 808 725 *~;
#X obj 843 500 vsl 20 170 0 1 0 0 empty empty empty 0 -9 0 12 #fcfcfc #000000 #000000 0 1;
#X obj 843 683 lop~ 20;
#X obj 774 725 *~;
#X obj 1034 728 *~;
#X obj 936 498 vsl 20 170 0 1 0 0 empty empty empty 0 -9 0 12 #fcfcfc #000000 #000000 0 1;
#X obj 936 678 lop~ 20;
#X obj 1000 728 *~;
#X obj 264 990 *~;
#X obj 265 947 expr~ tanh($v1);
#X obj 379 946 expr~ tanh($v1);
#X obj 61 868 env~;
#X obj 61 893 - 100;
#X obj 61 918 vu 20 200 empty empty -1 -10 0 12 #404040 #000000 1 0;
#X obj 1160 669 line~;
#X obj 1160 594 r finale;
#X obj 1160 618 bng 20 250 50 0 empty empty empty 0 -10 0 12 #fcfcfc #000000 #000000;
#X obj 419 264 r finale;
#X obj 419 288 bng 20 250 50 0 empty empty empty 0 -10 0 12 #fcfcfc #000000 #000000;
#N canvas 0 32 1920 982 finale 0;
#X obj 560 -5 notein;
#X obj 17 87 select 1;
#X obj 373 286 noteout;
#X obj 373 183 f;
#X obj 373 148 delay 1;
#X obj 373 124 select 0;
#X obj 373 233 + 50;
#X obj 373 210 * 70;
#X obj 151 190 s finale;
#X obj 151 148 bng 20 250 50 0 empty empty empty 0 -10 0 12 #fcfcfc #000000 #000000;
#X msg 82 148 0;
#X msg 25 196 1;
#X obj 17 63 expr if($f1==74&&$f2==127 \, 1 \, 0);
#X msg 373 259 74 \$1 0;
#X obj 476 196 select 1;
#X obj 833 399 noteout;
#X obj 833 296 f;
#X obj 833 261 delay 1;
#X obj 832 233 select 0;
#X obj 610 257 bng 20 250 50 0 empty empty empty 0 -10 0 12 #fcfcfc #000000 #000000;
#X msg 541 257 0;
#X msg 484 305 1;
#X obj 476 172 expr if($f1==84&&$f2==127 \, 1 \, 0);
#X msg 833 372 84 \$1 0;
#X obj 610 299 s finale_cancel;
#X obj 833 346 + 40;
#X obj 833 323 * 80;
#X connect 0 0 12 0;
#X connect 0 0 22 0;
#X connect 0 1 5 0;
#X connect 0 1 12 1;
#X connect 0 1 22 1;
#X connect 0 1 18 0;
#X connect 1 0 9 0;
#X connect 1 0 11 0;
#X connect 1 1 10 0;
#X connect 3 0 7 0;
#X connect 4 0 3 0;
#X connect 5 0 4 0;
#X connect 6 0 13 0;
#X connect 7 0 6 0;
#X connect 9 0 8 0;
#X connect 10 0 3 1;
#X connect 11 0 3 1;
#X connect 12 0 1 0;
#X connect 13 0 2 0;
#X connect 14 0 19 0;
#X connect 14 0 21 0;
#X connect 14 1 20 0;
#X connect 16 0 26 0;
#X connect 17 0 16 0;
#X connect 18 0 17 0;
#X connect 19 0 24 0;
#X connect 20 0 16 1;
#X connect 21 0 16 1;
#X connect 22 0 14 0;
#X connect 23 0 15 0;
#X connect 25 0 23 0;
#X connect 26 0 25 0;
#X restore 1545 889 pd finale;
#X obj 1161 697 *~ 22050;
#X obj 1025 781 lop~ 22050;
#X obj 946 781 lop~ 22050;
#X obj 1119 595 r lb;
#X msg 419 311 1 \, 0.25 185000;
#X obj 1109 543 r finale_cancel;
#X msg 1110 644 1 100;
#X obj 1109 567 bng 20 250 50 0 empty empty empty 0 -10 0 12 #fcfcfc #000000 #000000;
#X obj 365 239 r finale_cancel;
#X obj 365 263 bng 20 250 50 0 empty empty empty 0 -10 0 12 #fcfcfc #000000 #000000;
#X msg 365 288 1 100;
#X obj 419 335 line;
#X obj 1230 670 line;
#X obj 1231 695 *;
#X floatatom 1230 720 5 0 0 0 - - - 0;
#X msg 1160 639 1 \, 0 100000;
#X obj 1025 808 lop~ 22050;
#X obj 946 808 lop~ 22050;
#X obj 327 240 r lb;
#X obj 31 276 catch~ transition;
#N canvas 0 32 1920 982 transition 0;
#X obj 17 16 notein;
#X obj 208 230 noteout;
#X obj 208 174 delay 1;
#X obj 208 150 select 0;
#X obj 32 280 noise~;
#X obj 157 265 expr~ random(0 \, 64);
#X obj 157 290 /~ 64;
#X obj 31 344 *~;
#X obj 31 369 *~;
#X obj 33 510 throw~ transition;
#X floatatom 120 167 5 0 0 0 - - - 0;
#X msg 208 203 81 10 0;
#X obj 17 63 expr if($f1==81&&$f2==127 \, 1 \, 0);
#X obj 31 319 expr~ $v1 * $v2;
#X obj 49 211 lop~ 0.1;
#X obj 60 345 phasor~ 20;
#X obj 32 437 hip~ 500;
#X obj 31 413 *~ 0.1;
#X connect 0 0 12 0;
#X connect 0 1 3 0;
#X connect 0 1 12 1;
#X connect 2 0 11 0;
#X connect 3 0 2 0;
#X connect 4 0 13 0;
#X connect 5 0 6 0;
#X connect 6 0 13 1;
#X connect 7 0 8 0;
#X connect 8 0 17 0;
#X connect 11 0 1 0;
#X connect 12 0 10 0;
#X connect 12 0 14 0;
#X connect 13 0 7 0;
#X connect 14 0 8 1;
#X connect 15 0 7 1;
#X connect 16 0 9 0;
#X connect 17 0 16 0;
#X restore 1546 920 pd transition;
#X obj 65 363 hip~ 100;
#X msg 1851 1098 2 2 2 2;
#X msg 2231 1109 0.4 0.4 0.7 0.7;
#X msg 2043 1065 0.2 0 0.6 1;
#X msg 1661 1052 0 0 0.4 0.4;
#X msg 2134 1088 0 0.2 1 0.6;
#X obj 1087 367 lop~ 0.5;
#X obj 798 436 lop~ 0.5;
#X obj 65 388 *~ 2;
#X msg 38 463 \$1 1000;
#X obj 38 488 line~;
#X msg 151 462 \$1 1000;
#X obj 151 487 line~;
#X msg 274 403 \$1 1000;
#X obj 274 428 line~;
#X msg 394 438 \$1 1000;
#X obj 394 462 line~;
#X msg 542 372 \$1 1000;
#X obj 542 402 line~;
#X msg 655 404 \$1 1000;
#X obj 655 429 line~;
#X obj 965 957 ctlin 10;
#X obj 1037 957 ctlin 11;
#X obj 1108 956 ctlin 12;
#X obj 190 774 ctlin 13;
#X floatatom 190 799 5 0 0 0 - - - 0;
#X floatatom 1108 981 5 0 0 0 - - - 0;
#X floatatom 1037 982 5 0 0 0 - - - 0;
#X floatatom 965 982 5 0 0 0 - - - 0;
#X obj 190 823 / 127;
#X obj 395 539 hip~ 120;
#X obj 395 564 hip~ 120;
#X connect 0 0 4 0;
#X connect 1 0 0 0;
#X connect 2 0 3 0;
#X connect 3 0 12 0;
#X connect 5 0 16 0;
#X connect 6 0 19 0;
#X connect 7 0 20 0;
#X connect 8 0 21 0;
#X connect 9 0 22 0;
#X connect 10 0 82 0;
#X connect 11 0 83 0;
#X connect 13 0 123 0;
#X connect 13 0 126 0;
#X connect 14 0 137 0;
#X connect 14 0 128 0;
#X connect 15 0 138 0;
#X connect 15 0 129 0;
#X connect 17 0 212 0;
#X connect 18 0 17 0;
#X connect 23 0 139 0;
#X connect 23 0 130 0;
#X connect 24 0 140 0;
#X connect 24 0 131 0;
#X connect 25 0 141 0;
#X connect 25 0 132 0;
#X connect 26 0 142 0;
#X connect 26 0 133 0;
#X connect 28 0 27 0;
#X connect 30 0 109 0;
#X connect 31 0 115 0;
#X connect 32 0 114 0;
#X connect 33 0 113 0;
#X connect 34 0 112 0;
#X connect 35 0 111 0;
#X connect 36 0 110 0;
#X connect 37 0 81 0;
#X connect 45 0 37 0;
#X connect 46 0 37 0;
#X connect 47 0 37 0;
#X connect 48 0 37 0;
#X connect 49 0 37 0;
#X connect 50 0 37 0;
#X connect 51 0 37 0;
#X connect 53 0 52 1;
#X connect 53 0 59 0;
#X connect 54 0 51 0;
#X connect 54 1 50 0;
#X connect 54 2 49 0;
#X connect 54 3 48 0;
#X connect 54 4 47 0;
#X connect 54 5 46 0;
#X connect 54 6 45 0;
#X connect 55 0 54 0;
#X connect 55 0 56 0;
#X connect 56 0 53 1;
#X connect 59 0 53 1;
#X connect 68 0 57 0;
#X connect 70 0 69 0;
#X connect 73 0 72 0;
#X connect 74 0 71 0;
#X connect 78 0 75 0;
#X connect 79 0 76 0;
#X connect 80 0 77 0;
#X connect 81 0 52 0;
#X connect 81 1 53 0;
#X connect 85 0 86 0;
#X connect 87 0 266 0;
#X connect 87 0 269 0;
#X connect 87 0 267 0;
#X connect 87 0 108 0;
#X connect 87 0 265 0;
#X connect 87 0 146 0;
#X connect 87 0 268 0;
#X connect 89 0 212 0;
#X connect 90 0 233 0;
#X connect 91 0 212 0;
#X connect 92 0 212 0;
#X connect 93 0 94 0;
#X connect 94 0 89 1;
#X connect 95 0 96 0;
#X connect 96 0 90 1;
#X connect 96 0 217 1;
#X connect 97 0 98 0;
#X connect 98 0 91 1;
#X connect 99 0 100 0;
#X connect 100 0 92 1;
#X connect 101 0 55 0;
#X connect 102 0 103 0;
#X connect 103 0 58 0;
#X connect 105 0 106 0;
#X connect 106 0 107 0;
#X connect 108 0 64 0;
#X connect 109 0 116 0;
#X connect 110 0 117 0;
#X connect 111 0 118 0;
#X connect 112 0 119 0;
#X connect 113 0 120 0;
#X connect 114 0 121 0;
#X connect 115 0 122 0;
#X connect 125 0 27 0;
#X connect 127 0 86 0;
#X connect 134 0 212 0;
#X connect 135 0 136 0;
#X connect 136 0 134 1;
#X connect 143 0 87 0;
#X connect 144 0 125 0;
#X connect 145 0 294 0;
#X connect 146 0 62 0;
#X connect 159 0 158 0;
#X connect 160 0 158 0;
#X connect 161 0 158 0;
#X connect 162 0 158 0;
#X connect 163 0 158 0;
#X connect 164 0 158 0;
#X connect 165 0 159 0;
#X connect 165 1 160 0;
#X connect 165 2 161 0;
#X connect 165 3 162 0;
#X connect 165 4 164 0;
#X connect 165 5 163 0;
#X connect 166 0 165 0;
#X connect 167 0 166 0;
#X connect 169 0 168 0;
#X connect 170 0 273 0;
#X connect 171 0 170 0;
#X connect 172 0 173 0;
#X connect 173 0 275 0;
#X connect 174 0 188 0;
#X connect 174 1 194 1;
#X connect 175 0 189 0;
#X connect 175 1 195 1;
#X connect 176 0 192 0;
#X connect 177 0 190 0;
#X connect 177 1 196 1;
#X connect 178 0 193 0;
#X connect 178 1 198 1;
#X connect 179 0 191 0;
#X connect 179 1 197 1;
#X connect 180 0 281 0;
#X connect 181 0 271 0;
#X connect 182 0 270 0;
#X connect 183 0 277 0;
#X connect 184 0 183 0;
#X connect 185 0 180 0;
#X connect 186 0 181 0;
#X connect 187 0 182 0;
#X connect 188 0 217 0;
#X connect 189 0 222 0;
#X connect 190 0 226 0;
#X connect 191 0 230 0;
#X connect 192 0 230 0;
#X connect 192 0 227 0;
#X connect 193 0 230 0;
#X connect 194 0 90 0;
#X connect 195 0 219 0;
#X connect 196 0 223 0;
#X connect 197 0 227 0;
#X connect 198 0 227 0;
#X connect 199 0 203 1;
#X connect 200 0 264 0;
#X connect 201 0 202 1;
#X connect 202 0 89 0;
#X connect 203 0 134 0;
#X connect 204 0 279 0;
#X connect 205 0 145 0;
#X connect 206 0 204 0;
#X connect 207 0 205 1;
#X connect 208 0 283 0;
#X connect 209 0 92 0;
#X connect 210 0 209 1;
#X connect 211 0 208 0;
#X connect 212 0 213 0;
#X connect 213 0 216 0;
#X connect 213 0 231 0;
#X connect 214 0 216 1;
#X connect 214 0 231 1;
#X connect 215 0 214 0;
#X connect 216 0 29 0;
#X connect 216 0 105 0;
#X connect 217 0 232 0;
#X connect 219 0 233 0;
#X connect 220 0 221 0;
#X connect 221 0 219 1;
#X connect 221 0 222 1;
#X connect 222 0 232 0;
#X connect 223 0 233 0;
#X connect 224 0 225 0;
#X connect 225 0 223 1;
#X connect 225 0 226 1;
#X connect 226 0 232 0;
#X connect 227 0 244 0;
#X connect 228 0 229 0;
#X connect 229 0 227 1;
#X connect 229 0 230 1;
#X connect 230 0 245 0;
#X connect 231 0 29 1;
#X connect 231 0 234 0;
#X connect 232 0 216 0;
#X connect 233 0 231 0;
#X connect 234 0 235 0;
#X connect 235 0 236 0;
#X connect 237 0 243 0;
#X connect 238 0 239 0;
#X connect 239 0 258 0;
#X connect 240 0 241 0;
#X connect 241 0 247 0;
#X connect 243 0 244 1;
#X connect 243 0 245 1;
#X connect 243 0 259 1;
#X connect 243 0 260 1;
#X connect 244 0 259 0;
#X connect 245 0 260 0;
#X connect 246 0 249 0;
#X connect 247 0 254 0;
#X connect 248 0 250 0;
#X connect 249 0 237 0;
#X connect 249 0 255 0;
#X connect 250 0 249 0;
#X connect 251 0 252 0;
#X connect 252 0 253 0;
#X connect 253 0 254 0;
#X connect 254 0 97 0;
#X connect 255 0 256 0;
#X connect 255 0 256 1;
#X connect 256 0 228 0;
#X connect 256 0 257 0;
#X connect 258 0 237 0;
#X connect 258 0 255 0;
#X connect 259 0 233 0;
#X connect 260 0 232 0;
#X connect 261 0 252 0;
#X connect 262 0 202 1;
#X connect 264 0 272 0;
#X connect 265 0 63 0;
#X connect 266 0 67 0;
#X connect 267 0 65 0;
#X connect 268 0 61 0;
#X connect 269 0 66 0;
#X connect 270 0 197 0;
#X connect 270 0 193 1;
#X connect 270 0 198 0;
#X connect 270 0 192 1;
#X connect 270 0 191 1;
#X connect 271 0 196 0;
#X connect 271 0 190 1;
#X connect 272 0 202 1;
#X connect 273 0 274 0;
#X connect 274 0 202 0;
#X connect 275 0 276 0;
#X connect 276 0 203 0;
#X connect 277 0 278 0;
#X connect 278 0 188 1;
#X connect 278 0 194 0;
#X connect 279 0 280 0;
#X connect 280 0 205 0;
#X connect 281 0 282 0;
#X connect 282 0 189 1;
#X connect 282 0 195 0;
#X connect 283 0 284 0;
#X connect 284 0 209 0;
#X connect 285 0 292 0;
#X connect 286 0 291 0;
#X connect 287 0 290 0;
#X connect 288 0 289 0;
#X connect 289 0 293 0;
#X connect 293 0 18 0;
#X connect 294 0 295 0;
#X connect 295 0 91 0;
